<?xml version="1.0" encoding="UTF-8" standalone="no"?>
<!-- Created with Inkscape (http://www.inkscape.org/) -->

<svg
   xmlns:dc="http://purl.org/dc/elements/1.1/"
   xmlns:cc="http://creativecommons.org/ns#"
   xmlns:rdf="http://www.w3.org/1999/02/22-rdf-syntax-ns#"
   xmlns:svg="http://www.w3.org/2000/svg"
   xmlns="http://www.w3.org/2000/svg"
   xmlns:xlink="http://www.w3.org/1999/xlink"
   xmlns:sodipodi="http://sodipodi.sourceforge.net/DTD/sodipodi-0.dtd"
   xmlns:inkscape="http://www.inkscape.org/namespaces/inkscape"
   width="1600px"
   height="1200px"
   id="svg2985"
   version="1.1"
   inkscape:version="0.48.4 r9939"
   sodipodi:docname="posbox_2_doc_schema.svg"
   inkscape:export-filename="/home/odoo/sphinx_fun/_images/posbox_2_doc_schema.png"
   inkscape:export-xdpi="67.5"
   inkscape:export-ydpi="67.5">
  <defs
     id="defs2987">
    <marker
       inkscape:stockid="DotL"
       orient="auto"
       refY="0.0"
       refX="0.0"
       id="DotL"
       style="overflow:visible">
      <path
         id="path6730"
         d="M -2.5,-1.0 C -2.5,1.7600000 -4.7400000,4.0 -7.5,4.0 C -10.260000,4.0 -12.5,1.7600000 -12.5,-1.0 C -12.5,-3.7600000 -10.260000,-6.0 -7.5,-6.0 C -4.7400000,-6.0 -2.5,-3.7600000 -2.5,-1.0 z "
         style="fill-rule:evenodd;stroke:#000000;stroke-width:1.0pt"
         transform="scale(0.8) translate(7.4, 1)" />
    </marker>
    <marker
       inkscape:stockid="DotM"
       orient="auto"
       refY="0.0"
       refX="0.0"
       id="DotM"
       style="overflow:visible">
      <path
         id="path6733"
         d="M -2.5,-1.0 C -2.5,1.7600000 -4.7400000,4.0 -7.5,4.0 C -10.260000,4.0 -12.5,1.7600000 -12.5,-1.0 C -12.5,-3.7600000 -10.260000,-6.0 -7.5,-6.0 C -4.7400000,-6.0 -2.5,-3.7600000 -2.5,-1.0 z "
         style="fill-rule:evenodd;stroke:#000000;stroke-width:1.0pt"
         transform="scale(0.4) translate(7.4, 1)" />
    </marker>
    <marker
       inkscape:stockid="DotL"
       orient="auto"
       refY="0"
       refX="0"
       id="DotL-8"
       style="overflow:visible">
      <path
         inkscape:connector-curvature="0"
         id="path6730-8"
         d="m -2.5,-1 c 0,2.76 -2.24,5 -5,5 -2.76,0 -5,-2.24 -5,-5 0,-2.76 2.24,-5 5,-5 2.76,0 5,2.24 5,5 z"
         style="fill-rule:evenodd;stroke:#000000;stroke-width:1pt"
         transform="matrix(0.8,0,0,0.8,5.92,0.8)" />
    </marker>
    <marker
       inkscape:stockid="DotL"
       orient="auto"
       refY="0"
       refX="0"
       id="DotL-88"
       style="overflow:visible">
      <path
         inkscape:connector-curvature="0"
         id="path6730-6"
         d="m -2.5,-1 c 0,2.76 -2.24,5 -5,5 -2.76,0 -5,-2.24 -5,-5 0,-2.76 2.24,-5 5,-5 2.76,0 5,2.24 5,5 z"
         style="fill-rule:evenodd;stroke:#000000;stroke-width:1pt"
         transform="matrix(0.8,0,0,0.8,5.92,0.8)" />
    </marker>
    <marker
       inkscape:stockid="DotL"
       orient="auto"
       refY="0"
       refX="0"
       id="DotL-2"
       style="overflow:visible">
      <path
         inkscape:connector-curvature="0"
         id="path6730-1"
         d="m -2.5,-1 c 0,2.76 -2.24,5 -5,5 -2.76,0 -5,-2.24 -5,-5 0,-2.76 2.24,-5 5,-5 2.76,0 5,2.24 5,5 z"
         style="fill-rule:evenodd;stroke:#000000;stroke-width:1pt"
         transform="matrix(0.8,0,0,0.8,5.92,0.8)" />
    </marker>
    <marker
       inkscape:stockid="DotL"
       orient="auto"
       refY="0"
       refX="0"
       id="DotL-7"
       style="overflow:visible">
      <path
         inkscape:connector-curvature="0"
         id="path6730-0"
         d="m -2.5,-1 c 0,2.76 -2.24,5 -5,5 -2.76,0 -5,-2.24 -5,-5 0,-2.76 2.24,-5 5,-5 2.76,0 5,2.24 5,5 z"
         style="fill-rule:evenodd;stroke:#000000;stroke-width:1pt"
         transform="matrix(0.8,0,0,0.8,5.92,0.8)" />
    </marker>
    <marker
       inkscape:stockid="DotL"
       orient="auto"
       refY="0"
       refX="0"
       id="DotL-9"
       style="overflow:visible">
      <path
         inkscape:connector-curvature="0"
         id="path6730-3"
         d="m -2.5,-1 c 0,2.76 -2.24,5 -5,5 -2.76,0 -5,-2.24 -5,-5 0,-2.76 2.24,-5 5,-5 2.76,0 5,2.24 5,5 z"
         style="fill-rule:evenodd;stroke:#000000;stroke-width:1pt"
         transform="matrix(0.8,0,0,0.8,5.92,0.8)" />
    </marker>
    <marker
       inkscape:stockid="DotL"
       orient="auto"
       refY="0"
       refX="0"
       id="DotL-5"
       style="overflow:visible">
      <path
         inkscape:connector-curvature="0"
         id="path6730-11"
         d="m -2.5,-1 c 0,2.76 -2.24,5 -5,5 -2.76,0 -5,-2.24 -5,-5 0,-2.76 2.24,-5 5,-5 2.76,0 5,2.24 5,5 z"
         style="fill-rule:evenodd;stroke:#000000;stroke-width:1pt"
         transform="matrix(0.8,0,0,0.8,5.92,0.8)" />
    </marker>
    <marker
       inkscape:stockid="DotL"
       orient="auto"
       refY="0"
       refX="0"
       id="DotL-0"
       style="overflow:visible">
      <path
         inkscape:connector-curvature="0"
         id="path6730-60"
         d="m -2.5,-1 c 0,2.76 -2.24,5 -5,5 -2.76,0 -5,-2.24 -5,-5 0,-2.76 2.24,-5 5,-5 2.76,0 5,2.24 5,5 z"
         style="fill-rule:evenodd;stroke:#000000;stroke-width:1pt"
         transform="matrix(0.8,0,0,0.8,5.92,0.8)" />
    </marker>
    <marker
       inkscape:stockid="DotL"
       orient="auto"
       refY="0"
       refX="0"
       id="DotL-80"
       style="overflow:visible">
      <path
         inkscape:connector-curvature="0"
         id="path6730-7"
         d="m -2.5,-1 c 0,2.76 -2.24,5 -5,5 -2.76,0 -5,-2.24 -5,-5 0,-2.76 2.24,-5 5,-5 2.76,0 5,2.24 5,5 z"
         style="fill-rule:evenodd;stroke:#000000;stroke-width:1pt"
         transform="matrix(0.8,0,0,0.8,5.92,0.8)" />
    </marker>
    <pattern
       patternTransform="matrix(1.4389319,-1.3813228,10.427428,10.009955,-23.164964,-11.035856)"
       id="pattern5531"
       xlink:href="#pattern4749"
       inkscape:collect="always" />
    <pattern
       inkscape:collect="always"
       xlink:href="#pattern6512"
       id="pattern4749"
       patternTransform="matrix(1.4070053,-1.4070053,10.196067,10.196067,-10.9375,-22.457161)" />
    <pattern
       inkscape:collect="always"
       xlink:href="#Strips1_3"
       id="pattern6512"
       patternTransform="matrix(1.4070053,-1.4070053,10.196067,10.196067,0,0)" />
    <pattern
       inkscape:stockid="Stripes 1:3"
       id="Strips1_3"
       patternTransform="translate(0,0) scale(10,10)"
       height="1"
       width="4"
       patternUnits="userSpaceOnUse"
       inkscape:collect="always">
      <rect
         id="rect4622"
         height="2"
         width="1"
         y="-0.5"
         x="0"
         style="fill:black;stroke:none" />
    </pattern>
  </defs>
  <sodipodi:namedview
     id="base"
     pagecolor="#ffffff"
     bordercolor="#666666"
     borderopacity="1.0"
     inkscape:pageopacity="1"
     inkscape:pageshadow="2"
     inkscape:zoom="0.64"
     inkscape:cx="490.52504"
     inkscape:cy="455.63873"
     inkscape:current-layer="layer1"
     inkscape:document-units="px"
     showgrid="false"
     inkscape:window-width="1366"
     inkscape:window-height="672"
     inkscape:window-x="0"
     inkscape:window-y="27"
     inkscape:window-maximized="1" />
  <metadata
     id="metadata2990">
    <rdf:RDF>
      <cc:Work
         rdf:about="">
        <dc:format>image/svg+xml</dc:format>
        <dc:type
           rdf:resource="http://purl.org/dc/dcmitype/StillImage" />
        <dc:title></dc:title>
      </cc:Work>
    </rdf:RDF>
  </metadata>
  <g
     id="layer1"
     inkscape:label="Layer 1"
     inkscape:groupmode="layer">
    <path
       style="opacity:0.25;fill:url(#pattern5531);fill-opacity:1;stroke:none"
       d="m 573.99082,306.49783 c -16.99712,0 -30.68073,13.13577 -30.68073,29.45241 l 0,620.77067 -28.06009,24.4823 34.00448,43.47309 c 0.10851,0.1414 0.20853,0.2898 0.31959,0.4294 l 2.17322,2.7612 0.22366,-0.1227 c 5.56845,5.5052 13.35788,8.9277 22.01987,8.9277 l 473.95348,0 c 16.997,0 30.6807,-13.1357 30.6807,-29.4524 l 0,-671.26926 c 0,-10.7078 -5.8779,-20.03341 -14.7332,-25.18795 l -42.0582,-30.43414 -27.93222,26.16968 c -45.13239,0 -162.88495,0 -419.91056,0 z"
       id="path6489"
       inkscape:connector-curvature="0"
       sodipodi:nodetypes="csccccccsssscccc" />
    <g
       transform="translate(-13.147209,52.672935)"
       id="g3847" />
    <rect
       ry="25.024"
       style="fill:#ffffff;fill-opacity:1;stroke:#000000;stroke-width:8;stroke-miterlimit:4;stroke-opacity:1;stroke-dasharray:none"
       id="rect2993"
       width="509.11688"
       height="730.677"
       x="512.46881"
       y="269.79449" />
    <rect
       ry="16.049"
       y="315.75156"
       x="564.96216"
       height="638.76288"
       width="404.13022"
       id="rect3763"
       style="fill:none;stroke:#000000;stroke-width:1.7660557;stroke-miterlimit:4;stroke-opacity:1;stroke-dasharray:none" />
    <g
       id="g4326"
       transform="translate(-10.64993,-61.522705)">
      <text
         sodipodi:linespacing="125%"
         id="text6606"
         y="626.60999"
         x="319.89322"
         style="font-size:36.98903275px;font-style:normal;font-weight:normal;line-height:125%;letter-spacing:0px;word-spacing:0px;fill:#000000;fill-opacity:1;stroke:none;font-family:Sans"
         xml:space="preserve"><tspan
           style="font-style:normal;font-variant:normal;font-weight:normal;font-stretch:normal;font-family:Droid Sans;-inkscape-font-specification:Droid Sans"
           y="626.60999"
           x="319.89322"
           id="tspan6608"
           sodipodi:role="line">HDMI</tspan></text>
      <path
         inkscape:connector-curvature="0"
         id="path6663"
         d="m 437.5,614.15728 54.6875,0"
         style="fill:none;stroke:#000000;stroke-width:1px;stroke-linecap:butt;stroke-linejoin:miter;stroke-opacity:1;marker-start:url(#DotL)" />
    </g>
    <text
       sodipodi:linespacing="125%"
       id="text6602"
       y="176.59084"
       x="701.41144"
       style="font-size:36.98903275px;font-style:normal;font-weight:normal;line-height:125%;letter-spacing:0px;word-spacing:0px;fill:#000000;fill-opacity:1;stroke:none;font-family:Sans"
       xml:space="preserve"><tspan
         style="font-style:normal;font-variant:normal;font-weight:normal;font-stretch:normal;font-family:Droid Sans;-inkscape-font-specification:Droid Sans"
         y="176.59084"
         x="701.41144"
         id="tspan6604"
         sodipodi:role="line">SD Card</tspan></text>
    <path
       inkscape:connector-curvature="0"
       id="path7295"
       d="m 767.02726,201.35353 0,54.6875"
       style="fill:none;stroke:#000000;stroke-width:1px;stroke-linecap:butt;stroke-linejoin:miter;stroke-opacity:1;marker-start:url(#DotL)" />
    <g
       id="g4263"
       transform="translate(34,-8)">
      <text
         sodipodi:linespacing="125%"
         id="text6614"
         y="1097.278"
         x="578.10681"
         style="font-size:36.98903275px;font-style:normal;font-weight:normal;line-height:125%;letter-spacing:0px;word-spacing:0px;fill:#000000;fill-opacity:1;stroke:none;font-family:Sans"
         xml:space="preserve"><tspan
           style="font-style:normal;font-variant:normal;font-weight:normal;font-stretch:normal;font-family:Droid Sans;-inkscape-font-specification:Droid Sans"
           y="1097.278"
           x="578.10681"
           id="tspan6616"
           sodipodi:role="line">RJ45</tspan></text>
      <path
         sodipodi:nodetypes="cc"
         style="fill:none;stroke:#000000;stroke-width:1px;stroke-linecap:butt;stroke-linejoin:miter;stroke-opacity:1;marker-start:url(#DotL)"
         d="m 612.03792,1053.883 0,-32.0313"
         id="path7311"
         inkscape:connector-curvature="0" />
    </g>
    <g
       transform="translate(-11.59618,10)"
       id="g3178">
      <text
         sodipodi:linespacing="125%"
         id="text6598"
         y="392.33667"
         x="261.82697"
         style="font-size:36.98903275px;font-style:normal;font-weight:normal;line-height:125%;letter-spacing:0px;word-spacing:0px;fill:#000000;fill-opacity:1;stroke:none;font-family:Sans"
         xml:space="preserve"><tspan
           style="font-style:normal;font-variant:normal;font-weight:normal;font-stretch:normal;font-family:Droid Sans;-inkscape-font-specification:Droid Sans"
           y="392.33667"
           x="261.82697"
           id="tspan6600"
           sodipodi:role="line">2A Power</tspan></text>
      <path
         inkscape:connector-curvature="0"
         id="path6663-5"
         d="m 438.44625,383.125 54.6875,0"
         style="fill:none;stroke:#000000;stroke-width:1px;stroke-linecap:butt;stroke-linejoin:miter;stroke-opacity:1;marker-start:url(#DotL)" />
    </g>
    <g
       id="g3323">
      <path
         sodipodi:type="arc"
         style="fill:#ff0d0d;fill-opacity:1;stroke:#000000;stroke-width:2.16506362;stroke-miterlimit:4;stroke-opacity:1;stroke-dasharray:none"
         id="path6541"
         sodipodi:cx="1110.1562"
         sodipodi:cy="856.64062"
         sodipodi:rx="9.375"
         sodipodi:ry="10.546875"
         d="m 1119.5313,856.64062 a 9.375,10.546875 0 1 1 -18.75,0 9.375,10.546875 0 1 1 18.75,0 z"
         transform="matrix(1,0,0,0.85333333,-128.94268,-557.4604)" />
      <text
         sodipodi:linespacing="125%"
         id="text6606-5"
         y="186.56161"
         x="998.72925"
         style="font-size:36.98903275px;font-style:normal;font-weight:normal;line-height:125%;letter-spacing:0px;word-spacing:0px;fill:#000000;fill-opacity:1;stroke:none;font-family:Sans"
         xml:space="preserve"><tspan
           style="font-style:normal;font-variant:normal;font-weight:normal;font-stretch:normal;font-family:Droid Sans;-inkscape-font-specification:Droid Sans"
           y="186.56161"
           x="998.72925"
           id="tspan6608-2"
           sodipodi:role="line">Power LED</tspan></text>
      <path
         style="fill:none;stroke:#000000;stroke-width:1px;stroke-linecap:butt;stroke-linejoin:miter;stroke-opacity:1;marker-start:url(#DotL)"
         d="m 981.21357,201.35353 0,54.6875"
         id="path7295-5"
         inkscape:connector-curvature="0" />
    </g>
    <path
       inkscape:connector-curvature="0"
       id="path7295-2"
       d="m 948.45629,164.35377 0,91.55103"
       style="fill:none;stroke:#000000;stroke-width:1.2724576px;stroke-linecap:butt;stroke-linejoin:miter;stroke-opacity:1;marker-start:url(#DotL)" />
    <g
       id="g4156">
      <text
         sodipodi:linespacing="125%"
         id="text6606-5-6"
         y="148.21866"
         x="965.90454"
         style="font-size:36.98903275px;font-style:normal;font-weight:normal;line-height:125%;letter-spacing:0px;word-spacing:0px;fill:#000000;fill-opacity:1;stroke:none;font-family:Sans"
         xml:space="preserve"><tspan
           style="font-style:normal;font-variant:normal;font-weight:normal;font-stretch:normal;font-family:Droid Sans;-inkscape-font-specification:Droid Sans"
           y="148.21866"
           x="965.90454"
           id="tspan6608-2-7"
           sodipodi:role="line">Status LED</tspan></text>
      <path
         transform="matrix(1,0,0,0.85333333,-161.69996,-595.993)"
         d="m 1119.5313,856.64062 a 9.375,10.546875 0 1 1 -18.75,0 9.375,10.546875 0 1 1 18.75,0 z"
         sodipodi:ry="10.546875"
         sodipodi:rx="9.375"
         sodipodi:cy="856.64062"
         sodipodi:cx="1110.1562"
         id="path6539-4"
         style="fill:#00fd28;fill-opacity:1;stroke:#000000;stroke-width:2.16506362;stroke-miterlimit:4;stroke-opacity:1;stroke-dasharray:none"
         sodipodi:type="arc" />
    </g>
    <g
       id="g4268"
       transform="translate(-42,3.0206)">
      <text
         xml:space="preserve"
         style="font-size:36.98903275px;font-style:normal;font-weight:normal;line-height:125%;letter-spacing:0px;word-spacing:0px;fill:#000000;fill-opacity:1;stroke:none;font-family:Sans"
         x="875.10474"
         y="1086.486"
         id="text6610"
         sodipodi:linespacing="125%"><tspan
           sodipodi:role="line"
           id="tspan6612"
           x="875.10474"
           y="1086.486"
           style="font-style:normal;font-variant:normal;font-weight:normal;font-stretch:normal;font-family:Droid Sans;-inkscape-font-specification:Droid Sans">USB</tspan></text>
      <path
         sodipodi:nodetypes="cc"
         style="fill:none;stroke:#000000;stroke-width:1px;stroke-linecap:butt;stroke-linejoin:miter;stroke-opacity:1;marker-start:url(#DotL)"
         d="m 891.39129,1042.8627 10e-6,-32.0316"
         id="path7311-1"
         inkscape:connector-curvature="0" />
      <path
         sodipodi:nodetypes="cc"
         style="fill:none;stroke:#000000;stroke-width:1px;stroke-linecap:butt;stroke-linejoin:miter;stroke-opacity:1;marker-start:url(#DotL)"
         d="m 863.90377,1038.7693 -22.64959,-22.6495"
         id="path7311-4"
         inkscape:connector-curvature="0" />
      <path
         sodipodi:nodetypes="cc"
         style="fill:none;stroke:#000000;stroke-width:1px;stroke-linecap:butt;stroke-linejoin:miter;stroke-opacity:1;marker-start:url(#DotL)"
         d="m 928.76104,1042.8627 10e-6,-32.0316"
         id="path7311-1-3"
         inkscape:connector-curvature="0" />
      <path
         sodipodi:nodetypes="cc"
         style="fill:none;stroke:#000000;stroke-width:1px;stroke-linecap:butt;stroke-linejoin:miter;stroke-opacity:1;marker-start:url(#DotL)"
         d="m 956.24855,1038.7693 22.64958,-22.6495"
         id="path7311-1-6"
         inkscape:connector-curvature="0" />
    </g>
    <g
       id="g4321"
       transform="translate(0,-30)">
      <text
         sodipodi:linespacing="125%"
         id="text6606-6"
         y="758.51514"
         x="309.24329"
         style="font-size:36.98903275px;font-style:normal;font-weight:normal;line-height:125%;letter-spacing:0px;word-spacing:0px;fill:#000000;fill-opacity:1;stroke:none;font-family:Sans"
         xml:space="preserve"><tspan
           style="font-style:normal;font-variant:normal;font-weight:normal;font-stretch:normal;font-family:Droid Sans;-inkscape-font-specification:Droid Sans"
           y="758.51514"
           x="309.24329"
           id="tspan6608-5"
           sodipodi:role="line">Audio</tspan></text>
      <path
         inkscape:connector-curvature="0"
         id="path6663-9"
         d="m 426.85007,746.06242 54.6875,0"
         style="fill:none;stroke:#000000;stroke-width:1px;stroke-linecap:butt;stroke-linejoin:miter;stroke-opacity:1;marker-start:url(#DotL)" />
    </g>
  </g>
</svg>
