<svg version="1.1" xmlns="http://www.w3.org/2000/svg" viewBox="0 0 716 180" width="716" height="180">
<defs>
  <pattern id="diagonalHatch" width="5" height="5" patternTransform="rotate(45 0 0)" patternUnits="userSpaceOnUse">
    <line x1="0" y1="0" x2="0" y2="5" stroke="#cccccc" stroke-width="1"/>
  </pattern>
</defs>

<g font-family="Arial" font-size="16px" direction="ltr" fill="none" stroke="none" stroke-width="1">
  <rect x="22" y="10" width="94" height="25" stroke="#495057" fill="url(#diagonalHatch)"/>
  <text x="48" y="27" fill="#495057">Page1</text>
  <rect x="118" y="10" width="94" height="25" stroke="#495057"/>
  <text x="144" y="27" fill="#495057">Page2</text>

  <rect x="10" y="35" width="697" height="135" stroke="#495057"/>

  <g fill="none" stroke="#888888" stroke-width="1" stroke-linecap="round">
    <rect x="15" y="42" rx="5" ry="5" width="94" height="25" stroke-dasharray="2 6"/>
    <rect x="114" y="42" rx="5" ry="5" width="241" height="25"/>
    <rect x="362" y="42" rx="5" ry="5" width="94" height="25" stroke-dasharray="2 6"/>
    <rect x="461" y="42" rx="5" ry="5" width="241" height="25"/>
    <rect x="15" y="73" rx="5" ry="5" width="94" height="25" stroke-dasharray="2 6"/>
    <rect x="114" y="73" rx="5" ry="5" width="241" height="25"/>
    <rect x="362" y="73" rx="5" ry="5" width="94" height="25" stroke-dasharray="2 6"/>
    <rect x="461" y="73" rx="5" ry="5" width="241" height="25"/>
  </g>
</g>
</svg>