<svg version="1.1" xmlns="http://www.w3.org/2000/svg" viewBox="0 0 727 255" width="727" height="255">
<defs>
  <pattern id="diagonalHatch" width="5" height="5" patternTransform="rotate(45 0 0)" patternUnits="userSpaceOnUse">
    <line x1="0" y1="0" x2="0" y2="5" stroke="#cccccc" stroke-width="1"/>
  </pattern>
  <pattern id="pencil" width="26" height="22" patternUnits="userSpaceOnUse">
    <g transform="translate(3 3)">
      <path transform="scale(0.03 0.03)" d="M328.883,89.125l107.59,107.589l-272.34,272.34L56.604,361.465L328.883,89.125z M518.113,63.177l-47.981-47.981
          c-18.543-18.543-48.653-18.543-67.259,0l-45.961,45.961l107.59,107.59l53.611-53.611
          C532.495,100.753,532.495,77.559,518.113,63.177z M0.3,512.69c-1.958,8.812,5.998,16.708,14.811,14.565l119.891-29.069
          L27.473,390.597L0.3,512.69z" fill="#444444"/>
    </g>
  </pattern>
  
  <pattern id="line" width="720" height="25" patternUnits="userSpaceOnUse">
    <g fill="none" stroke="#888888" stroke-width="1">
      <rect x="10" y="0" rx="5" ry="5" width="94" height="25" stroke-dasharray="2 6"/>
      <rect x="109" y="0" rx="5" ry="5" width="241" height="25"/>
      <rect x="357" y="0" rx="5" ry="5" width="94" height="25" stroke-dasharray="2 6"/>
      <rect x="456" y="0" rx="5" ry="5" width="241" height="25"/>
    </g>
  </pattern>
</defs>
<g font-family="Arial" font-size="16px" direction="ltr" fill="none" stroke="#888888" stroke-width="0">

  <g transform="translate(400 0)">
    <line x1="0" y1="0" x2="0" y2="50" stroke-width="1"/>
    <rect transform="translate(11 13)" rx="5" ry="5" width="22" height="22" fill="url(#pencil)"/>
    <text x="40" y="30" fill="#444444">Button1</text>
  </g>
  <g transform="translate(560 0)">
    <line x1="0" y1="0" x2="0" y2="50" stroke-width="1"/>
    <text x="16" y="33" fill="#444444" font-size="24px">$</text>
    <text x="40" y="23" fill="#444444">123</text>
    <text x="41" y="39" fill="#444444">Invoices</text>
  </g>
  <line x1="1" y1="0" x2="1" y2="50" stroke-width="1"/>
  <line x1="0" y1="50" x2="720" y2="50" stroke-width="1"/>
  <line x1="720" y1="0" x2="720" y2="50" stroke-width="1"/>

  <rect transform="translate(0 70)" width="720" height="25" fill="url(#line)"/>
  <rect transform="translate(0 100)" width="720" height="25" fill="url(#line)"/>
  <rect transform="translate(0 130)" width="720" height="25" fill="url(#line)"/>
  <rect transform="translate(0 160)" width="720" height="25" fill="url(#line)"/>
  <rect transform="translate(0 190)" width="720" height="25" fill="url(#line)"/>
</g>
</svg>