<svg version="1.1" xmlns="http://www.w3.org/2000/svg" viewBox="0 0 727 255" width="727" height="255">
<defs>
  <pattern id="diagonalHatch" width="5" height="5" patternTransform="rotate(45 0 0)" patternUnits="userSpaceOnUse">
    <line x1="0" y1="0" x2="0" y2="5" stroke="#cccccc" stroke-width="1"/>
  </pattern>
</defs>
<g font-family="Arial" font-size="16px" direction="ltr" fill="none" stroke="#495057" stroke-width="0">
  <g transform="translate(10 20)">
    <rect x="0" y="0" rx="5" ry="5" width="94" height="25" stroke-width="1" stroke-dasharray="2 6"/>
    <text x="10" y="17" fill="#888888">custom</text>
  </g>
  <g transform="translate(109 20)">
    <rect x="0" y="0" rx="5" ry="5" width="588" height="25" stroke-width="1"/>
    <text x="10" y="17" fill="#888888">value of field a</text>
  </g>

  <g transform="translate(10 52)">
    <rect x="0" y="0" rx="5" ry="5" width="94" height="25" stroke-width="1" stroke-dasharray="2 6"/>
    <text x="10" y="17" fill="#888888">label b</text>
  </g>
  <g transform="translate(109 52)">
    <rect x="0" y="0" rx="5" ry="5" width="588" height="25" stroke-width="1"/>
    <text x="10" y="17" fill="#888888">value of field b</text>
  </g>

  <g transform="translate(10 83)">
    <rect x="0" y="0" rx="5" ry="5" width="687" height="25" fill="url(#diagonalHatch)" stroke-width="1" stroke-dasharray="2 6"/>
    <text x="10" y="17" fill="#495057">title 1</text>
  </g>

  <g transform="translate(10 115)">
    <rect x="0" y="0" rx="5" ry="5" width="340" height="25" fill="url(#diagonalHatch)" stroke-width="1" stroke-dasharray="2 6"/>
    <text x="10" y="17" fill="#495057">title 2</text>
  </g>
  <g transform="translate(357 115)">
    <rect x="0" y="0" rx="5" ry="5" width="94" height="25" stroke-width="1" stroke-dasharray="2 6"/>
    <text x="10" y="17" fill="#888888">label e</text>
  </g>
  <g transform="translate(456 115)">
    <rect x="0" y="0" rx="5" ry="5" width="241" height="25" stroke-width="1"/>
    <text x="10" y="17" fill="#888888">value of field e</text>
  </g>

  <g transform="translate(10 147)">
    <rect x="0" y="0" rx="5" ry="5" width="94" height="25" stroke-width="1" stroke-dasharray="2 6"/>
    <text x="10" y="17" fill="#888888">label c</text>
  </g>
  <g transform="translate(109 147)">
    <rect x="0" y="0" rx="5" ry="5" width="241" height="25" stroke-width="1"/>
    <text x="10" y="17" fill="#888888">value of field c</text>
  </g>
  <g transform="translate(357 147)">
    <rect x="0" y="0" rx="5" ry="5" width="94" height="25" stroke-width="1" stroke-dasharray="2 6"/>
    <text x="10" y="17" fill="#888888">label f</text>
  </g>
  <g transform="translate(456 147)">
    <rect x="0" y="0" rx="5" ry="5" width="241" height="25" stroke-width="1"/>
    <text x="10" y="17" fill="#888888">value of field f</text>
  </g>

  <g transform="translate(10 178)">
    <rect x="0" y="0" rx="5" ry="5" width="94" height="25" stroke-width="1" stroke-dasharray="2 6"/>
    <text x="10" y="17" fill="#888888">label d</text>
  </g>
  <g transform="translate(109 178)">
    <rect x="0" y="0" rx="5" ry="5" width="241" height="25" stroke-width="1"/>
    <text x="10" y="17" fill="#888888">value of field d</text>
  </g>
  <g transform="translate(357 178)">
    <rect x="0" y="0" rx="5" ry="5" width="94" height="25" stroke-width="1" stroke-dasharray="2 6"/>
    <text x="10" y="17" fill="#888888">label g</text>
  </g>
  <g transform="translate(456 178)">
    <rect x="0" y="0" rx="5" ry="5" width="241" height="25" stroke-width="1"/>
    <text x="10" y="17" fill="#888888">value of field g</text>
  </g>

  <g transform="translate(10 210)">
    <rect x="0" y="0" rx="5" ry="5" width="94" height="25" stroke-width="1" stroke-dasharray="2 6"/>
    <text x="10" y="17" fill="#888888">label h</text>
  </g>
  <g transform="translate(109 210)">
    <rect x="0" y="0" rx="5" ry="5" width="369" height="25" stroke-width="1"/>
    <text x="10" y="17" fill="#888888">value of field h</text>
  </g>
  <g transform="translate(485 210)">
    <rect x="0" y="0" rx="5" ry="5" width="94" height="25" stroke-width="1" stroke-dasharray="2 6"/>
    <text x="10" y="17" fill="#888888">label i</text>
  </g>
  <g transform="translate(584 210)">
    <rect x="0" y="0" rx="5" ry="5" width="113" height="25" stroke-width="1"/>
    <text x="10" y="17" fill="#888888">value of field i</text>
  </g>
</g>
</svg>