<svg version="1.1" xmlns="http://www.w3.org/2000/svg" viewBox="0 0 705 235" width="705" height="235">
<defs>
  <pattern id="fields" width="335" height="91" patternUnits="userSpaceOnUse">
    <g fill="none" stroke="#888888" stroke-width="1.2">
      <rect x="6" y="28" rx="5" ry="5" width="80" height="20" stroke-dasharray="2 6"/>
      <rect x="92" y="28" rx="5" ry="5" width="237" height="20"/>
      <rect x="6" y="52" rx="5" ry="5" width="80" height="20" stroke-dasharray="2 6"/>
      <rect x="92" y="52" rx="5" ry="5" width="237" height="20"/>
    </g>
  </pattern>
</defs>
<g font-family="Arial" font-size="16px" direction="ltr" fill="#495057" stroke="none" stroke-width="1">
  <g transform="translate(10 10)">
    <rect x="0" y="0" width="686" height="215" fill="none" stroke="#888888"/>
    <text x="2" y="17">Title 1</text>
  </g>
  <g transform="translate(16 35)">
    <rect x="0" y="0" width="335" height="91" fill="url(#fields)" stroke="#495057"/>
    <text x="2" y="17">Title 1.1</text>
  </g>
  <g transform="translate(16 130)">
    <rect x="0" y="0" width="335" height="91" fill="url(#fields)" stroke="#495057"/>
    <text x="2" y="17">Title 1.2</text>
  </g>
  <g transform="translate(355 130)">
    <rect x="0" y="0" width="335" height="91" fill="url(#fields)" stroke="#495057"/>
    <text x="2" y="17">Title 1.3</text>
  </g>
</g>
</svg>