<svg version="1.1" xmlns="http://www.w3.org/2000/svg" viewBox="0 0 660 255" width="660" height="255">
<defs>
  <pattern id="diagonalHatch" width="5" height="5" patternTransform="rotate(45 0 0)" patternUnits="userSpaceOnUse">
    <line x1="0" y1="0" x2="0" y2="5" stroke="#cccccc" stroke-width="1"/>
  </pattern>
  <pattern id="line" width="700" height="28" patternUnits="userSpaceOnUse">
    <g transform="translate(0 0)" fill="none" stroke="#495057" stroke-width="1">
      <rect x="18" y="7" width="10" height="10"/>
      <rect x="40" y="1" rx="5" ry="5" width="280" height="25" stroke-dasharray="1.2 6"/>
      <rect x="330" y="1" rx="5" ry="5" width="100" height="25" stroke-dasharray="1.2 6"/>
      <rect x="440" y="1" rx="5" ry="5" width="104" height="25" stroke-dasharray="1.2 6"/>
      <rect x="554" y="1" rx="5" ry="5" width="80" height="25" stroke-dasharray="1.2 6"/>
    </g>
  </pattern>
  <pattern id="pencil" width="26" height="22" patternUnits="userSpaceOnUse">
    <g transform="translate(3 3)">
      <path transform="scale(0.03 0.03)" d="M328.883,89.125l107.59,107.589l-272.34,272.34L56.604,361.465L328.883,89.125z M518.113,63.177l-47.981-47.981
          c-18.543-18.543-48.653-18.543-67.259,0l-45.961,45.961l107.59,107.59l53.611-53.611
          C532.495,100.753,532.495,77.559,518.113,63.177z M0.3,512.69c-1.958,8.812,5.998,16.708,14.811,14.565l119.891-29.069
          L27.473,390.597L0.3,512.69z" fill="#495057"/>
    </g>
  </pattern>
</defs>
<g font-family="Arial" font-size="16px" direction="ltr" fill="none" stroke="#495057" stroke-width="0">
  <rect x="10" y="10" width="636" height="240" stroke-width="1"/>
  <rect x="10" y="10" width="636" height="25" fill="url(#diagonalHatch)" stroke-width="1"/>
  <rect x="17" y="17" width="10" height="10" stroke-width="1"/>
  <text x="40" y="28" fill="#888888">Name</text>
  <text x="330" y="28" fill="#888888">Amount</text>
  <text x="440" y="28" fill="#888888">Currency</text>
  <text x="560" y="28" fill="#888888">Tax</text>

  <g transform="translate(10 46)">
    <text x="26" y="12" fill="#888888">Admin (3)</text>
    <rect transform="translate(117 -3)" rx="5" ry="5" width="22" height="22" fill="url(#pencil)" stroke-width="1" stroke-dasharray="1 4"/>
    <rect x="147" y="-3" rx="5" ry="5" width="60" height="22" stroke-width="1" stroke-dasharray="1 4"/>
    <text x="150" y="14" fill="#000000">Button1</text>
  </g>
  <rect transform="translate(0 70)" width="700" height="28" fill="url(#line)"/>
  <rect transform="translate(0 100)" width="700" height="28" fill="url(#line)"/>
  <rect transform="translate(0 130)" width="700" height="28" fill="url(#line)"/>

  <g transform="translate(10 164)">
    <text x="26" y="12" fill="#888888">Demo (0)</text>
    <rect transform="translate(117 -3)" rx="5" ry="5" width="22" height="22" fill="url(#pencil)" stroke-width="1" stroke-dasharray="1 4"/>
    <rect x="147" y="-3" rx="5" ry="5" width="60" height="22" stroke-width="1" stroke-dasharray="1 4"/>
    <text x="150" y="14" fill="#000000">Button1</text>
  </g>

  <g transform="translate(10 190)">
    <text x="26" y="12" fill="#888888">Jhon (1)</text>
    <rect transform="translate(117 -3)" rx="5" ry="5" width="22" height="22" fill="url(#pencil)" stroke-width="1" stroke-dasharray="1 4"/>
  </g>
  <rect transform="translate(0 214)" width="700" height="28" fill="url(#line)"/>
</g>
</svg>