<svg width="440" height="161" viewBox="0 0 440 161" fill="none" xmlns="http://www.w3.org/2000/svg">
<path d="M252 96L252.834 98.357L252 96ZM1.0741 142.41C0.195853 143.475 0.347559 145.051 1.41294 145.929L18.7744 160.241C19.8398 161.119 21.4154 160.968 22.2937 159.902C23.1719 158.837 23.0202 157.261 21.9548 156.383L6.52241 143.661L19.2441 128.229C20.1223 127.163 19.9706 125.588 18.9052 124.71C17.8398 123.831 16.2642 123.983 15.386 125.048L1.0741 142.41ZM438.501 3.00043C437.214 0.856735 437.214 0.856907 437.213 0.857329C437.213 0.857804 437.211 0.858476 437.21 0.859425C437.207 0.861322 437.202 0.864218 437.195 0.868106C437.182 0.875882 437.163 0.887628 437.137 0.903293C437.084 0.934622 437.006 0.981629 436.901 1.04391C436.693 1.16849 436.382 1.35417 435.972 1.59777C435.152 2.08498 433.939 2.80386 432.366 3.72888C429.222 5.57894 424.642 8.25343 418.905 11.5481C407.431 18.138 391.334 27.207 372.843 37.1221C335.829 56.9696 289.343 80.1433 251.167 93.6431L252.834 98.357C291.387 84.7238 338.152 61.3977 375.206 41.5286C393.749 31.5855 409.889 22.492 421.395 15.8839C427.148 12.5797 431.744 9.89639 434.902 8.03838C436.481 7.10937 437.701 6.38665 438.527 5.89576C438.939 5.65032 439.254 5.46283 439.465 5.3365C439.571 5.27333 439.651 5.22545 439.705 5.19325C439.732 5.17716 439.752 5.16498 439.766 5.15677C439.773 5.15267 439.778 5.14956 439.781 5.14745C439.783 5.1464 439.785 5.14556 439.785 5.14504C439.786 5.14446 439.787 5.14412 438.501 3.00043ZM251.167 93.6431C204.715 110.069 142.657 122.042 92.1056 129.911C66.8517 133.842 44.5099 136.742 28.4825 138.661C20.4693 139.62 14.0357 140.333 9.60723 140.806C7.393 141.042 5.68011 141.219 4.52175 141.336C3.94257 141.395 3.50203 141.439 3.20678 141.468C3.05915 141.483 2.94785 141.494 2.8737 141.501C2.83663 141.505 2.80884 141.507 2.79045 141.509C2.78125 141.51 2.77441 141.511 2.76992 141.511C2.76767 141.511 2.76608 141.511 2.76496 141.511C2.76396 141.512 2.76355 141.512 3.00315 144C3.24275 146.489 3.24353 146.488 3.2449 146.488C3.24615 146.488 3.24812 146.488 3.25061 146.488C3.25559 146.487 3.26294 146.487 3.27264 146.486C3.29203 146.484 3.32083 146.481 3.35892 146.477C3.43509 146.47 3.54844 146.459 3.69814 146.444C3.99753 146.414 4.4423 146.37 5.02581 146.311C6.19281 146.193 7.91478 146.015 10.1385 145.778C14.5858 145.302 21.0405 144.587 29.0767 143.625C45.1481 141.702 67.5498 138.793 92.8747 134.851C143.481 126.974 205.922 114.946 252.834 98.357L251.167 93.6431Z" fill="#FE0404"/>
</svg>
