<svg version="1.1" xmlns="http://www.w3.org/2000/svg" viewBox="0 0 727 255" width="727" height="255">
<defs>
  <pattern id="diagonalHatch" width="5" height="5" patternTransform="rotate(45 0 0)" patternUnits="userSpaceOnUse">
    <line x1="0" y1="0" x2="0" y2="5" stroke="#cccccc" stroke-width="1"/>
  </pattern>
</defs>
<g font-family="Arial" font-size="16px" direction="ltr" fill="none" stroke="#888888" stroke-width="1">
  <g transform="translate(0 20)">
    <rect x="10" y="0" rx="5" ry="5" width="94" height="25" stroke-dasharray="2 6"/>
    <rect x="109" y="0" rx="5" ry="5" width="588" height="25"/>
  </g>
  <g transform="translate(0 52)">
    <rect x="10" y="0" rx="5" ry="5" width="687" height="25" fill="url(#diagonalHatch)" stroke="#495057" stroke-dasharray="2 6"/>
    <text x="20" y="17" fill="#495057" stroke="none">Title 1</text>
  </g>
  <g transform="translate(0 84)">
    <rect x="10" y="0" rx="5" ry="5" width="94" height="25" stroke-dasharray="2 6"/>
    <rect x="109" y="0" rx="5" ry="5" width="588" height="25"/>
  </g>
  <g transform="translate(0 116)">
    <rect x="10" y="0" rx="5" ry="5" width="94" height="25" stroke-dasharray="2 6"/>
    <rect x="109" y="0" rx="5" ry="5" width="241" height="25"/>
    <rect x="357" y="0" rx="5" ry="5" width="94" height="25" stroke-dasharray="2 6"/>
    <rect x="456" y="0" rx="5" ry="5" width="241" height="25"/>
  </g>
  <g transform="translate(0 148)">
    <rect x="10" y="0" rx="5" ry="5" width="340" height="25" fill="url(#diagonalHatch)" stroke="#495057" stroke-dasharray="2 6"/>
    <text x="20" y="17" fill="#495057" stroke="none">Title 2</text>
    <rect x="357" y="0" rx="5" ry="5" width="94" height="25" stroke-dasharray="2 6"/>
    <rect x="456" y="0" rx="5" ry="5" width="241" height="25"/>
  </g>
  <g transform="translate(0 180)">
    <rect x="10" y="0" rx="5" ry="5" width="94" height="25" stroke-dasharray="2 6"/>
    <rect x="109" y="0" rx="5" ry="5" width="241" height="25"/>
  </g>
</g>

</svg>