<svg version="1.1" xmlns="http://www.w3.org/2000/svg" viewBox="0 0 660 255" width="660" height="255">
<defs>
  <pattern id="diagonalHatch" width="5" height="5" patternTransform="rotate(45 0 0)" patternUnits="userSpaceOnUse">
    <line x1="0" y1="0" x2="0" y2="5" stroke="#cccccc" stroke-width="1"/>
  </pattern>
  <pattern id="line" width="700" height="28" patternUnits="userSpaceOnUse">
    <g transform="translate(0 0)" fill="none" stroke="#495057" stroke-width="1">
      <rect x="18" y="7" width="10" height="10"/>
      <rect x="40" y="1" rx="5" ry="5" width="280" height="25" stroke-dasharray="1.2 6"/>
      <rect x="330" y="1" rx="5" ry="5" width="100" height="25" stroke-dasharray="1.2 6"/>
      <rect x="440" y="1" rx="5" ry="5" width="104" height="25" stroke-dasharray="1.2 6"/>
      <rect x="554" y="1" rx="5" ry="5" width="80" height="25" stroke-dasharray="1.2 6"/>
    </g>
  </pattern>
</defs>
<g font-family="Arial" font-size="16px" direction="ltr" fill="none" stroke="#495057" stroke-width="0">
  <rect x="10" y="10" width="636" height="240" stroke-width="1"/>
  <rect x="10" y="10" width="636" height="25" fill="url(#diagonalHatch)" stroke-width="1"/>
  <rect x="17" y="17" width="10" height="10" stroke-width="1"/>
  <text x="40" y="28" fill="#495057">My Custom Name</text>
  <text x="330" y="28" fill="#495057">Amount</text>
  <text x="440" y="28" fill="#495057">Currency</text>
  <text x="560" y="28" fill="#495057">Tax</text>

  <rect transform="translate(0 40)" width="700" height="28" fill="url(#line)"/>
  <rect transform="translate(0 70)" width="700" height="28" fill="url(#line)"/>
  <rect transform="translate(0 100)" width="700" height="28" fill="url(#line)"/>
  <rect transform="translate(0 130)" width="700" height="28" fill="url(#line)"/>
  <rect transform="translate(0 160)" width="700" height="28" fill="url(#line)"/>

  <rect x="10" y="225" width="636" height="25" fill="url(#diagonalHatch)" stroke-width="1"/>
  <text x="335" y="243" fill="#495057">123.45 €</text>
</g>
</svg>