<svg width="408" height="146" viewBox="0 0 408 146" fill="none" xmlns="http://www.w3.org/2000/svg">
<rect x="7.4931" y="8.40134" width="13" height="3" rx="1.5" transform="rotate(-38.7743 7.4931 8.40134)" fill="#A67B9A"/>
<rect x="29.1213" y="86.0001" width="13" height="3" rx="1.5" transform="rotate(45 29.1213 86.0001)" fill="#A67B9A"/>
<rect x="100" y="117" width="13" height="3" rx="1.5" transform="rotate(90 100 117)" fill="#A67B9A"/>
<rect x="105" y="125" width="13" height="3" rx="1.5" transform="rotate(-180 105 125)" fill="#A67B9A"/>
<rect x="123" y="0.00012207" width="13" height="3" rx="1.5" transform="rotate(90 123 0.00012207)" fill="#A67B9A"/>
<rect x="128" y="8.00012" width="13" height="3" rx="1.5" transform="rotate(-180 128 8.00012)" fill="#A67B9A"/>
<rect x="403" y="118" width="13" height="3" rx="1.5" transform="rotate(90 403 118)" fill="#A67B9A"/>
<rect x="408" y="126" width="13" height="3" rx="1.5" transform="rotate(-180 408 126)" fill="#A67B9A"/>
<rect x="386.314" y="58.1214" width="13" height="3" rx="1.5" transform="rotate(135 386.314 58.1214)" fill="#A67B9A"/>
<circle cx="65" cy="45.0001" r="5" fill="#A67B9A"/>
<circle cx="313" cy="21.0001" r="5" fill="#A67B9A"/>
<circle cx="5" cy="141" r="4" stroke="#A67B9A" stroke-width="2"/>
<circle cx="337" cy="97.0001" r="4" stroke="#A67B9A" stroke-width="2"/>
<circle cx="396" cy="10.0001" r="4" stroke="#A67B9A" stroke-width="2"/>
</svg>
