<svg xmlns="http://www.w3.org/2000/svg" viewBox="0 0 580.7 396.76"><path d="M577.29,67.17H368.61s-11.31-14.32,0-24c6.25-5.32,13.62-4.77,19-3.2a6.25,6.25,0,0,0,7.63-4.44c0-.15.08-.3.11-.45,1.27-5.89,5.18-13.59,16.41-18.14,11.05-4.48,18,2.36,22.08,9.38a3.14,3.14,0,0,0,4.3,1.12,3.1,3.1,0,0,0,1.38-1.7C443,14.71,455.21,0,495.33,0c51,0,45.35,27.13,40.79,38.4a2.59,2.59,0,0,0,1.39,3.4,2.5,2.5,0,0,0,1.55.14c7.87-1.68,22.48-3.86,29,1.28C577.29,50.44,577.29,67.17,577.29,67.17Z" style="fill:none"/><polygon points="260.43 20.38 260.42 20.37 260.43 20.38 260.43 20.38" style="fill:#fff"/><path d="M281.11,52.29c-3.79-11.75-10.24-22.93-20.68-31.91L258.6,52.29Z" style="fill:#fff"/><path d="M236.43,52.29h20.48l1.83-32.11c-26.08,14.78-39.53,33-45.67,51.06l23.36,22.83Z" style="fill:#fff"/><path d="M236.43,96.43,212.49,73c-6.77,21.6-3.36,42.81,1.07,57.53,8,2.49,15.64,6.6,22.87,10Z" style="fill:#fff"/><path d="M236.43,132.8V72.11c-1.67-2.19-3.42-4.37-5.27-6.52L215.53,96.33Z" style="fill:#fff;opacity:0.6069999933242798;isolation:isolate"/><path d="M178,34.2a72,72,0,0,0-12.35,26.23l31,6.34Z" style="fill:#fff;opacity:0.6069999933242798;isolation:isolate"/><path d="M231.16,65.59c-.38-.46-.77-.91-1.17-1.36.4.45.78.91,1.17,1.36Z" style="fill:#fff;opacity:0.6069999933242798;isolation:isolate"/><path d="M230,64.21c-12.72-14.44-29.51-27.29-50.3-30.43l34.85,60.8Z" style="fill:#fff;opacity:0.6069999933242798;isolation:isolate"/><path d="M165.27,62.09h0c0-.17.07-.33.1-.5Z" style="fill:#fff;opacity:0.6069999933242798;isolation:isolate"/><path d="M236.43,140.8v-4.6L230,124.89l-54.87-9.39c1.63,3,3.31,5.72,4.94,8.19A105.05,105.05,0,0,1,236.43,140.8Z" style="fill:#fff;opacity:0.6069999933242798;isolation:isolate"/><path d="M197.75,68.72l-32.48-6.63c-4,19.67,1.71,37.88,8.81,51.52L228.86,123Z" style="fill:#fff;opacity:0.6069999933242798;isolation:isolate"/><path d="M383.64,52.29H236.43v339h238l.49-300.86C474.92,81,425.64,52.29,383.64,52.29Z" style="fill:none;stroke:#fff;stroke-width:2px"/><path d="M152.52,133.42c2.55,44,31.92,65.85,60.61,76.74,7.74,2.94,22.53.51,22.53.51V140.93C221.18,132.73,181,113.44,152.52,133.42Z" style="fill:none;stroke:#fff;stroke-width:2px"/><path d="M201.31,159.8l-9.93-34.55c-.6-.08-1.21-.14-1.82-.21l9.65,33.58-45.9-25.73-.79.53h0c0,.34,0,.68.07,1l75.76,42.46-43.8,17.79c.53.4,1.06.8,1.59,1.18L230.24,178l4.86,2.73v-1.94Z" style="fill:#fff"/><path d="M502.06,219.52l1.13-1.3Z" style="fill:#fff;opacity:0.4580000042915344;isolation:isolate"/><path d="M502.06,219.53c-2.13,2.48-4.14,5-6,7.52v61l21.66-37.79Z" style="fill:#fff;opacity:0.4580000042915344;isolation:isolate"/><path d="M554.81,187.53c-21.37,2.8-38.58,15.89-51.56,30.62l15.45,30.37,34.85-60.8c.42-.07.84-.14,1.26-.19l.44.61-18.66,32.57,31-6.34c.07.3.13.59.19.88l.16.78-32.48,6.63-31.11,54.27,54.79-9.38c-.34.64-.67,1.27-1,1.89l-54.87,9.39L496,291.47v19.67l46.07-19.31S593.66,239.66,554.81,187.53Z" style="fill:#fff;opacity:0.4580000042915344;isolation:isolate"/><path d="M541.89,279.19l1.71-.2Z" style="fill:#fff"/><path d="M579.91,286.84c-11.09-7.47-23.9-9.11-36.25-7.85L534,312.56Z" style="fill:#fff"/><path d="M504.87,330.84l43.8,17.78c16.86-12.81,30-31.88,32-60.24Z" style="fill:#fff"/><path d="M503,331.89l-7,3.9v35.27c15.88-3.34,35-9.58,51-21.26Z" style="fill:#fff"/><path d="M541.84,279.19c-19.77,2.47-38.05,12-45.81,16.57v38.09l35.88-20.11Z" style="fill:#fff"/><rect x="485.16" y="61.3" width="10.61" height="330" style="fill:none;stroke:#fff;stroke-width:2px"/><path d="M417,57.3c31,8.64,57.95,26.13,57.95,33.13l-.49,300.86h10.73V57.3Z" style="fill:none;stroke:#fff;stroke-width:2px"/><path d="M236.43,331.13c-65.89-.3-172.24,2-172.24,2-10.82,0-20.74,12.09-20.74,22.9s9.92,22.9,20.74,22.9c0,0,106.11,4.46,172.24,3.87Z" style="fill:none;stroke:#fff"/><path d="M383.64,52.29H236.43v339h238l.49-300.86C474.92,81,425.64,52.29,383.64,52.29Z" style="fill:none;stroke:#fff;stroke-width:2px"/><path d="M214.34,330.46S201,299.27,213,268.09H116.25c-11.67,26.73-1.64,62.37-1.64,62.37H87.16s-13.31-31.19-1.33-62.37H68.32a14.74,14.74,0,0,0-14.74,14.74v32.89a14.74,14.74,0,0,0,14.74,14.74" style="fill:#fff;opacity:0.41"/><path d="M51.86,338.38H236.43V337.3H53.15a18.07,18.07,0,0,1,11-4.19s106.32-2.27,172.21-2v-2.52h-171a27.4,27.4,0,0,0,0,54.8s105.14,2.42,171,2.14v-2.78c-66.13.59-172.21-3.87-172.21-3.87a16.38,16.38,0,0,1-7.28-1.8H236.43V376H55a25.6,25.6,0,0,1-8-8.38H236.43v-1.08H46.33a24.16,24.16,0,0,1-2.49-6.75H236.43v-1.09H43.65a19.26,19.26,0,0,1-.2-2.72c0-.35,0-.7,0-1.06h193v-1.08H43.57a23.64,23.64,0,0,1,2.88-8.65h190v-1.08H47.08A26.85,26.85,0,0,1,51.86,338.38Z" style="fill:#fff"/><path d="M197.35,191.31l2.23,5.51-3.67,9.32L192,193.38Z" style="fill:#f7a57a"/><path d="M140.17,177.84l-3.24,7.23-3.12,18.73h3.12c8-8.81,8-25,8-25Z" style="fill:#0f787a"/><path d="M166.7,209.93H132.23a3.62,3.62,0,0,1-3.61-3.62,3.4,3.4,0,0,1,0-.45l3.71-29h4.9s1,8.2,1.12,12.79c.44,5-2.46,12.63-2.46,12.63S152.76,192,160,192.65c5.69.73,7.07-.33,7.07-.33Z" style="fill:#53b6b9"/><path d="M189,184.18s4.9-.67,8.36,7.13a12.89,12.89,0,0,1-3.51,2.9s.36,5.65-1.61,6.92-14.16,8.8-14.16,8.8H166.7V194.77l15.94-11.07Z" style="fill:#0f787a"/><path d="M184.76,179.65c-.73,0,.28,4.7.28,4.7s.05,7,2.5,7c2.79,0,2.79-7.17,2.79-7.17v-1.91S185.49,179.65,184.76,179.65Z" style="fill:#f18c72"/><path d="M189.79,183.64a2.78,2.78,0,0,0,1.71-.13C194,180.75,194,172,194,172h-8l-1.23,5.58a4.77,4.77,0,0,0,1.08,4.19h0A7.61,7.61,0,0,0,189.79,183.64Z" style="fill:#f7a57a"/><path d="M164.83,182.93c6.42-3.47,10.5-1.72,12.63-2.68,3.51-1.59,5.43-12.46,11.66-11.87s6.23,4.76,6.23,4.76,1.38,3.57-7.21,2.75c-1.38-.13-3.12.6-3.15,2-.09,3.47,0,6.48,0,6.48s-6.41,2-8.84,4.26-6.85,13.8-14,13.8C155.55,201.82,154.46,188.53,164.83,182.93Z" style="fill:#122043"/><path d="M172.61,195.88l6.47,3.79L176.2,205c-.71.93-.06,1.6,1.1,1.62l16,.38v2.9H168.4C165.47,209.93,172.61,195.88,172.61,195.88Z" style="fill:#f7a57a"/><path d="M219.09,194.77h-22.4l-7.37,15.16h22.42Z" style="fill:#122043"/><rect x="182.97" y="208.59" width="28.76" height="1.34" style="fill:#122043"/><circle cx="206.07" cy="200.3" r="0.9" style="fill:#eaeaea"/><path d="M133,176.82l.83-4.43.67-.14a3.55,3.55,0,0,1,1.3,0l.88.16v4.43Z" style="fill:#f7a57a"/><path d="M133.81,172.39l-3.79-5c-.61-.8-1.13-1.87-.45-2.82a10.11,10.11,0,0,1,1-1.16c.48-.1,7.2,7.29,7.2,7.29v.06A1.74,1.74,0,0,1,136,172.5h-.16Z" style="fill:#f99200"/><path d="M130.58,163.39l7.2,7.29.31-.44-7.19-7.19Z" style="fill:#fff"/><rect x="132.63" y="170.28" width="1.3" height="0.67" transform="translate(-74.18 108.72) rotate(-35.39)" style="fill:#fff"/><rect x="131.63" y="168.94" width="1.37" height="0.67" transform="translate(-73.27 106.85) rotate(-35.1)" style="fill:#fff"/><path d="M143.1,174.42l-2-6c-.33-.95-.49-2.12.46-2.81a8.8,8.8,0,0,1,1.32-.78c.5,0,4.54,9.18,4.54,9.18l0,.06a1.75,1.75,0,0,1-2.21,1.12l-.15-.05Z" style="fill:#f99200"/><path d="M142.87,164.86l4.54,9.18.44-.31-4.55-9.1Z" style="fill:#fff"/><rect x="142.51" y="172.23" width="1.3" height="0.67" transform="translate(-44.16 49.35) rotate(-16.98)" style="fill:#fff"/><rect x="141.98" y="170.65" width="1.37" height="0.67" transform="translate(-43.13 48.22) rotate(-16.7)" style="fill:#fff"/><path d="M141.08,178l2-3.66,2.72.93-1.26,3.44Z" style="fill:#f7a57a"/><path d="M384,51.94c25.42,0,76.58,15.08,90.7,37.75-18.65-8.07-35.49,4.75-35.49,4.75S416,59.11,384,51.94Z" style="fill:#fff;stroke:#fff;stroke-linecap:round;stroke-linejoin:round"/><path d="M552.26,97.77l3.65,7.17-7.66-1.75-26.18-8.25Z" style="fill:none;stroke:#fff;stroke-linejoin:round"/><path d="M555.9,104.94l-8.34.29.75-2Z" style="fill:none;stroke:#fff;stroke-linejoin:round"/><path d="M552.26,97.77l2.28-7-32.47,4.16Z" style="fill:none;stroke:#fff;stroke-linejoin:round"/><path d="M522.07,94.94l26.18,8.25-3.9,10.07Z" style="fill:none;stroke:#fff;stroke-linejoin:round"/><path d="M553,112.15a.67.67,0,0,0,.19-.14.61.61,0,0,0-.06-.86h0a18,18,0,0,0-2.57-1.85.62.62,0,0,0-.84.22.6.6,0,0,0,.22.83h0a16.68,16.68,0,0,1,2.39,1.73A.61.61,0,0,0,553,112.15Z" style="fill:#fff"/><path d="M543.52,179a.61.61,0,0,1,.21-.84,17.24,17.24,0,0,0,4.49-3.89.61.61,0,1,1,.94.78h0a18.37,18.37,0,0,1-4.8,4.16l0,0A.61.61,0,0,1,543.52,179Z" style="fill:#fff;opacity:0.4"/><path d="M550.49,172.14a.61.61,0,0,1-.23-.84,21.77,21.77,0,0,0,2.22-5.56.61.61,0,0,1,1.18.29,22.65,22.65,0,0,1-2.34,5.88.64.64,0,0,1-.25.24A.63.63,0,0,1,550.49,172.14Z" style="fill:#fff;opacity:0.5"/><path d="M553.6,162.84a.61.61,0,0,1-.56-.66v-.27a27.67,27.67,0,0,0-.3-5.75.62.62,0,0,1,.52-.7.61.61,0,0,1,.69.52,28.66,28.66,0,0,1,.31,6v.29a.62.62,0,0,1-.66.57Z" style="fill:#fff;opacity:0.6"/><path d="M552.75,153a.61.61,0,0,1-.74-.44h0a45.58,45.58,0,0,0-2-5.76.61.61,0,0,1,1.13-.47,47,47,0,0,1,2,5.92.61.61,0,0,1-.32.7l-.12,0Z" style="fill:#fff;opacity:0.8"/><path d="M549.31,143.78a.6.6,0,0,1-.81-.27h0c-.08-.15-.16-.3-.23-.46a17.68,17.68,0,0,1-2,.66.61.61,0,0,1-.75-.44.62.62,0,0,1,.42-.74,17.87,17.87,0,0,0,1.75-.57c-.64-1.22-1.34-2.48-2.13-3.84a.61.61,0,1,1,1.06-.62c.82,1.41,1.54,2.72,2.2,4a18.19,18.19,0,0,0,2.55-1.42.6.6,0,0,1,.84.17.61.61,0,0,1-.16.85,20,20,0,0,1-2.67,1.49c.06.14.13.27.2.4a.63.63,0,0,1-.28.82Z" style="fill:#fff"/><path d="M554.15,138.64a.63.63,0,0,1,0-.87h0a15.23,15.23,0,0,0,3.24-4.94.61.61,0,0,1,1.13.47,16.66,16.66,0,0,1-1.09,2.2,17.4,17.4,0,0,1-2.41,3.13.48.48,0,0,1-.16.12.59.59,0,0,1-.7-.12Z" style="fill:#fff"/><path d="M542.53,144.38a19.28,19.28,0,0,1-6.33-.49.61.61,0,1,1,.26-1.2h0a17.94,17.94,0,0,0,5.93.46.61.61,0,0,1,.66.56.62.62,0,0,1-.33.6.86.86,0,0,1-.23.06Z" style="fill:#fff"/><path d="M558.86,130.11a.61.61,0,0,1-.5-.7h0a18.62,18.62,0,0,0,.06-6,.61.61,0,0,1,1.21-.18,19.89,19.89,0,0,1-.06,6.35.62.62,0,0,1-.71.5h0Z" style="fill:#fff"/><path d="M532.61,142.53a15.64,15.64,0,0,1-1.43-.83,13.09,13.09,0,0,1-3.46-3.3.61.61,0,0,1,.17-.85.62.62,0,0,1,.82.14,11.88,11.88,0,0,0,3.13,3c.43.28.87.53,1.33.77a.62.62,0,0,1,.24.83.63.63,0,0,1-.8.26Z" style="fill:#fff"/><path d="M543.68,135a22.37,22.37,0,0,0-3.78-4.66.62.62,0,0,1-.07-.87.61.61,0,0,1,.86-.07l0,0a24.11,24.11,0,0,1,4,4.9.61.61,0,0,1-.19.85h0l0,0a.61.61,0,0,1-.79-.21Z" style="fill:#fff"/><path d="M558.35,120.34a.61.61,0,0,1-.78-.38,19.06,19.06,0,0,0-1.06-2.51,18.21,18.21,0,0,0-1.72-2.76.62.62,0,0,1,.12-.86.61.61,0,0,1,.86.12,19.78,19.78,0,0,1,1.83,2.94,20.15,20.15,0,0,1,1.13,2.67.6.6,0,0,1-.3.74l-.08,0Z" style="fill:#fff"/><path d="M526.77,135.31a.61.61,0,0,1-.74-.44,6.77,6.77,0,0,1,.5-4.88,6.15,6.15,0,0,1,1-1.44.61.61,0,1,1,.9.83l0,0a5,5,0,0,0-.84,1.16,5.52,5.52,0,0,0-.4,4,.6.6,0,0,1-.32.69l-.12.05Z" style="fill:#fff"/><path d="M537,128.33a8.72,8.72,0,0,0-5.63-.54.61.61,0,1,1-.34-1.17h0a9.81,9.81,0,0,1,6.45.61.62.62,0,0,1,.3.81.71.71,0,0,1-.28.29.64.64,0,0,1-.54,0Z" style="fill:#fff"/><path d="M540.87,180.73a.63.63,0,0,0,.27-.83.61.61,0,0,0-.71-.31,13.46,13.46,0,0,1-2.88.49.6.6,0,0,0-.58.64.62.62,0,0,0,.65.58,14.52,14.52,0,0,0,3.14-.53Z" style="fill:#fff;opacity:0.2"/><path d="M148.41,148.24l-21.17-11.69-10.81-2.16-8.17,1.2Z" style="fill:none;stroke:#fff;stroke-linecap:round;stroke-linejoin:round"/><path d="M148.41,148.24l-39.64-10.78-.5-1.87,40,12.65" style="fill:none;stroke:#fff;stroke-linecap:round;stroke-linejoin:round"/><polygon points="147.11 148.14 111.63 147.09 107.73 145.12 109.35 151.09 148.31 148.24 147.11 148.14" style="fill:none;stroke:#fff;stroke-linecap:round;stroke-linejoin:round"/><path d="M100.06,141.24l5.66-4.59,42.43,11.52-36.53-1.08Z" style="fill:none;stroke:#fff;stroke-linecap:round;stroke-linejoin:round"/><path d="M10.89,219.79a30.69,30.69,0,0,0,3.81-1.66.57.57,0,0,1,.78.25.56.56,0,0,1-.25.77,29.61,29.61,0,0,1-4,1.72l-1.47.48a.57.57,0,1,1-.38-1.08l.05,0C10,220.11,10.42,220,10.89,219.79Z" style="fill:#fff;opacity:0.2"/><path d="M88.48,137c1.8.23,3.67.52,5.72.9A.57.57,0,0,1,94,139c-2-.37-3.88-.67-5.66-.9a.57.57,0,1,1,.15-1.14Z" style="fill:#fff"/><path d="M78.87,137.39a.59.59,0,0,1-.12-.81.56.56,0,0,1,.46-.23c1.85,0,3.8.06,5.81.22a.58.58,0,0,1,.52.63.57.57,0,0,1-.62.52c-2-.16-3.89-.24-5.7-.22A.61.61,0,0,1,78.87,137.39Z" style="fill:#fff"/><path d="M22,212.84a.58.58,0,0,1,.81,0h0a.58.58,0,0,1,0,.81h0a32.33,32.33,0,0,1-4.55,3.69.57.57,0,0,1-.66,0,.47.47,0,0,1-.14-.14.57.57,0,0,1,.16-.8h0A30.56,30.56,0,0,0,22,212.84Z" style="fill:#fff;opacity:0.3"/><path d="M24.38,211.16a.56.56,0,0,1-.08-.81h0c.32-.4.64-.81.95-1.22a31.21,31.21,0,0,0,2.21-3.46.57.57,0,0,1,.78-.23.58.58,0,0,1,.23.78,30.9,30.9,0,0,1-2.3,3.6q-.48.63-1,1.26a.58.58,0,0,1-.78.1Z" style="fill:#fff;opacity:0.4"/><path d="M29.23,203.36a.57.57,0,0,1-.32-.75h0a38.21,38.21,0,0,0,1.75-5.4.59.59,0,0,1,.71-.4.57.57,0,0,1,.41.69A41.17,41.17,0,0,1,30,203a.57.57,0,0,1-.75.32Z" style="fill:#fff;opacity:0.5"/><path d="M44.5,154.21c-.48.59-1,1.18-1.4,1.79-.68.92-1.33,1.87-1.93,2.82a.57.57,0,0,1-.79.19h0l0,0a.58.58,0,0,1-.14-.77c.61-1,1.28-2,2-2.9.46-.62.93-1.23,1.43-1.83a.54.54,0,0,1,.76-.12l.05,0a.58.58,0,0,1,.08.81Z" style="fill:#fff"/><path d="M39.48,161.78a43,43,0,0,0-2.29,5.2.56.56,0,0,1-.73.35h0a.53.53,0,0,1-.15-.08.56.56,0,0,1-.2-.66,43.63,43.63,0,0,1,2.34-5.34.59.59,0,0,1,.78-.26.58.58,0,0,1,.26.77v0Z" style="fill:#fff;opacity:0.9"/><path d="M50.93,147.79a47.75,47.75,0,0,0-4.17,3.87.58.58,0,0,1-.76.07l-.06,0a.58.58,0,0,1,0-.82,47.1,47.1,0,0,1,4.27-4,.58.58,0,0,1,.73.89Z" style="fill:#fff"/><path d="M61.55,141.24a.58.58,0,0,1-.76-.3.56.56,0,0,1,.29-.75h0a46.54,46.54,0,0,1,5.47-2,.58.58,0,0,1,.43,1.07l-.1,0A43.63,43.63,0,0,0,61.55,141.24Z" style="fill:#fff"/><path d="M33.17,185.42a.57.57,0,0,1-.51-.63h0l.08-.72c.19-1.67.38-3.34.6-5a.59.59,0,0,1,.65-.49.58.58,0,0,1,.5.65c-.22,1.65-.41,3.32-.6,5l-.09.73A.57.57,0,0,1,33.17,185.42Z" style="fill:#fff;opacity:0.7"/><path d="M53.64,145.72a.56.56,0,0,1-.67,0,.53.53,0,0,1-.13-.13.58.58,0,0,1,.14-.8,47.52,47.52,0,0,1,5-3.06.57.57,0,0,1,.78.22.56.56,0,0,1-.21.78l0,0A46.22,46.22,0,0,0,53.64,145.72Z" style="fill:#fff"/><path d="M32.9,187.71a.58.58,0,0,1,.5.64h0c-.28,2.24-.56,4.06-.88,5.73a.58.58,0,0,1-.67.46.59.59,0,0,1-.46-.68c.31-1.64.59-3.44.87-5.66A.57.57,0,0,1,32.9,187.71Z" style="fill:#fff;opacity:0.6"/><path d="M6.17,221.06a.58.58,0,0,1,.22,1.13,46.7,46.7,0,0,1-5.77.75.59.59,0,0,1-.61-.55.57.57,0,0,1,.52-.6A46.27,46.27,0,0,0,6.17,221.06Z" style="fill:#fff;opacity:0.1"/><path d="M35.77,169.53a.57.57,0,0,1,.41.7c-.46,1.7-.84,3.52-1.19,5.58a.58.58,0,0,1-.66.47.56.56,0,0,1-.47-.66,58,58,0,0,1,1.21-5.69.56.56,0,0,1,.7-.4Z" style="fill:#fff;opacity:0.8"/><path d="M73.7,136.69c.67-.08,1.35-.15,2-.2a.58.58,0,0,1,.62.53.57.57,0,0,1-.53.62c-.66.05-1.32.11-2,.19-1.22.15-2.45.35-3.66.6a.57.57,0,0,1-.58-.9.53.53,0,0,1,.35-.22C71.19,137.05,72.45,136.84,73.7,136.69Z" style="fill:#fff"/><rect x="269.65" y="191.33" width="168.83" height="3" style="fill:#fff"/><rect x="269.65" y="211.28" width="168.83" height="3" style="fill:#fff"/><rect x="269.65" y="231.22" width="168.83" height="3" style="fill:#fff"/><rect x="269.65" y="251.16" width="168.83" height="3" style="fill:#fff"/><rect x="269.65" y="269.86" width="168.83" height="3" style="fill:#fff"/><rect x="269.65" y="289.8" width="168.83" height="3" style="fill:#fff"/><rect x="269.65" y="309.75" width="168.83" height="3" style="fill:#fff"/><rect x="269.65" y="329.69" width="168.83" height="3" style="fill:#fff"/><path d="M490.9,270.75,498.26,290l4.64-3.45-10.37-17.48Z" style="fill:#f18c72"/><path d="M491.81,264.93a3,3,0,0,1,.67,2l.32,2.78-.38.43-1.3,1.15c.05-.57.12,0,.12,0l-2.1-3.64s-2.53-1.63.66-4a.92.92,0,0,1,1.05-.07A2.37,2.37,0,0,1,491.81,264.93Z" style="fill:#f18c72"/><path d="M507.15,303.88a120.39,120.39,0,0,1-8.89-13.9l4-4.54,4.9,5.71Z" style="fill:#005558"/><path d="M518.65,387.26l-2.34.41c-.49-2.91-7.78-16.7-8.37-23.86a161.67,161.67,0,0,0-2.51-16.8l7.84-2.33s2,0-.2,16.2C518,367.32,519.3,381.93,518.65,387.26Z" style="fill:#f18c72"/><path d="M512.88,338.79s-1.85,11.08-4.41,22.93c2.68,7.16-1.4,27.13-1.47,27.06-.31-.29-1.72,1.45-1.72,1.45s-3-17.63-3.63-25.58-.82-17.64-.82-17.64Z" style="fill:#f7a57a"/><path d="M507.33,387.67a2.63,2.63,0,0,1,.91,2.15c-.2,1.21-.5,4-.5,4H506.6l0-2.63c0-.17-2.46,2.63-2.88,2.63h-6.07s-.4-1.78,3.16-2.35S507.33,387.67,507.33,387.67Z" style="fill:#002f4c"/><path d="M516,385.66l.16,2.51a2.32,2.32,0,0,1-.42,1.49,9.11,9.11,0,0,1-1.82,1.9c1.76.57,3.36-1.41,4.2-2.72a3.14,3.14,0,0,0,.46-2.15l-.3-2Z" style="fill:#f18c72"/><path d="M518.65,387s1.55.14,1.81,1.32,1,3.56,1,3.56l-.85.67-1.19-2.36a35.49,35.49,0,0,1-3,3.62h-6.63s0-2.19,4.15-2.29C517.78,391.47,518.65,387,518.65,387Z" style="fill:#122043"/><path d="M505.43,293.77h4.75l-1.9-5.58-3.71,2.28Z" style="fill:#f18c72"/><rect x="474.35" y="220.78" width="6.81" height="37.62" transform="translate(-54.38 189.73) rotate(-21.28)" style="fill:#fff"/><path d="M486.55,256.35l.18-.07s-11.61-33-13.66-35-6.15-3.18-2.2.85S486.55,256.35,486.55,256.35Z" style="fill:#fff;opacity:0.33000001311302185;isolation:isolate"/><path d="M470.69,142.84c-8,0-16.12-.22-24.1.75-1.29.15-6.73.34-3.11.3l-2.74.92c-2.93,2.16-5.41,4.74-8.56,6.65a36.33,36.33,0,0,1-9.09,3.94,43.73,43.73,0,0,0,38.31,72.07,21.38,21.38,0,0,1,4.66-2.27,11.77,11.77,0,0,1,1.71-.74,56.81,56.81,0,0,1,6.84-3.55,24,24,0,0,1,7.61-1.77,43.71,43.71,0,0,0-11.53-76.3Z" style="fill:#fff;opacity:0.4580000042915344;isolation:isolate"/><g style="opacity:0.4580000042915344;isolation:isolate"><path d="M453.71,224.73a24.17,24.17,0,0,1,9.6-2.69h.14c.85,0,1.7-.06,2.56-.13l-28.4-72.33a40.36,40.36,0,0,0-17.62,20,40.12,40.12,0,0,0,13.73,47.58,41.06,41.06,0,0,0,20,7.58" style="fill:#fff"/></g><path d="M440.27,143.31a43.72,43.72,0,1,0,56.6,24.9,43.72,43.72,0,0,0-56.6-24.9Zm29.93,76.93A38.82,38.82,0,1,1,492.3,170h0A38.82,38.82,0,0,1,470.2,220.24Z" style="fill:#fff"/><path d="M500.74,291.32l-14.95-44.68a2.1,2.1,0,0,0-2.68-1.29h0l-5.38,2.09a2.12,2.12,0,0,0-1.1,2.76l12,30.8C490.41,278.21,497,292.17,500.74,291.32Z" style="fill:#122043"/><path d="M505.8,295.73l-20-49.09a2.12,2.12,0,0,0-2.46-1.36c.14,1,12.78,38.14,18,54.32C502.5,299,504.39,296,505.8,295.73Z" style="fill:#012f4c"/><path d="M454.54,158.41a5.63,5.63,0,1,0,3.21-7.3,5.63,5.63,0,0,0-3.21,7.3Z" style="fill:#fff"/><path d="M465.6,165a2.68,2.68,0,1,0,1.53-3.47A2.68,2.68,0,0,0,465.6,165Z" style="fill:#fff"/><path d="M499.13,299.77c0-.14.06-.26.08-.39-4.7-6.06-8.68-10.33-8.68-10.33l4-4.54,9.08,8.62h2.66A5.34,5.34,0,0,1,513,294c1.15,1.19,1.91,4.4,1.14,7.79-2.11,9.36-.46,14.31-.46,14.31l-12.24,4.56s-.28-8.13-.47-13.84v0a6.28,6.28,0,0,0-1-3.12A5.57,5.57,0,0,1,499.13,299.77Z" style="fill:#53b6b9"/><path d="M483.16,269.82l7.37,19.23,4.64-3.45L484.8,268.12Z" style="fill:#f7a57a"/><path d="M484.08,264a3,3,0,0,1,.66,2l.33,2.78-.38.43-1.3,1.15c0-.57.11,0,.11,0l-2.09-3.64s-2.54-1.63.66-4a.92.92,0,0,1,1.05-.07A2.37,2.37,0,0,1,484.08,264Z" style="fill:#f7a57a"/><path d="M501.19,315.82s-1.63,8.29-1.63,13.22c0,2.72.67,19.79.67,19.79s11.63.85,13.89.85c.56-14,3.75-14.43,3.75-21,0-2.83-1.46-6-2.57-8.08a11.9,11.9,0,0,1-1.62-4.54l-.07-.27Z" style="fill:#002f4c"/><path d="M503.77,278.17l7.78,2.72-.77,5.81a2.21,2.21,0,0,1,0,.25l-.45.09-.07,0h-.07a5.33,5.33,0,0,0-3.64,3.64,9,9,0,0,1-3.36,0,3.36,3.36,0,0,1-1.77-.76C499.72,286.32,503.77,278.17,503.77,278.17Z" style="fill:#f7a57a"/><path d="M503.94,283.11c2.1,1,1.6,11.82,2,19.17A8.35,8.35,0,0,0,513,310.1c2.77.44,5.82.52,7.66-.52-1.22-1-7.76-10.63-5.67-23.38.28-1.68.31-6.35-2.52-8.89-3.14-2.82-9.61.86-9.61.86S501.07,281.71,503.94,283.11Z" style="fill:#122043"/><path d="M225.25,304.69l12,17-4.12,1.4-11.39-8.27.52-5.75Z" style="fill:#f7a57a"/><path d="M222.71,296.59c5.4,3.88,1.2,37.18,1.2,37.18l-21.6-4.2S204,295.79,222.71,296.59Z" style="fill:#fff"/><path d="M219.88,296.69,222,293.6l3.73,1.94-1.27,4.15-.11.05A11.81,11.81,0,0,0,219.88,296.69Z" style="fill:#f18c72"/><path d="M222.41,286.15l-1,5.73A.9.9,0,0,1,222,293a.51.51,0,0,1-.07.17,1.09,1.09,0,0,1,0,.44,6.64,6.64,0,0,0,4.77,2.36c3.74.16,3.21-7.28,3.21-7.28Z" style="fill:#f7a57a"/><path d="M219.61,290a3.54,3.54,0,0,0-.54-1.79c-1.62-2.23.5-3.08,1.24-3.35s1-1.61,2.07-2.12c1.67-.77,2.76.69,3.7.74s1.79-1,2.95-.08.77,1.93,1.09,2.47,1.37-.49,2.33,1.18c1.46,2.54-2.57,2.54-2.57,2.54a7.12,7.12,0,0,1-4.8-1.36,1,1,0,0,0-1.13,0c-.87.75-2,5.48-2,5.48l-.75-1A2.63,2.63,0,0,1,219.61,290Z" style="fill:#122043"/><path d="M221.66,291a.89.89,0,1,0,.74-1,.89.89,0,0,0-.74,1Z" style="fill:#f7a57a"/><path d="M183.1,368.55a14.73,14.73,0,0,0-2.8,6.07c-.23.93.08,1.93-1.45,1.93v-5.12l.74-4.26h-.74v-2.3s3.76-.64,4.25.7Z" style="fill:#122043"/><path d="M185.8,368.09l-2.7.46h0a2.6,2.6,0,0,1-.09-2.82l.09-.16,2.7-.67Z" style="fill:#f7a57a"/><path d="M218.32,388.56s0,2.87,5.79,4.6c1.18.35.8.7,1,1.2h-6.65l-2.6-2.93-.81.7-1.87-1.84s.87-2.67,2.3-2.69Z" style="fill:#122043"/><path d="M219.4,386.07l-1.08,2.49h0a2.6,2.6,0,0,1-2.7-.82l-.12-.14.87-2.56Z" style="fill:#f7a57a"/><path d="M202.77,337a48.87,48.87,0,0,0,3.51,16,3.91,3.91,0,0,1-2,5.17,4.4,4.4,0,0,1-.8.26c-11.77,2.46-18.42,6.42-18.42,6.42v4.06l27.47-3.76a9.66,9.66,0,0,0,8.3-8.58l.88-8.5Z" style="fill:#122043"/><path d="M222.55,335.79s9.5,17.81,9.5,23.33-12.78,27.07-12.78,27.07h-3.66a177.86,177.86,0,0,1,3.12-25,6.45,6.45,0,0,0-1.86-6.1c-7.77-7.28-14.66-19.33-14.66-19.33Z" style="fill:#002f4c"/><path d="M278.28,315.15c.69,2-.37,1.72-2.41,4.92L172.09,355.52a3.87,3.87,0,0,1-4.92-2.41l-2.26-6.6a3.87,3.87,0,0,1,2.42-4.92h0l103.78-35.46c2-.69,2,2.49,2.69,4.51Z" style="fill:#ffc630"/><path d="M166.17,350.17l1,2.94a3.87,3.87,0,0,0,4.92,2.41l103.78-35.45c2-.69,1.41-7.86,1.41-7.86Z" style="fill:#fda630"/><path d="M181.84,348.1l-2.26-6.6a3.87,3.87,0,0,0-4.92-2.42h0l-7.33,2.51a3.87,3.87,0,0,0-2.42,4.92h0l1.26,3.67h0l1,2.93a3.86,3.86,0,0,0,4.92,2.41l7.33-2.5a3.87,3.87,0,0,0,2.42-4.91Z" style="fill:#002f4c"/><rect x="178" y="337.43" width="5.43" height="14.73" transform="translate(-101.76 76.93) rotate(-18.86)" style="fill:#fff"/><path d="M283.38,308.59l3.36.25-2.63,2.29-1.33-.8Z" style="fill:#122043"/><path d="M284.11,311.13a3.22,3.22,0,0,1-.6-1.05l0-.11a3.35,3.35,0,0,1-.13-.69v0c0-.1,0-.2,0-.3a2,2,0,0,1,0-.35L271.61,306l2.47,7.23,2.29,6.71Z" style="fill:#f99200"/><path d="M207.49,307.74l7.53,4.65-5.42,6.22-.78,17.67-2.92-.57s-4.58-13.64-3.67-18.35S207.49,307.74,207.49,307.74Z" style="fill:#f7a57a"/><path d="M208.82,336.28l0,3.51a3,3,0,0,1-.48,1.58c-.59.89-1.64,2.19-2.6,2-1.45-.28-3.15-3.61-3.15-3.61l3.33-4.05Z" style="fill:#f7a57a"/><path d="M357.18,375.58l2.17,5.74a1.88,1.88,0,0,1-.62,2.23,6.84,6.84,0,0,1-1.13.53c-.4-.09-2.9-7.84-2.9-7.84l0,0A2,2,0,0,1,357.18,375.58Z" style="fill:#0f787a"/><path d="M357.6,384.08l-2.9-7.84-.39.22,2.92,7.76Z" style="fill:#122043"/><path d="M358,377.85l.19.52-1,.19-.18-.5Z" style="fill:#fff"/><path d="M358.46,379l.19.52-1,.19-.19-.5Z" style="fill:#fff"/><path d="M359.59,374.22l-2.4,1.36h0a1.55,1.55,0,0,0,.53,1.56l.08.06,2.66-.68Z" style="fill:#f7a57a"/><path d="M378.79,338a13.84,13.84,0,0,0-3,7.09c-.41,3,.72,7.77.84,11.51a9.66,9.66,0,0,1-4.14,8.23l-12.9,9.37.86,2.3s17.66-2.64,22.29-10.55,5.74-25.81,5.74-25.81Z" style="fill:#122043"/><path d="M368.52,328.27l-6.64,14.82s-2.72.31-3.91,1.36a2.85,2.85,0,0,0-.42,2.56.92.92,0,0,0,1.06.73.79.79,0,0,0,.44-.21,6.31,6.31,0,0,1,2.29-1.44,2.77,2.77,0,0,0,2.13-1.44L373,329.73Z" style="fill:#f7a57a"/><path d="M402,298.48l3.4-2.91-2.63-14.36-4.09-2.09a1.18,1.18,0,0,1,1.45-.46,3.71,3.71,0,0,0,1.87.14s.76-.95-.69-1.59c-.81-.55-1.36,0-3.72-.1,0-.36,3.11-1.22,3.11-1.22,1-.32,3.45,1.6,3.45,1.6a1.73,1.73,0,0,1,.32.78l.39,2.66s5.27,14.45,5.27,16-3,3.66-3,3.66Z" style="fill:#f7a57a"/><path d="M383.7,339.51s-2.05,2.46-.82,8.19c.78,3.65,4.22,8.25,6.53,11.42,1.66,2.27,1.69,5.13,1.19,7.9-1.89,10.51,1.14,23.35,1.14,23.35h2.45s3.68-18.81,4.77-32a38.11,38.11,0,0,0-4.22-20.86Z" style="fill:#002f4c"/><rect x="400.27" y="274.26" width="2.06" height="7.79" transform="translate(67.85 634.83) rotate(-81.65)" style="fill:#f99200"/><rect x="404.22" y="278.37" width="2.06" height="0.71" transform="translate(70.64 639.22) rotate(-81.65)" style="fill:#fff"/><path d="M405.3,279.78c.57.08,1,0,1.18-.88s-.31-1.1-.88-1.18Z" style="fill:#122043"/><path d="M397.3,278.6l-1.5-.9.11-.74,1.68-.4Z" style="fill:#fff"/><path d="M395.8,277.7l-.65-.47.76-.27Z" style="fill:#002f4c"/><rect x="400.87" y="274.84" width="0.47" height="7.52" transform="matrix(0.15, -0.99, 0.99, 0.15, 67.26, 635.05)" style="fill:#ef7100"/><rect x="401.01" y="273.86" width="0.47" height="7.52" transform="matrix(0.15, -0.99, 0.99, 0.15, 68.35, 634.35)" style="fill:#ef7100"/><path d="M377.67,310.44c-4.38,3.22-9.54,18.7-9.54,18.7L372,331.3l6.26-8.6s.61,9.95-.89,17.59c.69,2.86,3.94,2.54,9.21,1.54a26.24,26.24,0,0,0,8.72-3.27s.23-13.81.91-21.13-.66-8.1,1.19-7.87c4.11-2.33,10.86-9.87,10.86-9.87L402,298.47l-13.5,7.91A58.12,58.12,0,0,0,377.67,310.44Z" style="fill:#0f787a"/><path d="M385.32,292.12l3.26,3.22a5.64,5.64,0,0,1,1.54,5.24l-.38,1.72Z" style="fill:#f7a57a"/><path d="M381.38,290.9c-7.91,0-4.55,15.18-4.55,15.18s1.41,9.85,4.55,13.8c2.71,3.42,8.08,2.39,10.63.75a9.61,9.61,0,0,1,4.1-1.51c2.16-.26,4.72-1.21,4.72-5.1,0-3.66-4.37-6.49-7.24-8.51a9.52,9.52,0,0,1-3.73-5.51C388.94,296.26,386.7,290.9,381.38,290.9Z" style="fill:#ffc630"/><path d="M392.16,393.1h6.13c.82.11,1.73.42,1.88,1.36a6.58,6.58,0,0,1,.09,1.25c-.22.34-8.35-.05-8.35-.05l0,0A2.07,2.07,0,0,1,392.16,393.1Z" style="fill:#0f787a"/><path d="M400.26,395.7l-8.35,0,.07.43h8.29Z" style="fill:#002f4c"/><path d="M394.59,393.09h.55l-.17,1h-.54Z" style="fill:#fff"/><path d="M395.77,393.09h.55l-.17,1h-.53Z" style="fill:#fff"/><path d="M391.74,390.37l.42,2.73h0a1.56,1.56,0,0,0,1.65,0l.09-.06.3-2.72Z" style="fill:#f7a57a"/><path d="M400.1,278.66a1.18,1.18,0,0,0-1.45.46l2.72,1.39.11-.05a14.36,14.36,0,0,1,1.8-.66A25,25,0,0,0,400.1,278.66Z" style="fill:#f7a57a"/><path d="M83.48,393.59h8.7c1.15.12,2.44.44,2.66,1.45a5.85,5.85,0,0,1,.13,1.32c-.31.36-11.85-.05-11.85-.05l-.05,0a1.82,1.82,0,0,1,.27-2.57A.71.71,0,0,1,83.48,393.59Z" style="fill:#002b49"/><path d="M95,396.35l-11.85-.05.1.46H95Z" style="fill:#122043"/><path d="M86.92,393.57h.78l-.24,1.07H86.7Z" style="fill:#fff"/><path d="M88.6,393.57h.79l-.25,1.07h-.76Z" style="fill:#fff"/><path d="M82.88,390.69l.6,2.9h0a2.83,2.83,0,0,0,2.33.05l.14-.06.41-2.89Z" style="fill:#f7a57a"/><path d="M63.14,393.59h8.7c1.16.12,2.45.44,2.67,1.45a5.85,5.85,0,0,1,.12,1.32c-.31.36-11.84-.05-11.84-.05l0,0a1.83,1.83,0,0,1,.26-2.57Z" style="fill:#122043"/><path d="M74.63,396.35l-11.84-.05.1.46H74.65Z" style="fill:#122043"/><path d="M66.59,393.57h.78l-.24,1.07h-.76Z" style="fill:#fff"/><path d="M68.27,393.57h.78l-.24,1.07h-.76Z" style="fill:#fff"/><path d="M63.52,390.69l-.38,2.9h0a2.85,2.85,0,0,0,2.34.05l.13-.06L67,390.69Z" style="fill:#f7a57a"/><path d="M76.51,293.23l-7.17,4.67,2.21,5.66a2.56,2.56,0,0,0,.11.24l.47,0h.16a5.51,5.51,0,0,1,4.56,2.77,9.66,9.66,0,0,0,3.38-.88,3.5,3.5,0,0,0,1.6-1.21C82.59,300.45,76.51,293.23,76.51,293.23Z" style="fill:#f7a57a"/><path d="M85.62,294.7s.88,8.31-.89,13.61c.82.71,3.83,3.94,4.78-.25s-1.07-14.83-1.07-14.83Z" style="fill:#f7a57a"/><path d="M81.32,294.11l-1.69,1.08.6,1.26,1.81-.8Z" style="fill:#122043"/><path d="M80.33,295.62c.17.39.18.75,0,.82s-.41-.19-.58-.57-.18-.76,0-.82S80.16,295.24,80.33,295.62Z" style="fill:#122043"/><path d="M101.66,288v0A16.46,16.46,0,0,0,100,285a14.84,14.84,0,0,1-1.56-2.56l-17.41,11.4L82.19,296l19.47-7.2A5.21,5.21,0,0,1,101.66,288Z" style="fill:#002f4c"/><path d="M74.92,306.55l-.62,3.91h5.54l.4-4.79Z" style="fill:#f18c72"/><path d="M89.23,316.25s6.54-2.08,8.59-4.88-1.42-18.14-1.42-18.14l.45-2.76a2.55,2.55,0,0,0-2.12-2.94,1.72,1.72,0,0,0-.39,0H92.59a1,1,0,0,0-1,1,1,1,0,0,0,.09.41l2.3,5.17s1.72,11.62-.69,12.5a27,27,0,0,1-6.15,1.27Z" style="fill:#f7a57a"/><path d="M76.94,306.55l-1.69-3.73,1.1-.69a2.05,2.05,0,0,0,.85-2.41L76,296.21s3.41-.42,3.31-3.6c0-1.63-2.25-1.64-2.25-1.64a3.27,3.27,0,0,1-2.76,1.63c-.9-.11-3.36.22-5,3.12-1.12,1.95-.63,5,.34,7.29.87,2.05,3.1,3.2,5.3,3.54Z" style="fill:#122043"/><path d="M70.29,337.91a123.52,123.52,0,0,0,2.06,16.58,14.73,14.73,0,0,1-.51,7.62c-3.9,11.61-9.38,29.06-9.38,29.06h4.87s11-20.62,13.89-30.86,3.33-13.48,3.33-13.48l-3.39-8.93Z" style="fill:#005558"/><path d="M74.35,301.08a1.59,1.59,0,0,0,.9,1.74c.7.37,1.43.2,1.64-.39a1.59,1.59,0,0,0-.91-1.74C75.28,300.32,74.55,300.49,74.35,301.08Z" style="fill:#f7a57a"/><path d="M86.17,337.91H70.29V317.52a8.64,8.64,0,0,1,7.84-8.61l11.05-1.33s1.3,2,4.91,6.61a37.13,37.13,0,0,1-9.38,3.92Z" style="fill:#ffc630"/><path d="M70.29,337.91s2.24,8.12,10.52,17.22a10.67,10.67,0,0,1,3.09,8.27l-1.71,27.77h4.94s6-23.06,4.73-34.43a52.34,52.34,0,0,0-5.69-18.83Z" style="fill:#0f787a"/><path d="M99,286.09c.86,1.77,2,3,2.59,2.7s.35-1.94-.5-3.71-2-3-2.59-2.71S98.14,284.31,99,286.09Z" style="fill:#fff"/><path d="M84.93,291.3l.15.07a2.17,2.17,0,0,0,1.66.1l.1,0a3,3,0,0,0,1.88-1.91h0a.55.55,0,0,0-.36-.69.66.66,0,0,0-.28,0l-1.1.23a1.69,1.69,0,0,0-1,.71Z" style="fill:#f7a57a"/><path d="M321.66,105.29a14.94,14.94,0,0,1-1.66,7.33,11.39,11.39,0,0,1-4.49,4.56,13.72,13.72,0,0,1-12.71,0,11.33,11.33,0,0,1-4.48-4.57,17.08,17.08,0,0,1,0-14.65,11.3,11.3,0,0,1,4.48-4.56,13.72,13.72,0,0,1,12.71,0A11.39,11.39,0,0,1,320,98,14.94,14.94,0,0,1,321.66,105.29Zm-6.47,0a9.27,9.27,0,0,0-1.6-5.87,5.85,5.85,0,0,0-8.86,0,9.27,9.27,0,0,0-1.6,5.87,9.27,9.27,0,0,0,1.6,5.87,5.85,5.85,0,0,0,8.86,0A9.27,9.27,0,0,0,315.19,105.29ZM335,118.38h-9.68V92.2H335a14.26,14.26,0,0,1,6.9,1.57,10.81,10.81,0,0,1,4.47,4.49,14.62,14.62,0,0,1,1.57,7,14.89,14.89,0,0,1-1.57,7,10.77,10.77,0,0,1-4.47,4.5A14.11,14.11,0,0,1,335,118.38ZM331.67,113h3.11a6.94,6.94,0,0,0,5.07-1.74q1.75-1.73,1.75-6c0-2.83-.59-4.81-1.77-6a7.11,7.11,0,0,0-5.15-1.72h-3Zm44.67-7.7a14.9,14.9,0,0,1-1.66,7.32,11.31,11.31,0,0,1-4.5,4.57,13.7,13.7,0,0,1-12.7,0,11.26,11.26,0,0,1-4.48-4.57A17.08,17.08,0,0,1,353,98a11.24,11.24,0,0,1,4.48-4.56,13.7,13.7,0,0,1,12.7,0,11.35,11.35,0,0,1,4.5,4.56,14.94,14.94,0,0,1,1.66,7.33Zm-6.47,0a9.32,9.32,0,0,0-1.6-5.88,5.86,5.86,0,0,0-8.27-.59,5.48,5.48,0,0,0-.59.59,9.24,9.24,0,0,0-1.6,5.88,9.21,9.21,0,0,0,1.6,5.87,5.85,5.85,0,0,0,8.26.6,5.66,5.66,0,0,0,.6-.6,9.27,9.27,0,0,0,1.6-5.87Zm34.86,0a14.9,14.9,0,0,1-1.66,7.32,11.41,11.41,0,0,1-4.49,4.57,13.72,13.72,0,0,1-12.71,0,11.33,11.33,0,0,1-4.48-4.57,17.08,17.08,0,0,1,0-14.65,11.22,11.22,0,0,1,4.48-4.55,13.72,13.72,0,0,1,12.71,0A11.36,11.36,0,0,1,403.07,98a15,15,0,0,1,1.66,7.34Zm-6.47,0a9.32,9.32,0,0,0-1.6-5.88,5.85,5.85,0,0,0-8.26-.59,4.78,4.78,0,0,0-.6.59,9.3,9.3,0,0,0-1.6,5.88,9.27,9.27,0,0,0,1.6,5.87,5.86,5.86,0,0,0,8.27.6,6.67,6.67,0,0,0,.59-.6,9.27,9.27,0,0,0,1.6-5.87Zm-88.81,56.09h-9.68V135.2h9.66a14.24,14.24,0,0,1,6.9,1.57,10.75,10.75,0,0,1,4.47,4.49,16.48,16.48,0,0,1,0,14,10.74,10.74,0,0,1-4.47,4.51A14.27,14.27,0,0,1,309.45,161.38ZM306.1,156h3.1a6.94,6.94,0,0,0,5.07-1.74q1.75-1.73,1.76-6c0-2.83-.59-4.81-1.77-6a7.11,7.11,0,0,0-5.15-1.72h-3Zm44.67-7.7a15,15,0,0,1-1.67,7.33,11.39,11.39,0,0,1-4.49,4.56,13.7,13.7,0,0,1-12.71,0,11.26,11.26,0,0,1-4.48-4.57,17.06,17.06,0,0,1,0-14.64,11.3,11.3,0,0,1,4.48-4.56,13.72,13.72,0,0,1,12.71,0A11.39,11.39,0,0,1,349.1,141a15.06,15.06,0,0,1,1.67,7.33Zm-6.47,0a9.27,9.27,0,0,0-1.6-5.87,5.86,5.86,0,0,0-8.27-.6,4.78,4.78,0,0,0-.59.6,11.57,11.57,0,0,0,0,11.74,5.85,5.85,0,0,0,8.26.6,4.25,4.25,0,0,0,.6-.6,9.27,9.27,0,0,0,1.6-5.87Zm33.91-3.61h-6.39a4.75,4.75,0,0,0-1.58-3.13,5.11,5.11,0,0,0-3.5-1.16,5.4,5.4,0,0,0-4.49,2.07,9.25,9.25,0,0,0-1.63,5.83,9.13,9.13,0,0,0,1.64,5.9,6,6,0,0,0,7.88.94,4.67,4.67,0,0,0,1.68-2.95l6.39,0a10,10,0,0,1-1,3.43,10.49,10.49,0,0,1-2.29,3.07,11.18,11.18,0,0,1-3.55,2.2,13.91,13.91,0,0,1-11.14-.74,11.14,11.14,0,0,1-4.43-4.57,15.31,15.31,0,0,1-1.63-7.31,15,15,0,0,1,1.65-7.33,11.28,11.28,0,0,1,4.47-4.56,12.71,12.71,0,0,1,6.3-1.56,13.19,13.19,0,0,1,5.67,1.16,10,10,0,0,1,4.07,3.35A10.85,10.85,0,0,1,378.21,144.68ZM396,143.05a3.05,3.05,0,0,0-1.13-2.2,5.74,5.74,0,0,0-5.62-.09,2.18,2.18,0,0,0-.93,1.78,2,2,0,0,0,1,1.82,8.88,8.88,0,0,0,2.82,1l2.25.51a12.35,12.35,0,0,1,5.94,2.8,6.75,6.75,0,0,1,2.08,5.08,7,7,0,0,1-2.76,5.83q-2.76,2.1-7.65,2.1a12.81,12.81,0,0,1-7.89-2.24c-2-1.48-3-3.76-3-6.82h6.06a3.59,3.59,0,0,0,1.4,2.86,5.5,5.5,0,0,0,3.38,1,5.12,5.12,0,0,0,3-.76,2.29,2.29,0,0,0,1.09-1.95,2,2,0,0,0-1-1.76,10.34,10.34,0,0,0-3.17-1.16l-2.74-.64a11.87,11.87,0,0,1-5.35-2.52,6,6,0,0,1-1.95-4.73,7.11,7.11,0,0,1,1.3-4.27,8.61,8.61,0,0,1,3.64-2.84,13.25,13.25,0,0,1,5.31-1,12.64,12.64,0,0,1,5.29,1,8.27,8.27,0,0,1,3.48,2.88,7.71,7.71,0,0,1,1.27,4.3Z" style="fill:#fff"/><path d="M236.59,240.49H186.05v1.08h50.54Z" style="fill:#fff"/><path d="M236.59,245.36H186.36c.06.36.12.72.19,1.08h50Z" style="fill:#fff"/><path d="M236.59,252.2h-48.2c.16.36.33.73.51,1.08h47.69Z" style="fill:#fff"/><path d="M236.59,258.88H192.68c.33.37.66.73,1,1.08h42.91Z" style="fill:#fff"/><path d="M236.59,266.79H204.81a26.4,26.4,0,0,0,5.36,1.09h26.42Z" style="fill:#fff"/><path d="M236.59,235.63H186.07c0,.33,0,.66,0,1v.09h50.54Z" style="fill:#fff"/><path d="M191.8,220.13h44.79v-1.08H192.7C192.39,219.4,192.09,219.77,191.8,220.13Z" style="fill:#fff"/><path d="M236.59,225.9H188.32c-.16.35-.31.72-.45,1.08h48.72Z" style="fill:#fff"/><path d="M186.05,241.34v-4.72a26.75,26.75,0,0,1,23.48-26.47c1-.13-124.83-.2-124.83-.2A26.75,26.75,0,0,0,58,236.62v4.72A26.75,26.75,0,0,0,84.7,268h128A26.75,26.75,0,0,1,186.05,241.34Z" style="fill:#fff;opacity:0.6"/><path d="M132,210.14a13.41,13.41,0,0,0,2-.16l-11.69,0a28.25,28.25,0,0,0-18.95,26.45v4.69A28.74,28.74,0,0,0,122.35,268H134a7,7,0,0,0-2-.28c-13.57,0-24.64-13-24.68-26.54v-4.69C107.44,223,118.44,210.18,132,210.14Z" style="fill:#fff"/><path d="M107.94,210.14c1.94,0,3.44-.14,3.44-.14H95c-10.12,4.82-17.15,14.7-17.19,26.49v4.66A29.92,29.92,0,0,0,95,268h16.43c0-.18-5-.21-5.7-.28C94,266.54,84.8,252.91,84.76,241.14V236.5C84.8,224,95.2,210.18,107.94,210.14Z" style="fill:#fff"/><path d="M235.66,212.35,211,212c-14.71,0-26.63,11.11-26.67,24.78v4.38c0,13.68,12,24.75,26.67,24.79H236.4" style="fill:none;stroke:#fff;stroke-miterlimit:10;stroke-width:4px"/></svg>