<svg xmlns="http://www.w3.org/2000/svg" style="display:none">
  <defs>
    <symbol id="see-records">
      <path fill="currentColor" d="M9.05 11.25c-1.49 0-2.7-1.21-2.7-2.7s1.21-2.7 2.7-2.7 2.7 1.21 2.7 2.7-1.21 2.7-2.7 2.7m0-1.8c.5 0 .9-.4.9-.9s-.4-.9-.9-.9-.9.4-.9.9.4.9.9.9M9 3.15c-3.75 0-6.7 2.1-8 5.06 1.3 2.97 4.25 5.74 8 5.74s6.7-2.77 8-5.74c-1.3-2.96-4.25-5.06-8-5.06m0 9c-2.84 0-4.78-1.66-6.02-3.94C4.22 5.94 6.16 4.95 9 4.95s4.8.99 6.03 3.26c-1.23 2.27-3.19 3.94-6.03 3.94" />
    </symbol>
    <symbol id="download">
      <path fill="currentColor" d="M2 10.5h1.5V15h11v-4.5H16v6H2M5.5 8H8V1h2v7h2.5L9 11.5" />
    </symbol>
    <symbol id="global-filters">
      <path fill="currentColor" d="M1 3h12L7 9M5.5 6h3v11l-3-3M14 4h4v2h-4m-3 3h7v2h-7m0 3h7v2h-7" />
    </symbol>
    <symbol id="clear-and-reload">
      <path fill="currentColor" d="M14 15H4V3h6v3h4M4 1.5A1.5 1.5 0 0 0 2.5 3v12a1.5 1.5 0 0 0 1.4 1.5h10a1.5 1.5 0 0 0 1.5-1.5V5l-3.5-3.5         " />
    </symbol>
    <symbol id="export-xlsx">
      <path fill="currentColor" d="M0 1a1 1 0 0 1 1-1h7a1 1 0 0 1 1 1v7a1 1 0 0 1-1 1H1a1 1 0 0 1-1-1m4-4V1H1v3m7 0V1H5v3M4 8V5H1v3m7 0V5H5v3m-3.5 2h2v4h3v-1.5l3 2.5-3 2.5V16h-5m9.5-6h6a1 1 0 0 1 1 1v6a1 1 0 0 1-1 1h-6a1 1 0 0 1-1-1v-6a1 1 0 0 1 1-1m1.7 7 1.3-2 1.3 2h2l-2-3 2-3h-2L14 13l-1.3-2h-2l2 3-2 3" />
    </symbol>
    <symbol id="open-read-only">
      <path fill="currentColor" d="M13 7V5c0-2.5-2-4-4-4S5 2.5 5 5v2h-.5C3.5 7 3 7.5 3 8.5v7c0 1 .5 1.5 1.5 1.5h9c1 0 1.5-.5 1.5-1.5v-7c0-1-.5-1.5-1.5-1.5m-7-2c0-1.5 1-2.5 2.5-2.5s2.5 1 2.5 2.5v2h-5V5m1 7a1.5 1.5 0 0 1 3 0 1.5 1.5 0 0 1-3 0" />
    </symbol>
    <symbol id="open-dashboard">
      <path fill="currentColor" d="M13 2.07A8 8 0 1 0 15.93 5L14.2 6A6 6 0 1 1 12 3.8m-2 3.47a2 2 0 1 0 .73.73l5.5-5.5-.6-.6M9.3 3.8a.6.6 0 1 1-.01-.01m1.81.51a.6.6 0 1 1-.01-.01M7.5 4.3a.6.6 0 1 1-.01-.01M5.9 5.4a.6.6 0 1 1-.01-.01M4.8 6.9a.6.6 0 1 1-.01-.01m8.71.61a.6.6 0 1 0-.01 0" />
    </symbol>
    <symbol id="open-read-write">
      <path fill="currentColor" d="M13 7V5a4 4 0 0 0-8 0v2h-.5C3.5 7 3 7.5 3 8.5v7c0 1 .5 1.5 1.5 1.5h9c1 0 1.5-.5 1.5-1.5v-7c0-1-.5-1.5-1.5-1.5m-7-2a2 2 0 0 1 5 0v2h-5m1 5a1.5 1.5 0 0 1 3 0 1.5 1.5 0 0 1-3 0m6 3.5h-9v-7h9" />
    </symbol>
    <symbol id="import-xlsx">
      <path fill="currentColor" d="M9 10a1 1 0 0 1 1-1h7a1 1 0 0 1 1 1v7a1 1 0 0 1-1 1h-7a1 1 0 0 1-1-1m4-4v-3h-3v3m7 0v-3h-3v3m-1 4v-3h-3v3m7 0v-3h-3v3M.5 9h2v4h3v-1.5l3 2.5-3 2.5V15h-5M1 0h6a1 1 0 0 1 1 1v6a1 1 0 0 1-1 1H1a1 1 0 0 1-1-1V1a1 1 0 0 1 1-1m1.7 7L4 5l1.3 2h2l-2-3 2-3h-2L4 3 2.7 1h-2l2 3-2 3" />
    </symbol>
    <symbol id="undo">
      <path fill="currentColor" d="M5.43 9.43 8 12H1V5l2.96 2.958A8.29 8.29 0 0 1 9.32 6c3.46 0 6.42 2.11 7.68 5l-2 1c-.94-2.39-3.13-3.92-5.68-4a6.57 6.57 0 0 0-3.89 1.43" />
    </symbol>
    <symbol id="redo">
      <path fill="currentColor" d="M12.57 9.43 10 12h7V5l-2.96 2.96A8.29 8.29 0 0 0 8.68 6C5.22 6 2.26 8.11 1 11l2 1c.94-2.39 3.13-3.92 5.68-4a6.58 6.58 0 0 1 3.89 1.43" />
    </symbol>
    <symbol id="cut">
      <path fill="currentColor" d="M3 2v2l4.5 5-1.2 1.3c-.4-.2-.8-.3-1.3-.3-1.7 0-3 1.3-3 3s1.3 3 3 3 3-1.3 3-3c0-.5-.1-.9-.3-1.3L9 10.4l1.3 1.3c-.2.4-.3.8-.3 1.3 0 1.7 1.3 3 3 3s3-1.3 3-3-1.3-3-3-3c-.5 0-.9.1-1.3.3L10.4 9 15 4.4V2h-.4L9 7.6 3.4 2H3Zm2 12.5c-.8 0-1.5-.7-1.5-1.5s.7-1.5 1.5-1.5 1.5.7 1.5 1.5-.7 1.5-1.5 1.5Zm9.5-1.5c0 .8-.7 1.5-1.5 1.5s-1.5-.7-1.5-1.5.7-1.5 1.5-1.5 1.5.7 1.5 1.5ZM9 8.5c.3 0 .5.2.5.5s-.2.5-.5.5-.5-.2-.5-.5.2-.5.5-.5" />
    </symbol>
    <symbol id="paste">
      <path fill="currentColor" d="M14.5 2.5H11C10.7 1.6 10 1 9 1s-1.5.5-2 1.5H3.5C2.5 2.5 2 3 2 4v11c0 1 .5 1.5 1.5 1.5h11c1 0 1.5-.5 1.5-1.5V4c0-1-.5-1.5-1.5-1.5Zm-4.75.75c0 .5-.34.75-.75.75s-.75-.34-.75-.75.34-.75.75-.75.75.34.75.75ZM14.5 15h-11V4H5v2.5h8V4h1.5v11" />
    </symbol>
    <symbol id="clear">
      <path fill="currentColor" d="M1.5 15a.75.75 0 0 0 0 1.5h15a.75.75 0 0 0 0-1.5M5.3 12.75c.1.1.3.2.5.2h4c.2 0 .4-.1.5-.2l5.5-5.5c.2-.3.2-.6 0-.8l-4.4-4.4c-.3-.2-.6-.2-.8 0l-4.8 4.8c-2.7 2.9-3.1 2.8-2.4 4M7 7.25l3.6 3.6-1 1-3.6.1-1.8-1.9" />
    </symbol>
    <symbol id="freeze">
      <path fill="currentColor" d="M.5 17.5h16a1 1 0 0 0 1-1v-15a1 1 0 0 0-1-1h-15a1 1 0 0 0-1 1v15a1 1 0 0 0 1 1m9-10.5v4.5H6V7m0 9v-3.5h4.5V16M5 16H3.5L5 14.5M5 13l-3 3v-1.5l3-3M2 13v-2l3-3v2m-3-.5v-2l3-3v2M2 6V4l2-2h1v1m11 13h-4.5v-3.5H16m0-1h-4.5V7H16m0-5v4h-4.5V2m-1 4H6V2h4.5" />
    </symbol>
    <symbol id="unfreeze">
      <path fill="currentColor" d="M.5 17.5h16a1 1 0 0 0 1-1v-15a1 1 0 0 0-1-1h-15a1 1 0 0 0-1 1v15a1 1 0 0 0 1 1M5 6H2V2h3m0 9.5H2V7h3m0 9H2v-3.5h3M10.5 7v4.5H6V7m0 9v-3.5h4.5V16m5.5 0h-4.5v-3.5H16m0-1h-4.5V7H16m0-5v4h-4.5V2m-1 4H6V2h4.5" />
    </symbol>
    <symbol id="formula">
      <path fill="currentColor" d="M7 14.25q-.25.75-.75 1.25T5 16q-.75 0-1.5-.5Q3 15 3 14.25q0-.5.25-.75t.75-.25q.25 0 .25.75v.5H5q.5 0 .5-.5l1.25-6.5H5V6h2l.5-2.25q.25-.75.75-1.25T9.5 2q1 0 1.5.5t.5 1q0 .5-.25.75t-.5.25q-.5 0-.75-.25t-.25-.5V3H9.5q-.25 0-.5.5L8.5 6H10v1.5H8.25m1.25 1H15v1h-4l2 2-2 2h4v1H9V14l2.5-2.5L9 9" />
    </symbol>
    <symbol id="hide-row">
      <path fill="currentColor" d="M.5 2A1.5 1.5 0 0 1 2 .5h14A1.5 1.5 0 0 1 17.5 2v14a1.5 1.5 0 0 1-1.5 1.5H2A1.5 1.5 0 0 1 .5 16V2H2v3.5h14V2H2v9h14V7H2v9h14v-3.5H2M1 12l4-5h2l-4 5m2 0 4-5h2l-4 5m2 0 4-5h2l-4 5m2 0 4-5v4" />
    </symbol>
    <symbol id="unhide-row">
      <path fill="currentColor" d="M17.5 16a1.5 1.5 0 0 1-1.5 1.5H2A1.5 1.5 0 0 1 .5 16V2A1.5 1.5 0 0 1 2 .5h14A1.5 1.5 0 0 1 17.5 2zH16v-3.5H2V16h14V2H2v3.5h14" />
    </symbol>
    <symbol id="hide-col">
      <path fill="currentColor" d="M16 .5A1.5 1.5 0 0 1 17.5 2v14a1.5 1.5 0 0 1-1.5 1.5H2A1.5 1.5 0 0 1 .5 16V2A1.5 1.5 0 0 1 2 .5h14V2h-3.5v14H16V2H7v14h4V2H2v14h3.5V2M6 1l5 4v2L6 3m0 2 5 4v2L6 7m0 2 5 4v2l-5-4" />
    </symbol>
    <symbol id="unhide-col">
      <path fill="currentColor" d="M16 .5A1.5 1.5 0 0 1 17.5 2v14a1.5 1.5 0 0 1-1.5 1.5H2A1.5 1.5 0 0 1 .5 16V2A1.5 1.5 0 0 1 2 .5h14V2h-3.5v14H16V2H2V16h3.5V2" />
    </symbol>
    <symbol id="insert-row">
      <path fill="currentColor" d="M.5 2A1.5 1.5 0 0 1 2 .5h14A1.5 1.5 0 0 1 17.5 2v14a1.5 1.5 0 0 1-1.5 1.5H2A1.5 1.5 0 0 1 .5 16V2H2v3.5h14V2H2v9h14V7H2v9h14v-3.5H2" />
    </symbol>
    <symbol id="insert-row-before">
      <path fill="currentColor" d="M3.5 14.5A1.5 1.5 0 0 0 5 16h10a1.5 1.5 0 0 0 1.5-1.5v-7h-3V5h3V1.5A1.5 1.5 0 0 0 15 0H5a1.5 1.5 0 0 0-1.5 1.5v2h-3V9h3M15 12.5v2H5v-2M15 9v2H5V9m10-7.5v2H5v-2M12 5v2.5H2V5" />
    </symbol>
    <symbol id="insert-row-after">
      <path fill="currentColor" d="M3.5 1.5A1.5 1.5 0 0 1 5 0h10a1.5 1.5 0 0 1 1.5 1.5v7h-3V11h3v3.5A1.5 1.5 0 0 1 15 16H5a1.5 1.5 0 0 1-1.5-1.5v-2h-3V7h3M15 3.5v-2H5v2M15 7V5H5v2m10 7.5v-2H5v2m7-3.5V8.5H2V11" />
    </symbol>
    <symbol id="insert-col">
      <path fill="currentColor" d="M.5 2A1.5 1.5 0 0 1 2 .5h14A1.5 1.5 0 0 1 17.5 2v14a1.5 1.5 0 0 1-1.5 1.5H2A1.5 1.5 0 0 1 .5 16V2H2v14h3.5V2H2h5v14h4V2H2h10.5v14H16V2H2" />
    </symbol>
    <symbol id="insert-col-after">
      <path fill="currentColor" d="M2.5 3A1.5 1.5 0 0 0 1 4.5v10A1.5 1.5 0 0 0 2.5 16h7v-3H12v3h3.5a1.5 1.5 0 0 0 1.5-1.5v-10A1.5 1.5 0 0 0 15.5 3h-2V0H8v3M4.5 14.5h-2v-10h2m3.5 10H6v-10h2m7.5 10h-2v-10h2m-3.5 7H9.5v-10H12" />
    </symbol>
    <symbol id="insert-col-before">
      <path fill="currentColor" d="M15.5 3A1.5 1.5 0 0 1 17 4.5v10a1.5 1.5 0 0 1-1.5 1.5h-7v-3H6v3H2.5A1.5 1.5 0 0 1 1 14.5v-10A1.5 1.5 0 0 1 2.5 3h2V0H10v3m3.5 11.5h2v-10h-2m-3.5 10h2v-10h-2m-7.5 10h2v-10h-2m3.5 7h2.5v-10H6" />
    </symbol>
    <symbol id="insert-cell">
      <path fill="currentColor" d="M.5 2A1.5 1.5 0 0 1 2 .5h14A1.5 1.5 0 0 1 17.5 2v14a1.5 1.5 0 0 1-1.5 1.5H2A1.5 1.5 0 0 1 .5 16V2H2v14h14V2H2" />
    </symbol>
    <symbol id="insert-cell-shift-down">
      <path fill="currentColor" d="M5 2.5A1.5 1.5 0 0 1 6.5 1h10A1.5 1.5 0 0 1 18 2.5v13a1.5 1.5 0 0 1-1.5 1.5h-10A1.5 1.5 0 0 1 5 15.5v-5h5.25v-3H5m11.5-2v-3h-4.75v3m-1.5 0v-3H6.5v3m10 5v-3h-4.75v3m-1.5 5v-3H6.5v3m10 0v-3h-4.75v3M0 12.5l2.5 4 2.5-4H3.25v-6h-1.5v6" />
    </symbol>
    <symbol id="insert-cell-shift-right">
      <path fill="currentColor" d="M2.5 5A1.5 1.5 0 0 0 1 6.5v10A1.5 1.5 0 0 0 2.5 18h13a1.5 1.5 0 0 0 1.5-1.5v-10A1.5 1.5 0 0 0 15.5 5h-5v5.25h-3V5m-2 11.5h-3v-4.75h3m0-1.5h-3V6.5h3m5 10h-3v-4.75h3m5-1.5h-3V6.5h3m0 10h-3v-4.75h3M12.5 0l4 2.5-4 2.5V3.25h-6v-1.5h6" />
    </symbol>
    <symbol id="delete-cell-shift-up">
      <path fill="currentColor" d="M5 2.5A1.5 1.5 0 0 1 6.5 1h10A1.5 1.5 0 0 1 18 2.5v13a1.5 1.5 0 0 1-1.5 1.5h-10A1.5 1.5 0 0 1 5 15.5v-5h5.25v-3H5m11.5-2v-3h-4.75v3m-1.5 0v-3H6.5v3m10 5v-3h-4.75v3m-1.5 5v-3H6.5v3m10 0v-3h-4.75v3M0 10l2.5-4L5 10H3.25v6h-1.5v-6" />
    </symbol>
    <symbol id="delete-cell-shift-left">
      <path fill="currentColor" d="M2.5 5A1.5 1.5 0 0 0 1 6.5v10A1.5 1.5 0 0 0 2.5 18h13a1.5 1.5 0 0 0 1.5-1.5v-10A1.5 1.5 0 0 0 15.5 5h-5v5.25h-3V5m-2 11.5h-3v-4.75h3m0-1.5h-3V6.5h3m5 10h-3v-4.75h3m5-1.5h-3V6.5h3m0 10h-3v-4.75h3M10 0 6 2.5 10 5V3.25h6v-1.5h-6" />
    </symbol>
    <symbol id="insert-dropdown">
      <path fill="currentColor" d="M6 3.5a5 5.5 0 0 0 0 11h6a5 5.5 0 0 0 0-11H6V5h6a3.5 4 0 0 1 0 8H6a3.5 4 0 0 1 0-8m5 6 3-3H8" />
    </symbol>
    <symbol id="insert-sheet">
      <path d="M17.5 5.5V16a1.5 1.5 0 0 1-1.5 1.5H2A1.5 1.5 0 0 1 .5 16V2A1.5 1.5 0 0 1 2 .5h10.5M2 5.5h3.5V2H2m5.25 3.5h3.5V2h-3.5M2 10.75h3.5v-3.5H2m5.25 3.5h3.5v-3.5h-3.5m5.25 3.5H16v-3.5h-3.5M2 16h3.5v-3.5H2M7.25 16h3.5v-3.5h-3.5M12.5 16H16v-3.5h-3.5" />
    </symbol>
    <symbol id="paint-format">
      <path fill="currentColor" d="M9,0 L1,0 C0.45,0 0,0.45 0,1 L0,4 C0,4.55 0.45,5 1,5 L9,5 C9.55,5 10,4.55 10,4 L10,3 L11,3 L11,6 L4,6 L4,14 L6,14 L6,8 L13,8 L13,2 L10,2 L10,1 C10,0.45 9.55,0 9,0 Z" transform="translate(3 2)" />
    </symbol>
    <symbol id="conditional-format">
      <path fill="currentColor" d="M12.25.5c2 0 3.5 1.5 3.5 3.5v6.5c0 .5 0 2-2 2h-2.5v4c0 .5-.5 1-1 1h-2.5c-.5 0-1-.5-1-1v-4h-2.5c-1 0-2-1-2-2V.5m12 3a1.5 1.5 0 0 0-1.5-1.5h-3v2h-1.5V2h-1v4h-2V2h-1.5v8.5h10.5m-12-3h12.5V9H2.25" />
    </symbol>
    <symbol id="clear-format">
      <path fill="currentColor" d="M2.12 4.05 7.28 9.2l-2.43 5.3h2.5l1.64-3.58 4.59 4.58 1.27-1.27L3.4 2.77 2.12 4.05ZM5.67 2.5l2 2h1.76l-.55 1.21 1.71 1.71 1.34-2.92h3.92v-2H5.67" />
    </symbol>
    <symbol id="bold">
      <path fill="currentColor" d="M13.5 6.5C13.5 4.57 11.93 3 10 3H4.5v12h6.25c1.79 0 3.25-1.46 3.25-3.25 0-1.3-.77-2.41-1.87-2.93.83-.58 1.37-1.44 1.37-2.32M9.5 5c.83 0 1.5.67 1.5 1.5S10.33 8 9.5 8h-2V5h2m-2 8v-3H10c.83 0 1.5.67 1.5 1.5S10.83 13 10 13H7.5" />
    </symbol>
    <symbol id="italic">
      <path fill="currentColor" d="M7 3v2h2.58l-3.66 8H3v2h8v-2H8.42l3.66-8H15V3" />
    </symbol>
    <symbol id="underline">
      <path fill="currentColor" d="M9 15c2.76 0 5-2.24 5-5V3h-2v7c0 1.75-1.5 3-3 3s-3-1.242-3-3V3H4v7c0 2.76 2.24 5 5 5Zm-6 1v2h12v-2H3" />
    </symbol>
    <symbol id="strike">
      <path fill="currentColor" d="M4.89 6.06c0-.46.1-.87.3-1.25.2-.38.46-.7.84-.97s.78-.47 1.28-.62A5.71 5.71 0 0 1 8.93 3c.61 0 1.16.08 1.65.25.5.17.92.4 1.27.7.35.3.62.66.81 1.07.19.41.28.87.28 1.36h-2.26a1.85 1.85 0 0 0-.11-.64 1.26 1.26 0 0 0-.33-.51 1.53 1.53 0 0 0-.56-.33A2.42 2.42 0 0 0 8.89 4.8c-.3 0-.55.03-.77.1a1.52 1.52 0 0 0-.54.27 1.14 1.14 0 0 0-.43.9c0 .36.18.66.55.91l.06.04C8.02 7.19 8.5 7.5 9 8H6s-.79-.62-.82-.69c-.19-.36-.29-.77-.29-1.25M16 9H2v2h7.22c.14.05.3.1.41.15.28.12.5.26.65.38.16.13.26.27.32.42.06.15.08.33.08.51 0 .18-.03.34-.1.49a1.02 1.02 0 0 1-.31.39 1.6 1.6 0 0 1-.53.26 2.71 2.71 0 0 1-.76.09c-.33 0-.62-.03-.89-.1a1.8 1.8 0 0 1-.68-.31 1.45 1.45 0 0 1-.44-.56c-.11-.23-.19-.57-.19-.74H4.55c0 .25.06.69.18 1.02a3.15 3.15 0 0 0 1.22 1.6c.28.2.58.36.92.49.33.13.67.23 1.04.29.36.06.72.09 1.08.09.6 0 1.15-.07 1.64-.21a3.88 3.88 0 0 0 1.25-.59 2.69 2.69 0 0 0 .8-.95c.19-.38.28-.81.28-1.29 0-.45-.08-.86-.23-1.211a2.26 2.26 0 0 0-.13-.25L16 11V9" />
    </symbol>
    <symbol id="text-color">
      <path fill="currentColor" d="M10 1H8L3.5 13h2l1.12-3h4.75l1.12 3h2L10 1ZM7.38 8 9 3.67 10.62 8H7.38" />
    </symbol>
    <symbol id="fill-color">
      <path fill="currentColor" d="M14.5 8.87S13 10.49 13 11.49c0 .83.67 1.5 1.5 1.5s1.5-.67 1.5-1.5c0-.99-1.5-2.62-1.5-2.62m-1.79-2.08L5.91 0 4.85 1.06l1.59 1.59-4.15 4.14a.996.996 0 0 0 0 1.41l4.5 4.5c.2.2.45.3.71.3.26 0 .51-.1.71-.29l4.5-4.5c.39-.39.39-1.03 0-1.42M4.21 7 7.5 3.71 10.79 7H4.21" />
    </symbol>
    <symbol id="merge-cell">
      <path fill="currentColor" d="M3 6H1V2h7v2H3v2m7-2V2h7v4h-2V4h-5m0 10h5v-2h2v4h-7v-2m-9-2h2v2h5v2H1v-4m0-4h4V6l3 3-3 3v-2H1V8m9 1 3-3v2h4v2h-4v2l-3-3" />
    </symbol>
    <symbol id="align-left">
      <path fill="currentColor" d="M2 16h10v-2H2v2M12 6H2v2h10V6M2 2v2h14V2H2m0 10h14v-2H2v2" />
    </symbol>
    <symbol id="align-center">
      <path fill="currentColor" d="M4 14v2h10v-2H4m0-8v2h10V6H4m-2 6h14v-2H2v2M2 2v2h14V2H2" />
    </symbol>
    <symbol id="align-right">
      <path fill="currentColor" d="M6 16h10v-2H6v2m-4-4h14v-2H2v2M2 2v2h14V2H2m4 6h10V6H6v2" />
    </symbol>
    <symbol id="align-top">
      <path d="M3 2h12v2H3m2.5 5H8v7h2V9h2.5L9 5.5" fill="currentColor" />
    </symbol>
    <symbol id="align-middle">
      <path d="M12.5 3H10V0H8v3H5.5L9 6.5M5.5 15H8v3h2v-3h2.5L9 11.5M3 8v2h12V8" fill="currentColor" />
    </symbol>
    <symbol id="align-bottom">
      <path d="M5.5 9H8V2h2v7h2.5L9 12.5M3 14v2h12v-2" fill="currentColor" />
    </symbol>
    <symbol id="wrapping-overflow">
      <path d="M13 8H6v2h7v2l3-3-3-3M2 2h2v14H2M9 2h2v4H9m0 6h2v4H9" fill="currentColor" />
    </symbol>
    <symbol id="wrapping-wrap">
      <path fill="currentColor" d="M6 5v2h3.75c.75 0 1.5.67 1.5 1.5 0 .75-.75 1.5-1.5 1.5H8V8l-3 3 3 3v-2h1.5c2 0 3.5-1.5 3.5-3.5S11.5 5 9.5 5M2 2h2v14H2M14 2M14,2,h2v14h-2" />
    </symbol>
    <symbol id="wrapping-clip">
      <path fill="currentColor" d="M2 2h2v14H2M14 2h2v14h-2v-6H6V8h8" />
    </symbol>
    <symbol id="borders">
      <path fill="currentColor" d="M2 2v14h14V2H2m6 12H4v-4h4v4m0-6H4V4h4v4m6 6h-4v-4h4v4m0-6h-4V4h4v4" />
    </symbol>
    <symbol id="border-hv">
      <path d="M2 16h2v-2H2v2M4 5H2v2h2V5m1 11h2v-2H5v2m8-14h-2v2h2V2M4 2H2v2h2V2m3 0H5v2h2V2M2 13h2v-2H2v2m9 3h2v-2h-2v2m3-14v2h2V2h-2m0 5h2V5h-2v2m0 9h2v-2h-2v2m0-3h2v-2h-2v2" opacity=".54" />
      <path d="M10 2H8v6H2v2h6v6h2v-6h6V8h-6" />
    </symbol>
    <symbol id="border-h">
      <path d="M8 16h2v-2H8v2M5 4h2V2H5v2m3 9h2v-2H8v2m-3 3h2v-2H5v2M2 7h2V5H2v2m0 9h2v-2H2v2M2 4h2V2H2v2m0 9h2v-2H2v2m12 0h2v-2h-2v2m0 3h2v-2h-2v2m0-9h2V5h-2v2m0-5v2h2V2h-2M8 4h2V2H8v2m3 0h2V2h-2v2M8 7h2V5H8v2m3 9h2v-2h-2v2" opacity=".54" />
      <path d="M2 10h14V8H2" />
    </symbol>
    <symbol id="border-v">
      <path d="M5 16h2v-2H5v2M2 7h2V5H2v2m0-3h2V2H2v2m3 6h2V8H5v2m0-6h2V2H5v2M2 16h2v-2H2v2m0-6h2V8H2v2m0 3h2v-2H2v2M14 2v2h2V2h-2m0 8h2V8h-2v2m0 6h2v-2h-2v2m0-9h2V5h-2v2m0 6h2v-2h-2v2m-3 3h2v-2h-2v2m0-6h2V8h-2v2m0-6h2V2h-2v2" opacity=".54" />
      <path d="M8 16h2V2H8" />
    </symbol>
    <symbol id="border-external">
      <path d="M10 5H8v2h2V5m3 3h-2v2h2V8m-3 0H8v2h2V8m0 3H8v2h2v-2M7 8H5v2h2V8" opacity=".54" />
      <path d="M2 2h14v14H2V2m12 12V4H4v10h10" />
    </symbol>
    <symbol id="border-left">
      <path d="M8 10h2V8H8v2m0-3h2V5H8v2m0 6h2v-2H8v2m0 3h2v-2H8v2m-3 0h2v-2H5v2M5 4h2V2H5v2m0 6h2V8H5v2m9 6h2v-2h-2v2m0-6h2V8h-2v2m0 3h2v-2h-2v2m0-6h2V5h-2v2M8 4h2V2H8v2m6-2v2h2V2h-2m-3 14h2v-2h-2v2m0-6h2V8h-2v2m0-6h2V2h-2v2" opacity=".54" />
      <path d="M2 16h2V2H2" />
    </symbol>
    <symbol id="border-top">
      <path d="M5 10h2V8H5v2m-3 6h2v-2H2v2m6 0h2v-2H8v2m0-3h2v-2H8v2m-3 3h2v-2H5v2m-3-3h2v-2H2v2m6-3h2V8H8v2M2 7h2V5H2v2m0 3h2V8H2v2m12 0h2V8h-2v2m0 3h2v-2h-2v2m0-6h2V5h-2v2M8 7h2V5H8v2m3 9h2v-2h-2v2m0-6h2V8h-2v2m3 6h2v-2h-2v2" opacity=".54" />
      <path d="M2 2v2h14V2" />
    </symbol>
    <symbol id="border-right">
      <path d="M2 4h2V2H2v2m3 0h2V2H5v2m0 6h2V8H5v2m0 6h2v-2H5v2M2 7h2V5H2v2m0 3h2V8H2v2m0 6h2v-2H2v2m0-3h2v-2H2v2m9-3h2V8h-2v2m-3 6h2v-2H8v2m3 0h2v-2h-2v2M8 4h2V2H8v2m3 0h2V2h-2v2m-3 9h2v-2H8v2m0-6h2V5H8v2m0 3h2V8H8v2" opacity=".54" />
      <path d="M14 2v14h2V2" />
    </symbol>
    <symbol id="border-bottom">
      <path d="M7 2H5v2h2V2m3 6H8v2h2V8m0 3H8v2h2v-2m3-3h-2v2h2V8M7 8H5v2h2V8m6-6h-2v2h2V2m-3 3H8v2h2V5m0-3H8v2h2V2m-6 9H2v2h2v-2m10 2h2v-2h-2v2m0-6h2V5h-2v2m0 3h2V8h-2v2m0-8v2h2V2h-2M4 2H2v2h2V2m0 3H2v2h2V5m0 3H2v2h2V8" opacity=".54" />
      <path d="M2 16h14v-2H2" />
    </symbol>
    <symbol id="border-clear">
      <path fill="currentColor" d="M8 16h2v-2H8v2m-3-6h2V8H5v2m0-6h2V2H5v2m3 9h2v-2H8v2m-3 3h2v-2H5v2M2 7h2V5H2v2m0 9h2v-2H2v2M2 4h2V2H2v2m0 6h2V8H2v2m6 0h2V8H8v2m-6 3h2v-2H2v2m12 0h2v-2h-2v2m0 3h2v-2h-2v2m0-6h2V8h-2v2m0-3h2V5h-2v2m0-5v2h2V2h-2M8 4h2V2H8v2m3 0h2V2h-2v2M8 7h2V5H8v2m3 9h2v-2h-2v2m0-6h2V8h-2v2" opacity=".54" />
    </symbol>
    <symbol id="border-type">
      <g fill="currentColor" transform="translate(2 2)">
        <polygon points="0 0 0 2 14 2 14 0" />
        <polygon points="0 6 0 8 5 8 5 6" />
        <polygon points="9 6 9 8 14 8 14 6" />
        <polygon points="0 12 0 14 2 14 2 12" />
        <polygon points="4 12 4 14 6 14 6 12" />
        <polygon points="8 12 8 14 10 14 10 12" />
        <polygon points="12 12 12 14 14 14 14 12" />
      </g>
    </symbol>
    <symbol id="border-color">
      <g fill="currentColor" transform="translate(4 2)">
        <polygon points="0 12 0 9 7 2 10 5 3 12" />
        <polygon points="8 1 9 0 12 3 11 4" />
      </g>
    </symbol>
    <symbol id="border-no-color">
      <g fill="currentColor">
        <polygon points="4 12 4 9 11 2 14 5 7 12" />
        <polygon points="12 1 13 0 16 3 15 4" />
      </g>
      <g>
        <rect x="0" y="14" width="18" height="4" stroke="black" fill="none" />
      </g>
    </symbol>
    <symbol id="plus" viewBox="0 0 18 18">
      <path fill="currentColor" d="M8 0h2v8h8v2h-8v8H8v-8H0V8h8" />
    </symbol>
    <symbol id="minus" viewBox="0 0 18 18">
      <path fill="currentColor" d="M0 8h18v2H0z" />
    </symbol>
    <symbol id="list" viewBox="0 0 384 384">
      <rect x="0" y="277.333" width="384" height="42.667" fill="currentColor" />
      <rect x="0" y="170.667" width="384" height="42.667" fill="currentColor" />
      <rect x="0" y="64" width="384" height="42.667" fill="currentColor" />
    </symbol>
    <symbol id="arrow-down" viewBox="0 0 448 512">
      <path fill="currentColor" d="M413.1 222.5l22.2 22.2c9.4 9.4 9.4 24.6 0 33.9L241 473c-9.4 9.4-24.6 9.4-33.9 0L12.7 278.6c-9.4-9.4-9.4-24.6 0-33.9l22.2-22.2c9.5-9.5 25-9.3 34.3.4L184 343.4V56c0-13.3 10.7-24 24-24h32c13.3 0 24 10.7 24 24v287.4l114.8-120.5c9.3-9.8 24.8-10 34.3-.4z" />
    </symbol>
    <symbol id="arrow-up" viewBox="0 0 448 512">
      <path fill="currentColor" d="M34.9 289.5l-22.2-22.2c-9.4-9.4-9.4-24.6 0-33.9L207 39c9.4-9.4 24.6-9.4 33.9 0l194.3 194.3c9.4 9.4 9.4 24.6 0 33.9L413 289.4c-9.5 9.5-25 9.3-34.3-.4L264 168.6V456c0 13.3-10.7 24-24 24h-32c-13.3 0-24-10.7-24-24V168.6L69.2 289.1c-9.3 9.8-24.8 10-34.3.4z" />
    </symbol>
    <symbol id="arrow-right" viewBox="0 0 448 512">
      <path fill="#F0AD4E" d="M190.5 66.9l22.2-22.2c9.4-9.4 24.6-9.4 33.9 0L441 239c9.4 9.4 9.4 24.6 0 33.9L246.6 467.3c-9.4 9.4-24.6 9.4-33.9 0l-22.2-22.2c-9.5-9.5-9.3-25 .4-34.3L311.4 296H24c-13.3 0-24-10.7-24-24v-32c0-13.3 10.7-24 24-24h287.4L190.9 101.2c-9.8-9.3-10-24.8-.4-34.3z" />
    </symbol>
    <symbol id="smile" viewBox="0 0 496 512">
      <path fill="#6AA84F" d="M248 8C111 8 0 119 0 256s111 248 248 248 248-111 248-248S385 8 248 8zm0 448c-110.3 0-200-89.7-200-200S137.7 56 248 56s200 89.7 200 200-89.7 200-200 200zm-80-216c17.7 0 32-14.3 32-32s-14.3-32-32-32-32 14.3-32 32 14.3 32 32 32zm160 0c17.7 0 32-14.3 32-32s-14.3-32-32-32-32 14.3-32 32 14.3 32 32 32zm4 72.6c-20.8 25-51.5 39.4-84 39.4s-63.2-14.3-84-39.4c-8.5-10.2-23.7-11.5-33.8-3.1-10.2 8.5-11.5 23.6-3.1 33.8 30 36 74.1 56.6 120.9 56.6s90.9-20.6 120.9-56.6c8.5-10.2 7.1-25.3-3.1-33.8-10.1-8.4-25.3-7.1-33.8 3.1z" />
    </symbol>
    <symbol id="meh" viewBox="0 0 496 512">
      <path fill="#F0AD4E" d="M248 8C111 8 0 119 0 256s111 248 248 248 248-111 248-248S385 8 248 8zm0 448c-110.3 0-200-89.7-200-200S137.7 56 248 56s200 89.7 200 200-89.7 200-200 200zm-80-216c17.7 0 32-14.3 32-32s-14.3-32-32-32-32 14.3-32 32 14.3 32 32 32zm160-64c-17.7 0-32 14.3-32 32s14.3 32 32 32 32-14.3 32-32-14.3-32-32-32zm8 144H160c-13.2 0-24 10.8-24 24s10.8 24 24 24h176c13.2 0 24-10.8 24-24s-10.8-24-24-24z" />
    </symbol>
    <symbol id="frown" viewBox="0 0 496 512">
      <path fill="#E06666" d="M248 8C111 8 0 119 0 256s111 248 248 248 248-111 248-248S385 8 248 8zm0 448c-110.3 0-200-89.7-200-200S137.7 56 248 56s200 89.7 200 200-89.7 200-200 200zm-80-216c17.7 0 32-14.3 32-32s-14.3-32-32-32-32 14.3-32 32 14.3 32 32 32zm160-64c-17.7 0-32 14.3-32 32s14.3 32 32 32 32-14.3 32-32-14.3-32-32-32zm-80 128c-40.2 0-78 17.7-103.8 48.6-8.5 10.2-7.1 25.3 3.1 33.8 10.2 8.4 25.3 7.1 33.8-3.1 16.6-19.9 41-31.4 66.9-31.4s50.3 11.4 66.9 31.4c8.1 9.7 23.1 11.9 33.8 3.1 10.2-8.5 11.5-23.6 3.1-33.8C326 321.7 288.2 304 248 304z" />
    </symbol>
    <symbol id="green-dot" viewBox="0 0 512 512">
      <path fill="#6AA84F" d="M256 8C119 8 8 119 8 256s111 248 248 248 248-111 248-248S393 8 256 8z" />
    </symbol>
    <symbol id="yellow-dot" viewBox="0 0 512 512">
      <path fill="#F0AD4E" d="M256 8C119 8 8 119 8 256s111 248 248 248 248-111 248-248S393 8 256 8z" />
    </symbol>
    <symbol id="red-dot" viewBox="0 0 512 512">
      <path fill="#E06666" d="M256 8C119 8 8 119 8 256s111 248 248 248 248-111 248-248S393 8 256 8z" />
    </symbol>
    <symbol id="sort-range">
      <path fill="currentColor" d="M9 3.5h8v2H9M9 8h6v2H9m0 2.5h3v2H9M6 6l1-1-3-3-3 3 1 1 1-1v8l-1-1-1 1 3 3 3-3-1-1-1 1V5" />
    </symbol>
    <symbol id="filter-icon" viewBox="0 0 850 850">
      <path fill="currentColor" d="M 339.667 681 L 510.333 681 L 510.333 595.667 L 339.667 595.667 L 339.667 681 Z M 41 169 L 41 254.333 L 809 254.333 L 809 169 L 41 169 Z M 169 467.667 L 681 467.667 L 681 382.333 L 169 382.333 L 169 467.667 Z" />
    </symbol>
    <symbol id="check" viewBox="0 0 24 24">
      <path fill="currentColor" d="M18.707 7.293a1 1 0 0 1 0 1.414L11.414 16a1.8 2 0 0 1-2.828 0l-3.293-3.293a1 1 0 1 1 1.414-1.414L10 14.586l7.293-7.293a1 1 0 0 1 1.414 0z" />
    </symbol>
    <symbol id="number-formats">
      <path d="M0 6h2v8h2V4H0m9 0H5v2h4v2H6.5A1.5 1.5 0 0 0 5 9.5V14h6v-2H7v-2h2.5A1.5 1.5 0 0 0 11 8.5v-3A1.5 1.5 0 0 0 9.5 4M12 4v2h4v2h-2v2h2v2h-4v2h4.5a1.5 1.5 0 0 0 1.5-1.5v-2A1.5 1.5 0 0 0 16.5 9 1.5 1.5 0 0 0 18 7.5v-2A1.5 1.5 0 0 0 16.5 4" />
    </symbol>
    <symbol id="font-size">
      <text x="2" y="15" class="small-text">A</text>
      <text x="6" y="15" class="heavy-text">A</text>
    </symbol>
    <symbol id="split-text">
      <path fill="currentColor" d="M14 6v2h-4v2h4v2l3-3m-9 1V8H4V6L1 9l3 3v-2m3.5-6.5h3V7H12V3.5h3V2H3v1.5h3V7h1.5m3 7.5h-3V11H6v3.5H3V16h12v-1.5h-3V11h-1.5" />
    </symbol>
    <symbol id="display-header">
      <path fill="currentColor" d="M.75.5h16.5v17H.75m1.5-12H.75V7h1.5v1.5H.75V10h1.5v1.5H.75V13h1.5v1.5H.75V16h1.5v1.5h1.5V16h1.5v1.5h1.5V16h1.5v1.5h1.5V16h1.5v1.5h1.5V16h1.5v1.5h1.5V16h1.5v-1.5h-1.5V13h1.5v-1.5h-1.5V10h1.5V8.5h-1.5V7h1.5V5.5M2.75 2.25v1.5h2v-1.5m2.5 0v1.5h7v-1.5" />
    </symbol>
    <symbol id="cog" viewBox="0 0 16 16">
      <path d="M8 4.754a3.246 3.246 0 1 0 0 6.492 3.246 3.246 0 0 0 0-6.492zM5.754 8a2.246 2.246 0 1 1 4.492 0 2.246 2.246 0 0 1-4.492 0z" />
      <path d="M9.796 1.343c-.527-1.79-3.065-1.79-3.592 0l-.094.319a.873.873 0 0 1-1.255.52l-.292-.16c-1.64-.892-3.433.902-2.54 2.541l.159.292a.873.873 0 0 1-.52 1.255l-.319.094c-1.79.527-1.79 3.065 0 3.592l.319.094a.873.873 0 0 1 .52 1.255l-.16.292c-.892 1.64.901 3.434 2.541 2.54l.292-.159a.873.873 0 0 1 1.255.52l.094.319c.527 1.79 3.065 1.79 3.592 0l.094-.319a.873.873 0 0 1 1.255-.52l.292.16c1.64.893 3.434-.902 2.54-2.541l-.159-.292a.873.873 0 0 1 .52-1.255l.319-.094c1.79-.527 1.79-3.065 0-3.592l-.319-.094a.873.873 0 0 1-.52-1.255l.16-.292c.893-1.64-.902-3.433-2.541-2.54l-.292.159a.873.873 0 0 1-1.255-.52l-.094-.319zm-2.633.283c.246-.835 1.428-.835 1.674 0l.094.319a1.873 1.873 0 0 0 2.693 1.115l.291-.16c.764-.415 1.6.42 1.184 1.185l-.159.292a1.873 1.873 0 0 0 1.116 2.692l.318.094c.835.246.835 1.428 0 1.674l-.319.094a1.873 1.873 0 0 0-1.115 2.693l.16.291c.415.764-.42 1.6-1.185 1.184l-.291-.159a1.873 1.873 0 0 0-2.693 1.116l-.094.318c-.246.835-1.428.835-1.674 0l-.094-.319a1.873 1.873 0 0 0-2.692-1.115l-.292.16c-.764.415-1.6-.42-1.184-1.185l.159-.291A1.873 1.873 0 0 0 1.945 8.93l-.319-.094c-.835-.246-.835-1.428 0-1.674l.319-.094A1.873 1.873 0 0 0 3.06 4.377l-.16-.292c-.415-.764.42-1.6 1.185-1.184l.292.159a1.873 1.873 0 0 0 2.692-1.115l.094-.319z" />
    </symbol>
    <symbol id="plus-in-box" style="fill:none;stroke-linecap:round;stroke-linejoin:round;stroke-width:1.5">
      <path stroke="currentColor" d="M1.5,1.5h15v15h-15v-15M9,5v8M5,9h8" />
    </symbol>
    <symbol id="group-rows">
      <path fill="currentColor" d="M6 2.5A1.5 1.5 0 0 1 7.5 1H16a1.5 1.5 0 0 1 1.5 1.5V15a1.5 1.5 0 0 1-1.5 1.5H7.5A1.5 1.5 0 0 1 6 15M7.5 2.5v2H16v-2M7.5 6v2H16V6M7.5 9.5v2H16v-2M7.5 13v2H16v-2M2 5.75V13h3v-1.5H3.5V5.75h1.25V3l-1 1v.75H3M.25 1.25v4.5h4.5v-4.5m-3.5 1h2.5v2.5h-2.5" />
    </symbol>
    <symbol id="ungroup-rows">
      <path fill="currentColor" d="M6 2.5A1.5 1.5 0 0 1 7.5 1H16a1.5 1.5 0 0 1 1.5 1.5V15a1.5 1.5 0 0 1-1.5 1.5H7.5A1.5 1.5 0 0 1 6 15M7.5 2.5v2H16v-2M7.5 6v2H16V6M7.5 9.5v2H16v-2M7.5 13v2H16v-2M2 5.75V13h3v-1.5H3.5V5.75M0 5.25.75 6l2-2 2 2 .75-.75-2-2 2-2L4.75.5l-2 2-2-2-.75.75 2 2" />
    </symbol>
    <symbol id="group-columns">
      <path fill="currentColor" d="M2.75 6a1.5 1.5 0 0 0-1.5 1.5V16a1.5 1.5 0 0 0 1.5 1.5h12.5a1.5 1.5 0 0 0 1.5-1.5V7.5a1.5 1.5 0 0 0-1.5-1.5M2.75 7.5h2V16h-2m3.5-8.5h2V16h-2m3.5-8.5h2V16h-2m3.5-8.5h2V16h-2M6 2h7.25v3h-1.5V3.5H6v1.25H3.25l1-1H5V3M1.5.25H6v4.5H1.5m1-3.5v2.5H5v-2.5" />
    </symbol>
    <symbol id="ungroup-columns">
      <path fill="currentColor" d="M2.75 6a1.5 1.5 0 0 0-1.5 1.5V16a1.5 1.5 0 0 0 1.5 1.5h12.5a1.5 1.5 0 0 0 1.5-1.5V7.5a1.5 1.5 0 0 0-1.5-1.5M2.75 7.5h2V16h-2m3.5-8.5h2V16h-2m3.5-8.5h2V16h-2m3.5-8.5h2V16h-2M6 2h7.25v3h-1.5V3.5H6M5.5 0l.75.75-2 2 2 2-.75.75-2-2-2 2-.75-.75 2-2-2-2L1.5 0l2 2" />
    </symbol>
    <symbol id="data-validation">
      <path fill="currentColor" d="M.5 2A1.5 1.5 0 0 1 2 .5h14A1.5 1.5 0 0 1 17.5 2v7H11V7H7v4s-.5 0-1.5 1h-1v5h-3a1.5 1.5 0 0 1-1-1M6 6V2H2v4m9 0V2H7v4m9 0V2h-4v4m-6 5V7H2v4m14-2V7h-4v2m-7.5 6.5V12H2v3.5" />
      <path stroke="currentColor" style="fill:none; stroke-linecap:round; stroke-width:1.5" d="M8,13 l3 3 l6 -5" />
    </symbol>
    <symbol id="thin-drag-handle" viewBox="0 0 4 16">
      <circle cx="2" cy="3.5" r="1" />
      <circle cx="2" cy="6.5" r="1" />
      <circle cx="2" cy="9.5" r="1" />
      <circle cx="2" cy="12.5" r="1" />
    </symbol>
    <symbol id="insert-pivot">
      <defs>
        <mask id="a">
          <path fill="#fff" d="M0 0h18v18H0z" />
          <path d="M18 26a3.5 3 0 0 1 0-18" />
        </mask>
      </defs>
      <path fill="currentColor" d="M17 2v14H1V6h4V2h12m-1 1H6v3h10M2 7v2h3V7m-3 3v2h3v-2m-3 3v2h3v-2m1-6v2h6V7m-6 3v2h6v-2m-6 3v2h6v-2m1-6v2h3V7m-3 3v2h3v-2m-3 3v2h3v-2" mask="url(#a)" />
      <path fill="currentColor" d="M13 13v-3a.75.5 0 0 1 1.5 0v3h3a.5.75 0 0 1 0 1.5h-3v3a.75.5 0 0 1-1.5 0v-3h-3a.5.75 0 0 1 0-1.5" />
    </symbol>
    <symbol id="new">
      <path fill="currentColor" d="M14 15H4V3h6v3h4M4 1.5A1.5 1.5 0 0 0 2.5 3v12a1.5 1.5 0 0 0 1.4 1.5h10a1.5 1.5 0 0 0 1.5-1.5V5l-3.5-3.5" />
    </symbol>
    <symbol id="copy-file">
      <path fill="currentColor" d="M15 15v1.5H3.5c-1 0-1 0-1-1V3H4v11c0 1 0 1 1 1h10m-1-9v5.5c0 1 0 1-1 1H7.5c-1 0-1 0-1-1v-8c0-1 0-1 1-1H11V6h3M6 1S5 1 5 2v11c0 1 1 1 1 1h8.5c1 0 1 0 1-1V4L12 1" />
    </symbol>
    <symbol id="save">
      <path fill="currentColor" d="M3.5 1.5A1.5 1.5 0 0 0 2 3v12a1.5 1.5 0 0 0 1.5 1.5H14a1.5 1.5 0 0 0 1.5-1.5V5s0-.5-.4-.8l-2.6-2.3s-.5-.4-1.5-.4m-5.5 6a1 1 0 0 1-1-1V3h7v3.5a1 1 0 0 1-1 1M9 4.5a.75.75 0 0 1 1.5 0V6A.75.75 0 0 1 9 6m5 8.5H3.5v-5H14m-9 1h7.5v1H5m0 1h7.5v1H5" />
    </symbol>
    <symbol id="version-history">
      <path fill="currentColor" d="M9.5,2 C5.5,2 2.5,5 2.8,9 l-1,-1 L0.5,9 l3,3 3,-3 -1,-1 -1,1 C4.5,6 6.5,3.5 9.5,3.5 c3,0 5.5,2.5 5.5,5.5 s-2.5,5.5 -5.5,5.5            c-2,0 -3.5,-1 -4.5,-2.5 l-1,1 C5.5,15 7.5,16 9.5,16 c4,0 7,-3 7,-7 s-3,-7 -7,-7 M8.5,5 v4 l3,3 1,-1 L10,8.5 V5         " />
    </symbol>
    <symbol id="camera">
      <path fill="currentColor" d="M1 5.5A1.5 1.5 0 0 1 2.5 4H5l1-2h6l1 2h2.5A1.5 1.5 0 0 1 17 5.5v8a1.5 1.5 0 0 1-1.5 1.5h-13A1.5 1.5 0 0 1 1 13.5m1.5-8v8h13v-8H12l-1-2H7l-1 2m6.5 1.75a1.25 1.25 0 0 0 2.5 0 1.25 1.25 0 0 0-2.5 0M6 10a3 3 0 0 0 6 0 3 3 0 0 0-6 0h1a2 2 0 0 1 4 0 2 2 0 0 1-4 0" />
    </symbol>
    <symbol id="download-as-json">
      <path d="M0 1a1 1 0 0 1 1-1h7a1 1 0 0 1 1 1v7a1 1 0 0 1-1 1H1a1 1 0 0 1-1-1m4-4V1H1v3m7 0V1H5v3M4 8V5H1v3m7 0V5H5v3m-3.5 2h2v4h3v-1.5l3 2.5-3 2.5V16h-5m11.938 1.29a.775.775 0 0 1-.012.148.254.254 0 0 1-.04.097.157.157 0 0 1-.058.055.126.126 0 0 1-.07.023.84.84 0 0 1-.18.024c-.05 0-.113.004-.187.004a1.47 1.47 0 0 1-.63-.118.925.925 0 0 1-.39-.343 1.533 1.533 0 0 1-.195-.57 6.362 6.362 0 0 1-.051-.915V14.59c0-.246-.016-.442-.047-.594a1.318 1.318 0 0 0-.152-.394.863.863 0 0 0-.258-.274.807.807 0 0 0-.379-.125.247.247 0 0 1-.086-.031.123.123 0 0 1-.055-.055.41.41 0 0 1-.03-.097.801.801 0 0 1-.013-.145c0-.059.004-.105.008-.145a.287.287 0 0 1 .032-.097.127.127 0 0 1 .05-.059.458.458 0 0 1 .086-.027.796.796 0 0 0 .637-.383c.137-.226.207-.562.207-1.008v-.863c0-.379.02-.68.055-.91a1.51 1.51 0 0 1 .199-.574.922.922 0 0 1 .39-.344c.165-.078.372-.117.622-.117.074 0 .132 0 .18.004.05 0 .109.007.175.023.027 0 .055.004.078.02a.167.167 0 0 1 .063.054.306.306 0 0 1 .039.102.76.76 0 0 1 .011.144.88.88 0 0 1-.011.157.344.344 0 0 1-.04.101.112.112 0 0 1-.062.059.182.182 0 0 1-.082.02l-.234.003a.552.552 0 0 0-.238.047.335.335 0 0 0-.157.176c-.039.086-.07.207-.09.363a5.29 5.29 0 0 0-.03.707v.785c0 .262-.016.485-.048.668a1.612 1.612 0 0 1-.164.496 1.221 1.221 0 0 1-.312.38c-.13.105-.293.179-.492.218.199.035.363.105.492.21.129.106.234.235.312.384.078.148.133.312.164.496.032.183.047.406.047.672v1.02c0 .316.008.55.028.702.02.157.046.278.09.364a.34.34 0 0 0 .152.18.46.46 0 0 0 .226.05l.242.004a.21.21 0 0 1 .09.016.13.13 0 0 1 .067.058.306.306 0 0 1 .039.102.85.85 0 0 1 .011.156m3.874-4.427c0 .059 0 .106-.007.145a.266.266 0 0 1-.028.097.132.132 0 0 1-.054.06.252.252 0 0 1-.082.023.701.701 0 0 0-.399.156c-.11.094-.195.21-.262.351a1.799 1.799 0 0 0-.14.485 4.39 4.39 0 0 0-.04.652v.863c0 .375-.019.68-.058.907a1.6 1.6 0 0 1-.199.574.908.908 0 0 1-.39.347 1.438 1.438 0 0 1-.618.118c-.074 0-.133-.004-.183-.008-.051-.004-.114-.008-.192-.02a.138.138 0 0 1-.074-.023.147.147 0 0 1-.055-.055.33.33 0 0 1-.043-.098.54.54 0 0 1-.015-.148.59.59 0 0 1 .015-.152.659.659 0 0 1 .043-.106.176.176 0 0 1 .063-.058.159.159 0 0 1 .074-.016l.246-.004c.09 0 .168-.015.234-.05a.356.356 0 0 0 .16-.176c.044-.086.075-.207.094-.36.02-.156.028-.39.028-.71v-.782c0-.266.015-.504.047-.71.035-.208.09-.403.164-.58.078-.179.18-.335.312-.464a.957.957 0 0 1 .492-.25 1.486 1.486 0 0 1-.492-.172.923.923 0 0 1-.312-.3 1.312 1.312 0 0 1-.164-.415 3.402 3.402 0 0 1-.047-.632v-1.024c0-.316-.008-.555-.028-.703a1.364 1.364 0 0 0-.09-.363.378.378 0 0 0-.156-.18.498.498 0 0 0-.226-.047l-.227-.004a.267.267 0 0 1-.105-.02.13.13 0 0 1-.075-.054.263.263 0 0 1-.039-.102.896.896 0 0 1 .004-.304.306.306 0 0 1 .04-.102.167.167 0 0 1 .062-.054.161.161 0 0 1 .09-.02.722.722 0 0 1 .172-.023c.05-.004.109-.004.183-.004.25 0 .461.039.625.117a.869.869 0 0 1 .387.344c.098.148.164.34.2.57.034.23.054.535.054.914v1.105c0 .243.015.426.047.551a.842.842 0 0 0 .148.309c.07.082.156.144.258.191.105.043.234.074.383.094a.18.18 0 0 1 .082.02c.02.015.039.035.054.062a.24.24 0 0 1 .032.098.76.76 0 0 1 .008.14m0 0" />
    </symbol>
    <symbol id="add-to-dashboard">
      <path fill="currentColor" d="M13 2.07A8 8 0 1 0 9 17v-2a6 6 0 1 1 3-11.2M17 9a8 8 0 0 0-1.07-4L14.2 6a6 6 0 0 1 .8 3m-5-1.73a2 2 0 1 0 .73.73l5.5-5.5-.6-.6M9.3 3.8a.6.6 0 1 1-.01-.01m1.81.51a.6.6 0 1 1-.01-.01M7.5 4.3a.6.6 0 1 1-.01-.01M5.9 5.4a.6.6 0 1 1-.01-.01M4.8 6.9a.6.6 0 1 1-.01-.01m8.71.61a.6.6 0 1 0-.01 0M13 13v-3a.75.5 0 0 1 1.5 0v3h3a.5.75 0 0 1 0 1.5h-3v3a.75.5 0 0 1-1.5 0v-3h-3a.5.75 0 0 1 0-1.5" />
    </symbol>
    <symbol id="odoo-list">
      <path fill="currentColor" d="M2 3a1 1 0 0 1 0-2 1 1 0 0 1 0 2m0 0a1 1 0 0 1 0-2h14a1 1 0 0 1 0 2M2 7a1 1 0 0 1 0-2h14a1 1 0 0 1 0 2M2 11a1 1 0 0 1 0-2h14a1 1 0 0 1 0 2M2 15a1 1 0 0 1 0-2h14a1 1 0 0 1 0 2" />
    </symbol>
    <symbol id="insert-list">
      <path fill="currentColor" d="M2 3a1 1 0 0 1 0-2h14a1 1 0 0 1 0 2M2 7a1 1 0 0 1 0-2h14a1 1 0 0 1 0 2M2 11a1 1 0 0 1 0-2h9a1 1 0 0 1 0 2m-9 4a1 1 0 0 1 0-2h5.5a1 1 0 0 1 0 2m5.5-2v-3a.75.5 0 0 1 1.5 0v3h3a.5.75 0 0 1 0 1.5h-3v3a.75.5 0 0 1-1.5 0v-3h-3a.5.75 0 0 1 0-1.5" />
    </symbol>
    <symbol id="refresh-data">
      <path fill="currentColor" d="M10 1.5C6 1.5 2.5 5 2.5 9H0l4 5 3.5-5h-2c0-2.5 2-4.5 4.5-4.5 3 0 5 2 5 5 0 2.5-2 5-5 5-1.5 0-2.5-1-3.5-1.5L5 15c1 1.5 3 2.5 5 2.5 4.5 0 8-4 8-8 0-4.5-3.5-8-8-8" />
    </symbol>
  </defs>
</svg>
