<svg xmlns="http://www.w3.org/2000/svg" width="63.262" height="64.011" viewBox="0 0 63.262 64.011">
  <defs>
    <style>
      .cls-1, .cls-2 {
        fill: none;
      }

      .cls-2 {
        stroke: #603c5e;
        stroke-linecap: round;
        stroke-linejoin: round;
        stroke-width: 4px;
      }
    </style>
  </defs>
  <g id="odoo-apps" transform="translate(-22.439 1.042)">
    <rect id="Rectangle_590" data-name="Rectangle 590" class="cls-1" width="60" height="60" transform="translate(24.439 0.969)"/>
    <g id="Apps" transform="translate(24.439 0.969)">
      <g id="Group_939" data-name="Group 939" transform="translate(7.661)">
        <path id="Path_529" data-name="Path 529" class="cls-2" d="M15.187,20.57l18.89-10.3a2.249,2.249,0,0,1,3.05.9l10.3,18.89a2.249,2.249,0,0,1-.9,3.05l-12.26,6.682-6.628,3.614a2.249,2.249,0,0,1-3.05-.9l-10.3-18.888A2.251,2.251,0,0,1,15.187,20.57Z" transform="translate(-14.015 -10)"/>
        <g id="Group_938" data-name="Group 938" transform="translate(12.801 10.001)">
          <path id="Path_530" data-name="Path 530" class="cls-2" d="M22.12,32.159,20.415,15,34.394,25.468" transform="translate(-20.415 -15)"/>
          <line id="Line_112" data-name="Line 112" class="cls-2" y1="3.721" x2="6.827" transform="translate(2.528 8.466)"/>
        </g>
      </g>
      <g id="Group_941" data-name="Group 941" transform="translate(0 33.763)">
        <rect id="Rectangle_644" data-name="Rectangle 644" class="cls-2" width="26.009" height="26.009" rx="1.124"/>
        <g id="Group_940" data-name="Group 940" transform="translate(7.675 5.001)">
          <line id="Line_113" data-name="Line 113" class="cls-2" y2="15.789" transform="translate(0 0.218)"/>
          <path id="Path_531" data-name="Path 531" class="cls-2" d="M14.115,29.382h5.276a3.607,3.607,0,0,1,0,7.214h-4.9" transform="translate(-13.929 -29.382)"/>
          <path id="Path_532" data-name="Path 532" class="cls-2" d="M14.419,33h5.646a4.378,4.378,0,1,1,0,8.756h-5.8" transform="translate(-13.783 -25.768)"/>
        </g>
      </g>
      <g id="Group_942" data-name="Group 942" transform="translate(33.252 33.991)">
        <rect id="Rectangle_645" data-name="Rectangle 645" class="cls-2" width="26.009" height="26.009" rx="1.124"/>
        <path id="Path_533" data-name="Path 533" class="cls-2" d="M43.687,32.025A8,8,0,1,0,43.7,42.951" transform="translate(-23.773 -24.494)"/>
      </g>
    </g>
  </g>
</svg>
