<?xml version="1.0" encoding="utf-8"?>
<!-- Generator: Adobe Illustrator 24.3.0, SVG Export Plug-In . SVG Version: 6.00 Build 0)  -->
<svg version="1.1" id="Layer_1" xmlns="http://www.w3.org/2000/svg" xmlns:xlink="http://www.w3.org/1999/xlink" x="0px" y="0px"
	 viewBox="0 0 30 30" style="enable-background:new 0 0 30 30;" xml:space="preserve">
<style type="text/css">
	.st0{fill:#603c5e;}
</style>
<g>
	<path class="st0" d="M28.5,16.5l-0.7,0.5v-4.3l1.7-1.2c0.4-0.3,0.5-0.9,0.2-1.3c-0.1-0.1-0.2-0.2-0.4-0.3l-5.9-2.9
		c-0.5-0.2-1,0-1.3,0.4c-0.2,0.5,0,1,0.4,1.3l0,0l4.5,2.2l-12.6,8.7c-0.1,0-0.1,0-0.2,0l-9.9-5.4c-0.3-0.2-0.6-0.2-0.9,0
		c-0.3,0.2-0.5,0.5-0.5,0.8v3.4c0,0.5,0.4,0.9,0.9,0.9c0.5,0,0.9-0.4,0.9-0.9v-1.8l8.6,4.7c0.3,0.1,0.6,0.2,0.9,0.2
		c0.3,0,0.6-0.1,0.9-0.2l0.1-0.1L25.9,14v4.2l-11.2,7.6l0.5,0.8l-0.6-0.8l-2.1-1.2v-2.8c0-0.3-0.2-0.7-0.5-0.8l-3.9-2.2
		c-0.5-0.3-1-0.1-1.3,0.4c-0.1,0.1-0.1,0.3-0.1,0.5v2.1l-3.9-2.3c-0.6-0.4-1-1-0.9-1.7v-2.9c0-0.7,0.3-1.4,0.9-1.8l4.5-2.8
		c0.4-0.3,0.6-0.8,0.3-1.3C7.4,8.4,6.8,8.2,6.4,8.5c0,0,0,0,0,0l-4.5,2.8C0.7,12,0,13.3,0,14.7v2.9c0,1.4,0.7,2.6,1.8,3.4l4.8,2.8
		h0.1v3c0,0.3,0.1,0.5,0.3,0.7c0.2,0.2,0.5,0.3,0.8,0.2l1.4-0.2l1.6,2.1c0.2,0.2,0.5,0.4,0.7,0.4c0.1,0,0.2,0,0.3,0
		c0.4-0.1,0.6-0.5,0.6-0.9v-2.2l1.1,0.7c0.3,0.2,0.7,0.3,1.1,0.3c0.4,0,0.8-0.1,1.1-0.3L29.6,18c0.4-0.3,0.5-0.9,0.3-1.3
		C29.5,16.3,29,16.2,28.5,16.5L28.5,16.5z M10.7,26.2l-0.3-0.4c-0.2-0.2-0.5-0.4-0.7-0.4H9.5l-0.9,0.1v-4.5l2.1,1.2V26.2z"/>
	<path class="st0" d="M16.6,13.8h4.2c0.5,0,0.9-0.4,0.9-0.9V8.6c0-0.5-0.4-0.9-0.9-0.9h-4.2c-0.5,0-0.9,0.4-0.9,0.9v4.2
		C15.7,13.3,16.1,13.8,16.6,13.8z M17.6,9.5h2.3v2.3h-2.3V9.5z"/>
	<path class="st0" d="M16.6,6.3h4.2c0.5,0,0.9-0.4,0.9-0.9V1.1c0-0.5-0.4-0.9-0.9-0.9h-4.2c-0.5,0-0.9,0.4-0.9,0.9v4.2
		C15.7,5.8,16.1,6.3,16.6,6.3z M17.6,2h2.3v2.3h-2.3V2z"/>
	<path class="st0" d="M9.1,13.8h4.2c0.5,0,0.9-0.4,0.9-0.9V8.7c0-0.5-0.4-0.9-0.9-0.9H9.1c-0.5,0-0.9,0.4-0.9,0.9v4.2
		C8.2,13.3,8.6,13.8,9.1,13.8z M10.1,9.6h2.3v2.3h-2.3V9.6z"/>
	<path class="st0" d="M9.1,6.3h4.2c0.5,0,0.9-0.4,0.9-0.9V1.1c0-0.5-0.4-0.9-0.9-0.9H9.1c-0.5,0-0.9,0.4-0.9,0.9v4.2
		C8.2,5.8,8.6,6.3,9.1,6.3z M10.1,2h2.3v2.3h-2.3V2z"/>
</g>
</svg>
