<?xml version="1.0" encoding="utf-8"?>
<!-- Generator: Adobe Illustrator 24.3.0, SVG Export Plug-In . SVG Version: 6.00 Build 0)  -->
<svg version="1.1" id="Layer_1" xmlns="http://www.w3.org/2000/svg" xmlns:xlink="http://www.w3.org/1999/xlink" x="0px" y="0px"
	 viewBox="0 0 30 30" style="enable-background:new 0 0 30 30;" xml:space="preserve">
<style type="text/css">
	.st0{fill:#603c5e;}
</style>
<g>
	<path class="st0" d="M28.4,16.8l-0.7,0.4V13l1.7-1.2c0.3-0.2,0.4-0.5,0.4-0.9c0-0.3-0.2-0.6-0.5-0.8l-6.7-3.1c-0.5-0.2-1,0-1.2,0.5
		c-0.2,0.5,0,1,0.4,1.2l5.2,2.5l-12.4,8.6c0,0-0.1,0-0.1,0l-9.8-5.4c-0.3-0.2-0.6-0.2-0.9,0c-0.3,0.2-0.5,0.5-0.5,0.8v3.3
		c0,0.5,0.4,0.9,0.9,0.9s0.9-0.4,0.9-0.9v-1.7l8.4,4.6c0.6,0.3,1.3,0.3,1.9,0l0.1-0.1l10.3-7.1v4.2l-11,7.4l0.5,0.8l-0.6-0.8
		l-2.1-1.2V22c0-0.3-0.2-0.6-0.5-0.8L8.2,19c-0.4-0.3-1-0.1-1.3,0.3c-0.1,0.1-0.1,0.3-0.1,0.5v2l-3.9-2.2c-0.6-0.4-0.9-1-0.9-1.7V15
		c0-0.7,0.3-1.3,0.9-1.7l5.2-3.1c0.4-0.3,0.6-0.8,0.3-1.3c0,0,0,0,0,0C8.2,8.4,7.6,8.3,7.2,8.6l-5.2,3.1c-1.1,0.7-1.8,2-1.8,3.4v2.8
		c0,1.3,0.7,2.6,1.8,3.3l4.8,2.7h0.1v3c0,0.5,0.4,0.9,0.9,1c0.1,0,0.1,0,0.2,0l1.4-0.2l1.6,2.1c0.2,0.2,0.5,0.4,0.7,0.4
		c0.1,0,0.2,0,0.3,0c0.4-0.1,0.7-0.5,0.6-0.9v-2.2l1.1,0.6c0.3,0.2,0.7,0.3,1.1,0.3c0.4,0,0.8-0.1,1.1-0.3l13.6-9.2
		c0.4-0.3,0.5-0.9,0.1-1.3C29.3,16.6,28.8,16.5,28.4,16.8z M10.7,26.3L10.5,26c-0.2-0.2-0.5-0.4-0.7-0.4H9.6l-0.9,0.1v-4.4l2,1.1
		V26.3z"/>
	<path class="st0" d="M15.2,7.7C17.3,7.7,19,6,19,3.8c0-2.1-1.7-3.8-3.8-3.8c-2.1,0-3.8,1.7-3.8,3.8c0,0,0,0,0,0
		C11.4,6,13.1,7.7,15.2,7.7z M15.2,1.9c1.1,0,2,0.9,2,1.9s-0.9,2-1.9,2c-1.1,0-2-0.9-2-1.9c0,0,0,0,0,0C13.3,2.8,14.1,1.9,15.2,1.9z
		"/>
	<path class="st0" d="M8.9,13.6c0.1,0.1,2,1.9,6.3,1.9s6.2-1.9,6.3-1.9c0.2-0.2,0.3-0.4,0.3-0.7c0-2.2-1.1-4.3-3-5.5
		c-0.4-0.3-1-0.3-1.3,0.1c-0.3,0.4-0.3,1,0.1,1.3c0.1,0,0.1,0.1,0.2,0.1c1.2,0.8,2,2.1,2.1,3.5c-1.4,0.8-3,1.2-4.7,1.2
		c-1.6,0.1-3.3-0.3-4.7-1.2c0.1-1.4,0.9-2.7,2.1-3.5c0.4-0.3,0.5-0.9,0.2-1.3c-0.3-0.4-0.8-0.5-1.2-0.3c-1.9,1.2-3,3.3-3,5.5
		C8.7,13.2,8.7,13.4,8.9,13.6z"/>
</g>
</svg>
