<?xml version="1.0" encoding="utf-8"?>
<!-- Generator: Adobe Illustrator 24.3.0, SVG Export Plug-In . SVG Version: 6.00 Build 0)  -->
<svg version="1.1" id="Layer_1" xmlns="http://www.w3.org/2000/svg" xmlns:xlink="http://www.w3.org/1999/xlink" x="0px" y="0px"
	 viewBox="0 0 30 30" style="enable-background:new 0 0 30 30;" xml:space="preserve">
<style type="text/css">
	.st0{fill:#603c5e;}
</style>
<g>
	<path class="st0" d="M6.4,15.2l2,1.2c0.1,0.1,0.3,0.1,0.5,0.1c0.5,0,0.9-0.4,0.9-0.9c0-0.3-0.2-0.6-0.4-0.8l-1.6-0.9l0-3.3
		c0-0.4,0.2-0.9,0.5-1.1l10.1-5.9c0.4-0.2,0.8-0.2,1.1,0l7.4,4.1L16.9,14l-7.2-4c-0.3-0.2-0.7-0.1-0.9,0.1c-0.5,0.3-0.5,0.6-0.4,3.1
		c0,0.5,0.5,0.9,1,0.9c0.5,0,0.9-0.5,0.9-1l0,0c0-0.2,0-0.4,0-0.6l5.9,3.3l0.1,0c0.5,0.2,1.2,0.2,1.7-0.1l8.4-5.3v2.9l-7.1,4.3
		c-0.4,0.3-0.6,0.8-0.3,1.3c0.2,0.3,0.5,0.5,0.8,0.5c0.2,0,0.3,0,0.5-0.1l9.1-5.6c0.4-0.3,0.6-0.8,0.3-1.3c-0.3-0.4-0.8-0.6-1.3-0.3
		c0,0,0,0,0,0l-0.1,0.1V9.4c0,0,0-0.1,0-0.1l1.1-0.7c0.3-0.2,0.4-0.5,0.4-0.8c0-0.3-0.2-0.6-0.5-0.8L20.5,2c0,0-0.1,0-0.1-0.1
		c-0.9-0.4-1.9-0.3-2.7,0.1L7.4,7.9c-0.9,0.6-1.5,1.6-1.4,2.8L6,14.4C6,14.7,6.1,15,6.4,15.2z"/>
	<path class="st0" d="M28.8,20.5c-0.7-0.3-1.4-0.4-2.2-0.3c-1.2,0.3-2.6,0.7-4,1.1c-1.2,0.4-2.2,0.7-3.2,0.9
		c-0.9-0.1-1.8-0.3-2.6-0.8c0.4-0.1,0.7-0.3,1-0.6c0.4-0.3,0.6-0.7,0.7-1.2c0-0.6-0.2-1.2-0.6-1.6c-0.4-0.4-0.8-0.6-1.3-0.7
		c-1.2-0.2-2.5-0.3-3.7-0.4c-0.7,0-1.1-0.1-1.6-0.1c-0.8-0.1-1.5-0.1-2.3,0c-1,0.3-1.9,0.7-2.7,1.2c-0.4,0.2-0.8,0.4-1.1,0.6
		C4.9,19,4.7,19.5,4.9,20c0.2,0.5,0.8,0.7,1.2,0.5c0.3-0.1,0.8-0.4,1.2-0.6c0.7-0.4,1.4-0.7,2.1-1c0.6-0.1,1.2-0.1,1.8,0
		c0.4,0,1,0.1,1.7,0.1c1.2,0.1,2.3,0.2,3.4,0.4c0.1,0,0.2,0.1,0.3,0.2c0,0,0,0.1,0.1,0.1c0,0-0.1,0-0.1,0.1
		c-0.2,0.1-0.4,0.2-0.6,0.3c-0.3,0.1-0.7,0.2-1.1,0.3c-0.3,0.1-0.7,0.2-1,0.3c-0.4,0.1-0.6,0.5-0.6,0.8c0,0.4,0.2,0.8,0.6,0.9
		c4.4,2.3,5.6,2,6,1.9c1-0.2,2.2-0.6,3.3-0.9c1.3-0.4,2.7-0.9,3.8-1.1c0.3-0.1,0.6,0,0.9,0.1c0.1,0.1,0.1,0.1,0.1,0.1
		c0,0-0.1,0.1-0.1,0.1c-0.3,0.1-0.6,0.3-0.9,0.4l-3.6,1.3l-3.6,1.3c-1.7,0.6-3.6,0.7-5.4,0.4L9.3,25c-1.8-0.2-3.5-0.4-5.3-0.4v-6.7
		c0-0.5-0.4-0.9-0.9-0.9s-0.9,0.4-0.9,0.9v8.7H0.9c-0.5,0-0.9,0.4-0.9,0.9s0.4,0.9,0.9,0.9h1.2c1,0,1.9-0.8,1.9-1.9v-0.1
		c1.5,0.1,4.6,0.3,5,0.4l5.2,0.9c0.8,0.1,1.6,0.2,2.5,0.2c1.3,0,2.7-0.2,3.9-0.7l3.6-1.3l3.6-1.3c0.4-0.1,0.8-0.3,1.2-0.5
		c0.7-0.3,1.1-1,1.1-1.8C30,21.6,29.5,20.9,28.8,20.5z"/>
	<path class="st0" d="M13.6,9.1c-0.5-0.3-1-0.1-1.3,0.4s-0.1,1,0.4,1.3l3.1,1.7c0.1,0.1,0.3,0.1,0.4,0.1c0.5,0,1-0.4,1-0.9
		c0-0.4-0.2-0.7-0.5-0.9l-0.2-0.1l2-1.3c0.4-0.3,0.6-0.8,0.3-1.3c-0.1-0.1-0.2-0.3-0.4-0.3L17.3,7c-0.5-0.2-1-0.1-1.3,0.4
		c0,0,0,0,0,0c-0.2,0.4-0.1,0.9,0.3,1.2l-1.6,1L13.6,9.1z"/>
	<path class="st0" d="M20,8.1c0.2,0,0.4-0.1,0.5-0.1l0.6-0.4c0.4-0.3,0.6-0.9,0.3-1.3c-0.3-0.4-0.9-0.6-1.3-0.3c0,0,0,0,0,0
		l-0.6,0.4c-0.4,0.3-0.5,0.9-0.3,1.3C19.4,8,19.7,8.1,20,8.1z"/>
</g>
</svg>
