<?xml version="1.0" encoding="utf-8"?>
<!-- Generator: Adobe Illustrator 24.3.0, SVG Export Plug-In . SVG Version: 6.00 Build 0)  -->
<svg version="1.1" id="Layer_1" xmlns="http://www.w3.org/2000/svg" xmlns:xlink="http://www.w3.org/1999/xlink" x="0px" y="0px"
	 viewBox="0 0 30 30" style="enable-background:new 0 0 30 30;" xml:space="preserve">
<style type="text/css">
	.st0{fill:#603c5e;}
</style>
<g>
	<path class="st0" d="M29.1,10.5c0-1.5-0.1-3.1-0.4-4.6c-0.1-0.6-0.4-1.2-0.9-1.6c-0.4-0.3-0.9-0.4-1.4-0.3c-1,0.1-1.8,0.9-2,1.9
		c-0.1,0.3-0.1,0.6-0.1,0.9v5.6c-0.3,0.1-0.6,0.2-0.8,0.4c-0.4,0.3-0.7,0.6-1,0.9l-0.3,0.3c-0.4,0.4-0.8,0.8-1.2,1.2v-3.9
		c0-0.1,0-0.1,0-0.2V0.9c0-0.5-0.4-0.9-0.9-0.9h-9.3C9.5,0,8.4,1.1,8.4,2.5c0,0,0,0,0,0v10.6c0,0.1,0,0.2,0,0.3c0,1.7,1.4,3.1,3,3.1
		h8.3l-1.1,1c-0.2,0.2-0.4,0.4-0.7,0.6c-0.2,0.2-0.5,0.4-0.7,0.6c-1.4,1.2-2.1,2.9-2,4.7c0,0.4,0,0.9,0.1,1.3l0.1,0.4v0.1
		c0,0.6,0,1.2-0.1,1.9c0,0.6,0,1.2-0.1,1.8c0,0.5,0.4,0.9,0.9,0.9h0c0.5,0,0.9-0.4,0.9-0.9c0-0.6,0-1.2,0.1-1.9s0-1.2,0.1-1.9v-0.3
		c0-0.2,0-0.3-0.1-0.5c-0.1-0.3-0.1-0.7-0.1-1c-0.1-1.2,0.4-2.4,1.3-3.2c0.2-0.2,0.4-0.4,0.7-0.6c0.2-0.2,0.5-0.4,0.8-0.6l1.9-1.8
		l1.8-1.8l0.3-0.3c0.2-0.3,0.5-0.5,0.7-0.7h0.1l0,0c0.1,0.2,0.1,0.4-0.1,0.6c-1.4,1.8-2.8,3.6-4.3,5.2c-0.4,0.4-0.4,1,0,1.3
		c0,0,0,0,0,0c0.4,0.4,1,0.4,1.3,0c1.6-1.7,3.1-3.5,4.5-5.3c0.6-0.6,0.7-1.5,0.4-2.3c-0.1-0.2-0.2-0.4-0.3-0.6c0,0,0-0.1,0-0.1V6.9
		c0-0.2,0-0.4,0-0.6V6.2c0-0.1,0.1-0.3,0.3-0.3h0.1l0,0c0.1,0.1,0.2,0.2,0.2,0.4c0.3,1.4,0.4,2.8,0.4,4.3c0,2.5-0.1,5-0.4,7.5
		c-0.1,0.8-0.5,1.5-1,2.1c-0.2,0.2-0.5,0.5-0.7,0.7l-3.1,2.8c-0.4,0.3-0.7,0.7-0.8,1.2c-0.1,0.5-0.2,1-0.2,1.5c0,0.5,0,0.9-0.1,1.4
		c-0.1,0.5,0,0.9-0.1,1.3c-0.1,0.5,0.3,1,0.8,1c0,0,0,0,0,0h0.1c0.5,0,0.9-0.4,0.9-0.9c0-0.5,0-0.9,0.1-1.4c0.1-0.4,0-0.9,0.1-1.4
		c0-0.4,0.1-0.8,0.2-1.1c0-0.1,0.1-0.1,0.2-0.2l3.1-2.8c0.3-0.2,0.6-0.5,0.9-0.8c0.9-0.9,1.4-2,1.5-3.2C29,15.7,29.2,13.1,29.1,10.5
		z M11,1.9h8.2v8.5h-7.7c-0.4,0-0.8,0.1-1.2,0.2V2.5C10.3,2.2,10.6,1.9,11,1.9C10.9,1.9,10.9,1.9,11,1.9z M19.2,14.6h-7.7
		c-0.7-0.1-1.1-0.6-1.1-1.3c0.1-0.6,0.5-1,1.1-1.1h7.7V14.6z"/>
	<path class="st0" d="M14.5,24.7c0.1-0.4,0.1-0.8,0.1-1.2c0.1-1.8-0.6-3.5-2-4.7c-0.2-0.2-0.5-0.4-0.7-0.6c-0.2-0.2-0.4-0.4-0.6-0.5
		l-1.8-1.7l-1.8-1.8l-0.3-0.3c-0.3-0.3-0.6-0.6-0.9-0.9c-0.2-0.2-0.5-0.3-0.8-0.4V6.9c0-0.3,0-0.6-0.1-0.9C5.5,4.9,4.7,4.2,3.7,4
		C3.2,4,2.7,4.1,2.2,4.4C1.7,4.8,1.4,5.3,1.3,5.9C1,7.4,0.8,9,0.9,10.5c0,2.6,0.1,5.2,0.4,7.8c0.1,1.2,0.7,2.3,1.5,3.2
		C3,21.7,3.3,22,3.6,22.2l3.2,2.9C6.9,25.1,7,25.2,7,25.3c0.1,0.4,0.2,0.7,0.2,1.1c0,0.4,0,0.9,0.1,1.3s0,0.9,0.1,1.4
		c0,0.5,0.4,0.9,0.9,0.9h0.1c0.5,0,0.9-0.5,0.9-1c0,0,0,0,0,0c0-0.4,0-0.9-0.1-1.3c0-0.4,0-0.9-0.1-1.3c0-0.5-0.1-1-0.3-1.5
		c-0.1-0.5-0.4-0.9-0.8-1.2l-3.2-2.8c-0.2-0.2-0.5-0.4-0.7-0.6c-0.6-0.6-0.9-1.3-1-2.1c-0.3-2.5-0.4-5-0.4-7.5
		c0-1.4,0.1-2.9,0.4-4.3c0-0.1,0.1-0.2,0.2-0.3h0.1c0.1,0,0.3,0.1,0.3,0.3v0.1c0,0.2,0,0.4,0,0.6v6.1c0,0,0,0,0,0.1
		c-0.2,0.2-0.3,0.5-0.4,0.7c-0.2,0.8-0.1,1.6,0.5,2.2c1.4,1.9,2.9,3.7,4.5,5.4c0.4,0.4,1,0.4,1.3,0c0.4-0.4,0.4-1,0-1.3l0,0
		c-1.6-1.7-3-3.4-4.4-5.3c-0.1-0.1-0.2-0.2,0-0.6l0.1,0.1c0.3,0.2,0.5,0.4,0.8,0.7l0.3,0.3l1.9,1.8l1.9,1.8c0.2,0.2,0.5,0.4,0.7,0.6
		c0.2,0.2,0.5,0.4,0.7,0.6c0.9,0.8,1.4,2,1.2,3.3c0,0.3-0.1,0.6-0.1,0.9c0,0.2,0,0.4-0.1,0.6v0.4c0,0.6,0,1.2,0.1,1.8
		c0,0.6,0,1.2,0.1,1.9c0,0.5,0.4,0.9,0.9,0.9h0c0.5,0,0.9-0.4,0.9-0.9c0-0.6,0-1.2-0.1-1.8s0-1.2-0.1-1.8v-0.2L14.5,24.7z"/>
	<path class="st0" d="M13.1,5.7H17c0.5,0,0.9-0.4,0.9-0.9S17.5,3.8,17,3.8h-3.9c-0.5,0-0.9,0.4-0.9,0.9S12.6,5.7,13.1,5.7z"/>
</g>
</svg>
