<?xml version="1.0" encoding="utf-8"?>
<!-- Generator: Adobe Illustrator 24.3.0, SVG Export Plug-In . SVG Version: 6.00 Build 0)  -->
<svg version="1.1" id="Layer_1" xmlns="http://www.w3.org/2000/svg" xmlns:xlink="http://www.w3.org/1999/xlink" x="0px" y="0px"
	 viewBox="0 0 21 19" style="enable-background:new 0 0 21 19;" xml:space="preserve">
<style type="text/css">
	.st0{enable-background:new    ;}
	.st1{fill:#D5D5D5;}
</style>
<g class="st0">
	<path class="st1" d="M13.6,12.1l1.4-1.4c0.3-0.3,0.7-0.1,0.7,0.3v5.5c0,0.9-0.8,1.7-1.7,1.7H1.7c-0.9,0-1.7-0.8-1.7-1.7V4.2
		c0-0.9,0.8-1.7,1.7-1.7h10c0.4,0,0.6,0.5,0.3,0.7l-1.4,1.4c-0.1,0.1-0.2,0.1-0.3,0.1H2.2V16h11.2v-3.6
		C13.5,12.3,13.5,12.2,13.6,12.1z M17.3,6.3c0.1,0.1,0.1,0.4,0,0.5l-7.7,7.7l-3.3,0.4c-0.4,0-0.8-0.3-0.8-0.8L6,10.9l7.7-7.7
		C13.8,3,14,3,14.2,3.2L17.3,6.3z M19.8,4.3l-1.2,1.2c-0.1,0.1-0.4,0.1-0.5,0l-3.2-3.2c-0.1-0.1-0.1-0.4,0-0.5l1.2-1.2
		c0.5-0.5,1.4-0.5,1.9,0l1.7,1.7C20.4,2.9,20.4,3.8,19.8,4.3z"/>
</g>
</svg>
