<svg xmlns="http://www.w3.org/2000/svg" width="63.987" height="62.065" viewBox="0 0 63.987 62.065">
  <defs>
    <style>
      .cls-1, .cls-2, .cls-3 {
        fill: none;
      }

      .cls-2, .cls-3 {
        stroke: #603c5e;
        stroke-linecap: round;
        stroke-width: 4px;
      }

      .cls-2 {
        stroke-linejoin: round;
      }
    </style>
  </defs>
  <g id="full-control" transform="translate(1.935 2.078)">
    <rect id="Rectangle_591" data-name="Rectangle 591" class="cls-1" width="59.983" height="59.987" transform="translate(0.083)"/>
    <g id="Getting_Started" data-name="Getting Started" transform="translate(0.065)">
      <g id="T6NwMf" transform="translate(4.521 34.253)">
        <g id="Group_934" data-name="Group 934">
          <path id="Path_519" data-name="Path 519" class="cls-2" d="M16.957,31.352c1.978-.908,5.883-3.405,7.642-3.657,2.889-.5,4.019.126,7.914.252,2.513.126,5.151.5,7.662.88a3.563,3.563,0,0,1,1.76,1,1.956,1.956,0,0,1-.126,3.015,5.062,5.062,0,0,1-2.01,1.006c-1.382.5-2.889.754-4.523,1.256.5.252,8.77,4.685,11.535,4.057,4.521-1.13,10.7-3.429,15.223-4.435a4.879,4.879,0,0,1,3.267.378,2.19,2.19,0,0,1,0,4.019,16.477,16.477,0,0,1-2.262.88c-5.151,1.886-10.176,3.769-15.327,5.653a23.767,23.767,0,0,1-12.563.88c-3.643-.628-7.41-1.256-11.054-1.884-1.258-.252-12.941-1.132-12.941-.88" transform="translate(-11.156 -27.503)"/>
        </g>
      </g>
      <path id="Path_520" data-name="Path 520" class="cls-3" d="M13.416,27.473V45.941a1.982,1.982,0,0,1-2.01,2.01H8.9" transform="translate(-8.895 6.72)"/>
      <g id="About_Odoo" data-name="About Odoo" transform="translate(12.081)">
        <path id="Path_521" data-name="Path 521" class="cls-2" d="M19.01,45.229a22.137,22.137,0,0,1-2.353-4.175,21.663,21.663,0,0,1-1.72-8.69,21.287,21.287,0,0,1,6.335-15.339,23.081,23.081,0,0,1,7.014-4.707,23.684,23.684,0,0,1,8.644-1.946" transform="translate(-14.937 -10.373)"/>
        <path id="Path_522" data-name="Path 522" class="cls-2" d="M25.936,10.373a20.253,20.253,0,0,1,8.372,1.764,23.043,23.043,0,0,1,6.922,4.753,22.8,22.8,0,0,1,4.751,6.968,21.53,21.53,0,0,1,.046,16.97,22.812,22.812,0,0,1-4.661,6.922q-.432.438-.884.848" transform="translate(-3.943 -10.373)"/>
        <path id="Path_523" data-name="Path 523" class="cls-2" d="M36.636,38.695a12.047,12.047,0,0,0,3.879-2.655,12.913,12.913,0,0,0,2.611-3.919,11.642,11.642,0,0,0,.97-4.679A12.461,12.461,0,0,0,32.043,15.3h-.086a12.078,12.078,0,0,0-4.677.928A11.867,11.867,0,0,0,23.4,18.8a12.515,12.515,0,0,0-2.611,3.835,12.076,12.076,0,0,0,0,9.484A12.877,12.877,0,0,0,23.4,36.039" transform="translate(-10.056 -5.446)"/>
      </g>
    </g>
  </g>
</svg>
