<svg xmlns="http://www.w3.org/2000/svg" width="64" height="60" viewBox="0 0 64 60">
  <defs>
    <style>
      .cls-1, .cls-2, .cls-3 {
        fill: none;
      }

      .cls-2, .cls-3 {
        stroke: #603c5e;
        stroke-linecap: round;
        stroke-linejoin: round;
        stroke-width: 4px;
      }

      .cls-2 {
        fill-rule: evenodd;
      }
    </style>
  </defs>
  <g id="install" transform="translate(2.466 -88.659)">
    <rect id="Rectangle_589" data-name="Rectangle 589" class="cls-1" width="60" height="60" transform="translate(-0.466 88.659)"/>
    <g id="Group_937" data-name="Group 937" transform="translate(-0.466 95.659)">
      <g id="Group_936" data-name="Group 936" transform="translate(8.094)">
        <g id="Group_917" data-name="Group 917">
          <path id="Path_524" data-name="Path 524" class="cls-2" d="M58.019,30.229a2.518,2.518,0,0,0-2.4-2.154l-3.564-.4a1.267,1.267,0,0,1-.85-2.05l2.238-2.8a2.521,2.521,0,0,0,.172-3.218c-.806-.806-1.41-1.41-2.014-2.016s-1.21-1.208-2.014-2.014a2.523,2.523,0,0,0-3.218.172l-2.806,2.238a1.267,1.267,0,0,1-2.05-.85c-.144-1.284-.31-2.758-.4-3.564a2.524,2.524,0,0,0-2.154-2.4h-5.7a2.522,2.522,0,0,0-2.154,2.4l-.4,3.564a1.269,1.269,0,0,1-2.052.85l-2.8-2.238a2.523,2.523,0,0,0-3.218-.172l-2.014,2.014c-.6.606-1.208,1.21-2.014,2.016a2.518,2.518,0,0,0,.172,3.218l2.238,2.8a1.267,1.267,0,0,1-.85,2.05c-1.286.146-2.758.31-3.566.4a2.518,2.518,0,0,0-2.4,2.154v5.7a2.52,2.52,0,0,0,2.4,2.154l3.566.4a1.269,1.269,0,0,1,.85,2.052c-.808,1.01-1.732,2.17-2.238,2.8a2.518,2.518,0,0,0-.172,3.218l2.014,2.014c.6.6,1.208,1.21,2.014,2.014a2.518,2.518,0,0,0,3.218-.172l2.8-2.236a1.268,1.268,0,0,1,2.052.848c.144,1.286.31,2.758.4,3.566a2.522,2.522,0,0,0,2.154,2.4h5.7a2.52,2.52,0,0,0,2.152-2.4l.4-3.566a1.266,1.266,0,0,1,2.05-.848l2.806,2.236a2.518,2.518,0,0,0,3.218.172L51.6,48.567l2.014-2.014a2.521,2.521,0,0,0-.172-3.218l-2.238-2.8a1.269,1.269,0,0,1,.85-2.052c1.284-.144,2.758-.308,3.564-.4a2.52,2.52,0,0,0,2.4-2.154v-5.7Z" transform="translate(-14.205 -11.169)"/>
        </g>
        <g id="Group_935" data-name="Group 935" transform="translate(15.442 13.368)">
          <line id="Line_111" data-name="Line 111" class="cls-3" y2="13.521" transform="translate(6.361)"/>
          <path id="Path_525" data-name="Path 525" class="cls-3" d="M21.926,23.556l6.444,6.419,6.114-6.419" transform="translate(-21.926 -12.15)"/>
        </g>
      </g>
      <g id="eLearning" transform="translate(0 9.719)">
        <path id="Path_526" data-name="Path 526" class="cls-3" d="M35.181,16.028h7.1V49.6" transform="translate(14.865 -16.028)"/>
        <path id="Path_527" data-name="Path 527" class="cls-3" d="M11.587,49.6V16.028h8.49" transform="translate(-8.729 -16.028)"/>
        <path id="Path_528" data-name="Path 528" class="cls-3" d="M55.878,32.993h14.28v.212a6.14,6.14,0,0,1-6.14,6.14H16.3a6.14,6.14,0,0,1-6.142-6.14v-.212H25.506" transform="translate(-10.158 0.936)"/>
      </g>
    </g>
  </g>
</svg>
