<?xml version="1.0" encoding="utf-8"?>
<!-- Generator: Adobe Illustrator 24.3.0, SVG Export Plug-In . SVG Version: 6.00 Build 0)  -->
<svg version="1.1" id="Layer_1" xmlns="http://www.w3.org/2000/svg" xmlns:xlink="http://www.w3.org/1999/xlink" x="0px" y="0px"
	 viewBox="0 0 28.7 30" style="enable-background:new 0 0 28.7 30;" xml:space="preserve">
<g>
	<path d="M18.7,11.5c-0.1-1.9-0.9-3.6-2.2-4.9c-1.5-1.5-3.6-2.3-5.7-2.2c-0.5,0-0.9,0.5-0.9,1c0,0.5,0.5,0.9,1,0.9
		c1.6-0.1,3.1,0.5,4.3,1.6c1,1,1.6,2.3,1.6,3.7c0,0.5,0.4,0.9,0.9,0.9c0,0,0,0,0,0C18.4,12.5,18.8,12,18.7,11.5z"/>
	<path d="M28.1,25.7l-7.4-7.4c1.4-1.9,2.3-4.3,2.3-6.8C23,5.2,17.8,0,11.5,0C5.2,0,0,5.2,0,11.5S5.2,23,11.5,23
		c1.9,0,3.7-0.5,5.3-1.3c0,0.1,0.1,0.1,0.1,0.2l7.5,7.5c0.4,0.4,1,0.7,1.6,0.7s1.2-0.2,1.6-0.7l0.5-0.5c0.4-0.4,0.7-1,0.7-1.6
		S28.5,26.1,28.1,25.7z M1.9,11.5c0-5.3,4.3-9.6,9.6-9.6c5.3,0,9.6,4.3,9.6,9.6c0,5.3-4.3,9.6-9.6,9.6C6.2,21.1,1.9,16.8,1.9,11.5z
		 M26.8,27.5L26.3,28c-0.2,0.2-0.3,0.2-0.5,0l-7.4-7.4c0.4-0.3,0.7-0.6,1.1-0.9l7.3,7.3c0.1,0.1,0.1,0.2,0.1,0.3
		S26.8,27.4,26.8,27.5z"/>
</g>
</svg>
