<?xml version="1.0" encoding="utf-8"?>
<!-- Generator: Adobe Illustrator 24.3.0, SVG Export Plug-In . SVG Version: 6.00 Build 0)  -->
<svg version="1.1" id="Layer_1" xmlns="http://www.w3.org/2000/svg" xmlns:xlink="http://www.w3.org/1999/xlink" x="0px" y="0px"
	 viewBox="0 0 60 64" style="enable-background:new 0 0 60 64;" xml:space="preserve">
<style type="text/css">
	.st0{fill:none;}
	.st1{fill:none;stroke:#603c5e;stroke-width:4;stroke-linecap:round;stroke-linejoin:round;}
</style>
<g id="tech-knowledge" transform="translate(0 97)">
	<rect id="Rectangle_647" y="-95" class="st0" width="60" height="60"/>
	<g id="Group_943" transform="translate(3 -95)">
		<g id="owloGF" transform="translate(0 1.266)">
			<path id="Path_475_1_" class="st1" d="M44.9,35.1c-0.6,0.9-2.9,3.8-2.9,4.5c-0.1,3.9,0,13.3,0,13.3l-24.7,5.8
				c0,0,0.1-4.1,0.1-7.4c0-2.3-7.3,1.2-8.8-1.6C7,47.1,5.8,38,5.8,38s-6.6-1.1-5.8-2.7c1.9-3.7,6.4-9.5,6.3-11.9
				C4,10.6,8.4,3.6,20.3,1.1"/>
		</g>
		<path id="Path_477" class="st1" d="M53.2,14.7c-0.1-0.9-0.9-1.6-1.9-1.7l-2.8-0.3c-0.5-0.1-0.9-0.5-0.9-1.1c0-0.2,0.1-0.4,0.2-0.5
			L49.7,9c0.6-0.7,0.7-1.7,0.1-2.5c-0.6-0.6-1.1-1.1-1.6-1.6l-1.6-1.6c-0.8-0.6-1.8-0.5-2.5,0.1L42,5.3c-0.4,0.3-1,0.3-1.4-0.2
			c-0.1-0.1-0.2-0.3-0.2-0.5c-0.1-1-0.2-2.1-0.3-2.8c0-0.9-0.7-1.7-1.7-1.9h-4.4c-0.9,0.1-1.6,0.9-1.7,1.9l-0.3,2.8
			C32,5.1,31.6,5.5,31,5.5c-0.2,0-0.4-0.1-0.5-0.2l-2.2-1.7c-0.7-0.6-1.7-0.7-2.5-0.1C25.2,4,24.8,4.5,24.3,5l-1.6,1.6
			c-0.6,0.8-0.5,1.8,0.1,2.5l1.7,2.2c0.3,0.4,0.3,1-0.2,1.4c-0.1,0.1-0.3,0.2-0.5,0.2l-2.8,0.3c-0.9,0-1.7,0.7-1.9,1.7v4.4
			c0.1,0.9,0.9,1.6,1.9,1.7l2.8,0.3c0.5,0.1,0.9,0.5,0.9,1.1c0,0.2-0.1,0.4-0.2,0.5l-1.7,2.2c-0.6,0.7-0.7,1.7-0.1,2.5
			c0.6,0.6,1.1,1.1,1.6,1.6l1.6,1.6c0.8,0.6,1.8,0.5,2.5-0.1l2.2-1.7c0.4-0.3,1-0.3,1.4,0.2c0.1,0.1,0.2,0.3,0.2,0.5
			c0.1,1,0.2,2.1,0.3,2.8c0,0.9,0.7,1.7,1.7,1.9h4.4c0.9-0.1,1.6-0.9,1.7-1.9l0.3-2.8c0.1-0.5,0.5-0.9,1.1-0.9
			c0.2,0,0.4,0.1,0.5,0.2l2.2,1.7c0.7,0.6,1.7,0.7,2.5,0.1l1.6-1.6l1.6-1.6c0.6-0.8,0.5-1.8-0.1-2.5l-1.7-2.2
			c-0.3-0.4-0.3-1,0.2-1.4c0.1-0.1,0.3-0.2,0.5-0.2l2.8-0.3c0.9,0,1.7-0.7,1.9-1.7L53.2,14.7L53.2,14.7z M40.9,16.9
			c0-2.5-2.1-4.6-4.6-4.6c-2.5,0-4.6,2.1-4.6,4.6s2.1,4.6,4.6,4.6c0,0,0,0,0,0C38.8,21.5,40.9,19.5,40.9,16.9L40.9,16.9z"/>
	</g>
</g>
</svg>
