<svg xmlns="http://www.w3.org/2000/svg" width="64" height="60" viewBox="0 0 64 60">
  <defs>
    <style>
      .cls-1, .cls-2 {
        fill: none;
      }

      .cls-2 {
        stroke: #603c5e;
        stroke-linecap: round;
        stroke-linejoin: round;
        stroke-width: 4px;
      }
    </style>
  </defs>
  <g id="tutorials" transform="translate(-15.246 -6)">
    <rect id="Rectangle_571" data-name="Rectangle 571" class="cls-1" width="60" height="60" rx="3" transform="translate(17.246 6)"/>
    <g id="eLearning" transform="translate(17.246 15.75)">
      <path id="Path_534" data-name="Path 534" class="cls-2" d="M11.719,48.85V15.279H66V48.85" transform="translate(-8.861 -15.279)"/>
      <path id="Rectangle_646" data-name="Rectangle 646" class="cls-2" d="M0,0H60a0,0,0,0,1,0,0V3.283a3.071,3.071,0,0,1-3.071,3.071H3.071A3.071,3.071,0,0,1,0,3.283V0A0,0,0,0,1,0,0Z" transform="translate(0 33.929)"/>
      <path id="Path_535" data-name="Path 535" class="cls-2" d="M21.536,39.962,40.349,29.341,21.536,18.72Z" transform="translate(0.956 -11.838)"/>
    </g>
  </g>
</svg>
